G04 EAGLE Gerber RS-274X export*
G75*
%MOMM*%
%FSLAX34Y34*%
%LPD*%
%INBottom Silkscreen*%
%IPPOS*%
%AMOC8*
5,1,8,0,0,1.08239X$1,22.5*%
G01*
%ADD10C,0.254000*%
%ADD11C,0.152400*%
%ADD12C,0.101600*%
%ADD13C,0.127000*%
%ADD14C,0.050800*%


D10*
X275170Y450330D02*
X625170Y450330D01*
X627586Y450301D01*
X630001Y450213D01*
X632413Y450067D01*
X634821Y449863D01*
X637224Y449601D01*
X639619Y449281D01*
X642006Y448903D01*
X644383Y448467D01*
X646748Y447974D01*
X649102Y447424D01*
X651441Y446818D01*
X653765Y446155D01*
X656072Y445436D01*
X658361Y444661D01*
X660630Y443832D01*
X662879Y442947D01*
X665106Y442009D01*
X667310Y441017D01*
X669489Y439973D01*
X671642Y438876D01*
X673768Y437727D01*
X675866Y436527D01*
X677934Y435277D01*
X679971Y433977D01*
X681976Y432628D01*
X683949Y431232D01*
X685886Y429788D01*
X687789Y428297D01*
X689654Y426762D01*
X691482Y425181D01*
X693272Y423557D01*
X695021Y421890D01*
X696730Y420181D01*
X698397Y418432D01*
X700021Y416642D01*
X701602Y414814D01*
X703137Y412949D01*
X704628Y411046D01*
X706072Y409109D01*
X707468Y407136D01*
X708817Y405131D01*
X710117Y403094D01*
X711367Y401026D01*
X712567Y398928D01*
X713716Y396802D01*
X714813Y394649D01*
X715857Y392470D01*
X716849Y390266D01*
X717787Y388039D01*
X718672Y385790D01*
X719501Y383521D01*
X720276Y381232D01*
X720995Y378925D01*
X721658Y376601D01*
X722264Y374262D01*
X722814Y371908D01*
X723307Y369543D01*
X723743Y367166D01*
X724121Y364779D01*
X724441Y362384D01*
X724703Y359981D01*
X724907Y357573D01*
X725053Y355161D01*
X725141Y352746D01*
X725170Y350330D01*
X725170Y200330D01*
X725141Y197914D01*
X725053Y195499D01*
X724907Y193087D01*
X724703Y190679D01*
X724441Y188276D01*
X724121Y185881D01*
X723743Y183494D01*
X723307Y181117D01*
X722814Y178752D01*
X722264Y176398D01*
X721658Y174059D01*
X720995Y171735D01*
X720276Y169428D01*
X719501Y167139D01*
X718672Y164870D01*
X717787Y162621D01*
X716849Y160394D01*
X715857Y158190D01*
X714813Y156011D01*
X713716Y153858D01*
X712567Y151732D01*
X711367Y149634D01*
X710117Y147566D01*
X708817Y145529D01*
X707468Y143524D01*
X706072Y141551D01*
X704628Y139614D01*
X703137Y137711D01*
X701602Y135846D01*
X700021Y134018D01*
X698397Y132228D01*
X696730Y130479D01*
X695021Y128770D01*
X693272Y127103D01*
X691482Y125479D01*
X689654Y123898D01*
X687789Y122363D01*
X685886Y120872D01*
X683949Y119428D01*
X681976Y118032D01*
X679971Y116683D01*
X677934Y115383D01*
X675866Y114133D01*
X673768Y112933D01*
X671642Y111784D01*
X669489Y110687D01*
X667310Y109643D01*
X665106Y108651D01*
X662879Y107713D01*
X660630Y106828D01*
X658361Y105999D01*
X656072Y105224D01*
X653765Y104505D01*
X651441Y103842D01*
X649102Y103236D01*
X646748Y102686D01*
X644383Y102193D01*
X642006Y101757D01*
X639619Y101379D01*
X637224Y101059D01*
X634821Y100797D01*
X632413Y100593D01*
X630001Y100447D01*
X627586Y100359D01*
X625170Y100330D01*
X275170Y100330D01*
X272754Y100359D01*
X270339Y100447D01*
X267927Y100593D01*
X265519Y100797D01*
X263116Y101059D01*
X260721Y101379D01*
X258334Y101757D01*
X255957Y102193D01*
X253592Y102686D01*
X251238Y103236D01*
X248899Y103842D01*
X246575Y104505D01*
X244268Y105224D01*
X241979Y105999D01*
X239710Y106828D01*
X237461Y107713D01*
X235234Y108651D01*
X233030Y109643D01*
X230851Y110687D01*
X228698Y111784D01*
X226572Y112933D01*
X224474Y114133D01*
X222406Y115383D01*
X220369Y116683D01*
X218364Y118032D01*
X216391Y119428D01*
X214454Y120872D01*
X212551Y122363D01*
X210686Y123898D01*
X208858Y125479D01*
X207068Y127103D01*
X205319Y128770D01*
X203610Y130479D01*
X201943Y132228D01*
X200319Y134018D01*
X198738Y135846D01*
X197203Y137711D01*
X195712Y139614D01*
X194268Y141551D01*
X192872Y143524D01*
X191523Y145529D01*
X190223Y147566D01*
X188973Y149634D01*
X187773Y151732D01*
X186624Y153858D01*
X185527Y156011D01*
X184483Y158190D01*
X183491Y160394D01*
X182553Y162621D01*
X181668Y164870D01*
X180839Y167139D01*
X180064Y169428D01*
X179345Y171735D01*
X178682Y174059D01*
X178076Y176398D01*
X177526Y178752D01*
X177033Y181117D01*
X176597Y183494D01*
X176219Y185881D01*
X175899Y188276D01*
X175637Y190679D01*
X175433Y193087D01*
X175287Y195499D01*
X175199Y197914D01*
X175170Y200330D01*
X175170Y350330D01*
X175199Y352746D01*
X175287Y355161D01*
X175433Y357573D01*
X175637Y359981D01*
X175899Y362384D01*
X176219Y364779D01*
X176597Y367166D01*
X177033Y369543D01*
X177526Y371908D01*
X178076Y374262D01*
X178682Y376601D01*
X179345Y378925D01*
X180064Y381232D01*
X180839Y383521D01*
X181668Y385790D01*
X182553Y388039D01*
X183491Y390266D01*
X184483Y392470D01*
X185527Y394649D01*
X186624Y396802D01*
X187773Y398928D01*
X188973Y401026D01*
X190223Y403094D01*
X191523Y405131D01*
X192872Y407136D01*
X194268Y409109D01*
X195712Y411046D01*
X197203Y412949D01*
X198738Y414814D01*
X200319Y416642D01*
X201943Y418432D01*
X203610Y420181D01*
X205319Y421890D01*
X207068Y423557D01*
X208858Y425181D01*
X210686Y426762D01*
X212551Y428297D01*
X214454Y429788D01*
X216391Y431232D01*
X218364Y432628D01*
X220369Y433977D01*
X222406Y435277D01*
X224474Y436527D01*
X226572Y437727D01*
X228698Y438876D01*
X230851Y439973D01*
X233030Y441017D01*
X235234Y442009D01*
X237461Y442947D01*
X239710Y443832D01*
X241979Y444661D01*
X244268Y445436D01*
X246575Y446155D01*
X248899Y446818D01*
X251238Y447424D01*
X253592Y447974D01*
X255957Y448467D01*
X258334Y448903D01*
X260721Y449281D01*
X263116Y449601D01*
X265519Y449863D01*
X267927Y450067D01*
X270339Y450213D01*
X272754Y450301D01*
X275170Y450330D01*
D11*
X686562Y143877D02*
X697738Y143877D01*
X697738Y146981D01*
X697736Y147092D01*
X697730Y147202D01*
X697720Y147313D01*
X697706Y147423D01*
X697689Y147532D01*
X697667Y147641D01*
X697642Y147749D01*
X697612Y147855D01*
X697579Y147961D01*
X697542Y148066D01*
X697502Y148169D01*
X697457Y148270D01*
X697410Y148370D01*
X697358Y148469D01*
X697303Y148565D01*
X697245Y148659D01*
X697184Y148751D01*
X697119Y148841D01*
X697051Y148929D01*
X696980Y149014D01*
X696906Y149096D01*
X696829Y149176D01*
X696749Y149253D01*
X696667Y149327D01*
X696582Y149398D01*
X696494Y149466D01*
X696404Y149531D01*
X696312Y149592D01*
X696218Y149650D01*
X696122Y149705D01*
X696023Y149757D01*
X695923Y149804D01*
X695822Y149849D01*
X695719Y149889D01*
X695614Y149926D01*
X695508Y149959D01*
X695402Y149989D01*
X695294Y150014D01*
X695185Y150036D01*
X695076Y150053D01*
X694966Y150067D01*
X694855Y150077D01*
X694745Y150083D01*
X694634Y150085D01*
X694523Y150083D01*
X694413Y150077D01*
X694302Y150067D01*
X694192Y150053D01*
X694083Y150036D01*
X693974Y150014D01*
X693866Y149989D01*
X693760Y149959D01*
X693654Y149926D01*
X693549Y149889D01*
X693446Y149849D01*
X693345Y149804D01*
X693245Y149757D01*
X693146Y149705D01*
X693050Y149650D01*
X692956Y149592D01*
X692864Y149531D01*
X692774Y149466D01*
X692686Y149398D01*
X692601Y149327D01*
X692519Y149253D01*
X692439Y149176D01*
X692362Y149096D01*
X692288Y149014D01*
X692217Y148929D01*
X692149Y148841D01*
X692084Y148751D01*
X692023Y148659D01*
X691965Y148565D01*
X691910Y148469D01*
X691858Y148370D01*
X691811Y148270D01*
X691766Y148169D01*
X691726Y148066D01*
X691689Y147961D01*
X691656Y147855D01*
X691626Y147749D01*
X691601Y147641D01*
X691579Y147532D01*
X691562Y147423D01*
X691548Y147313D01*
X691538Y147202D01*
X691532Y147092D01*
X691530Y146981D01*
X691529Y146981D02*
X691529Y143877D01*
X695254Y154714D02*
X697738Y157819D01*
X686562Y157819D01*
X686562Y160923D02*
X686562Y154714D01*
X686562Y397877D02*
X697738Y397877D01*
X697738Y400981D01*
X697736Y401092D01*
X697730Y401202D01*
X697720Y401313D01*
X697706Y401423D01*
X697689Y401532D01*
X697667Y401641D01*
X697642Y401749D01*
X697612Y401855D01*
X697579Y401961D01*
X697542Y402066D01*
X697502Y402169D01*
X697457Y402270D01*
X697410Y402370D01*
X697358Y402469D01*
X697303Y402565D01*
X697245Y402659D01*
X697184Y402751D01*
X697119Y402841D01*
X697051Y402929D01*
X696980Y403014D01*
X696906Y403096D01*
X696829Y403176D01*
X696749Y403253D01*
X696667Y403327D01*
X696582Y403398D01*
X696494Y403466D01*
X696404Y403531D01*
X696312Y403592D01*
X696218Y403650D01*
X696122Y403705D01*
X696023Y403757D01*
X695923Y403804D01*
X695822Y403849D01*
X695719Y403889D01*
X695614Y403926D01*
X695508Y403959D01*
X695402Y403989D01*
X695294Y404014D01*
X695185Y404036D01*
X695076Y404053D01*
X694966Y404067D01*
X694855Y404077D01*
X694745Y404083D01*
X694634Y404085D01*
X694523Y404083D01*
X694413Y404077D01*
X694302Y404067D01*
X694192Y404053D01*
X694083Y404036D01*
X693974Y404014D01*
X693866Y403989D01*
X693760Y403959D01*
X693654Y403926D01*
X693549Y403889D01*
X693446Y403849D01*
X693345Y403804D01*
X693245Y403757D01*
X693146Y403705D01*
X693050Y403650D01*
X692956Y403592D01*
X692864Y403531D01*
X692774Y403466D01*
X692686Y403398D01*
X692601Y403327D01*
X692519Y403253D01*
X692439Y403176D01*
X692362Y403096D01*
X692288Y403014D01*
X692217Y402929D01*
X692149Y402841D01*
X692084Y402751D01*
X692023Y402659D01*
X691965Y402565D01*
X691910Y402469D01*
X691858Y402370D01*
X691811Y402270D01*
X691766Y402169D01*
X691726Y402066D01*
X691689Y401961D01*
X691656Y401855D01*
X691626Y401749D01*
X691601Y401641D01*
X691579Y401532D01*
X691562Y401423D01*
X691548Y401313D01*
X691538Y401202D01*
X691532Y401092D01*
X691530Y400981D01*
X691529Y400981D02*
X691529Y397877D01*
X697738Y412129D02*
X697736Y412233D01*
X697730Y412338D01*
X697720Y412442D01*
X697707Y412545D01*
X697689Y412648D01*
X697668Y412751D01*
X697643Y412852D01*
X697614Y412953D01*
X697581Y413052D01*
X697545Y413150D01*
X697505Y413246D01*
X697461Y413341D01*
X697414Y413435D01*
X697364Y413526D01*
X697310Y413615D01*
X697253Y413703D01*
X697192Y413788D01*
X697128Y413871D01*
X697062Y413951D01*
X696992Y414029D01*
X696920Y414105D01*
X696844Y414177D01*
X696766Y414247D01*
X696686Y414313D01*
X696603Y414377D01*
X696518Y414438D01*
X696430Y414495D01*
X696341Y414549D01*
X696250Y414599D01*
X696156Y414646D01*
X696061Y414690D01*
X695965Y414730D01*
X695867Y414766D01*
X695768Y414799D01*
X695667Y414828D01*
X695566Y414853D01*
X695463Y414874D01*
X695360Y414892D01*
X695257Y414905D01*
X695153Y414915D01*
X695048Y414921D01*
X694944Y414923D01*
X697739Y412129D02*
X697737Y412010D01*
X697731Y411892D01*
X697721Y411773D01*
X697708Y411655D01*
X697690Y411538D01*
X697668Y411421D01*
X697643Y411305D01*
X697614Y411190D01*
X697581Y411075D01*
X697544Y410962D01*
X697504Y410851D01*
X697460Y410740D01*
X697412Y410632D01*
X697361Y410525D01*
X697306Y410419D01*
X697247Y410316D01*
X697186Y410214D01*
X697121Y410115D01*
X697052Y410017D01*
X696981Y409923D01*
X696906Y409830D01*
X696829Y409740D01*
X696748Y409653D01*
X696665Y409568D01*
X696579Y409486D01*
X696490Y409407D01*
X696399Y409331D01*
X696305Y409258D01*
X696209Y409189D01*
X696110Y409122D01*
X696010Y409059D01*
X695907Y408999D01*
X695803Y408942D01*
X695696Y408890D01*
X695588Y408840D01*
X695479Y408794D01*
X695367Y408752D01*
X695255Y408714D01*
X692771Y413992D02*
X692845Y414067D01*
X692922Y414139D01*
X693001Y414209D01*
X693083Y414276D01*
X693167Y414340D01*
X693253Y414401D01*
X693341Y414459D01*
X693432Y414514D01*
X693524Y414566D01*
X693618Y414614D01*
X693713Y414659D01*
X693811Y414701D01*
X693909Y414739D01*
X694009Y414774D01*
X694110Y414805D01*
X694212Y414832D01*
X694315Y414856D01*
X694418Y414877D01*
X694523Y414893D01*
X694628Y414906D01*
X694733Y414916D01*
X694838Y414921D01*
X694944Y414923D01*
X692771Y413992D02*
X686562Y408714D01*
X686562Y414923D01*
D12*
X507492Y361442D02*
X507492Y349758D01*
X507492Y361442D02*
X504246Y361442D01*
X504133Y361440D01*
X504020Y361434D01*
X503907Y361424D01*
X503794Y361410D01*
X503682Y361393D01*
X503571Y361371D01*
X503461Y361346D01*
X503351Y361316D01*
X503243Y361283D01*
X503136Y361246D01*
X503030Y361206D01*
X502926Y361161D01*
X502823Y361113D01*
X502722Y361062D01*
X502623Y361007D01*
X502526Y360949D01*
X502431Y360887D01*
X502338Y360822D01*
X502248Y360754D01*
X502160Y360683D01*
X502074Y360608D01*
X501991Y360531D01*
X501911Y360451D01*
X501834Y360368D01*
X501759Y360282D01*
X501688Y360194D01*
X501620Y360104D01*
X501555Y360011D01*
X501493Y359916D01*
X501435Y359819D01*
X501380Y359720D01*
X501329Y359619D01*
X501281Y359516D01*
X501236Y359412D01*
X501196Y359306D01*
X501159Y359199D01*
X501126Y359091D01*
X501096Y358981D01*
X501071Y358871D01*
X501049Y358760D01*
X501032Y358648D01*
X501018Y358535D01*
X501008Y358422D01*
X501002Y358309D01*
X501000Y358196D01*
X501002Y358083D01*
X501008Y357970D01*
X501018Y357857D01*
X501032Y357744D01*
X501049Y357632D01*
X501071Y357521D01*
X501096Y357411D01*
X501126Y357301D01*
X501159Y357193D01*
X501196Y357086D01*
X501236Y356980D01*
X501281Y356876D01*
X501329Y356773D01*
X501380Y356672D01*
X501435Y356573D01*
X501493Y356476D01*
X501555Y356381D01*
X501620Y356288D01*
X501688Y356198D01*
X501759Y356110D01*
X501834Y356024D01*
X501911Y355941D01*
X501991Y355861D01*
X502074Y355784D01*
X502160Y355709D01*
X502248Y355638D01*
X502338Y355570D01*
X502431Y355505D01*
X502526Y355443D01*
X502623Y355385D01*
X502722Y355330D01*
X502823Y355279D01*
X502926Y355231D01*
X503030Y355186D01*
X503136Y355146D01*
X503243Y355109D01*
X503351Y355076D01*
X503461Y355046D01*
X503571Y355021D01*
X503682Y354999D01*
X503794Y354982D01*
X503907Y354968D01*
X504020Y354958D01*
X504133Y354952D01*
X504246Y354950D01*
X504246Y354951D02*
X507492Y354951D01*
X496725Y354951D02*
X496725Y352354D01*
X496725Y354951D02*
X496723Y355052D01*
X496717Y355152D01*
X496707Y355252D01*
X496694Y355352D01*
X496676Y355451D01*
X496655Y355550D01*
X496630Y355647D01*
X496601Y355744D01*
X496568Y355839D01*
X496532Y355933D01*
X496492Y356025D01*
X496449Y356116D01*
X496402Y356205D01*
X496352Y356292D01*
X496298Y356378D01*
X496241Y356461D01*
X496181Y356541D01*
X496118Y356620D01*
X496051Y356696D01*
X495982Y356769D01*
X495910Y356839D01*
X495836Y356907D01*
X495759Y356972D01*
X495679Y357033D01*
X495597Y357092D01*
X495513Y357147D01*
X495427Y357199D01*
X495339Y357248D01*
X495249Y357293D01*
X495157Y357335D01*
X495064Y357373D01*
X494969Y357407D01*
X494874Y357438D01*
X494777Y357465D01*
X494679Y357488D01*
X494580Y357508D01*
X494480Y357523D01*
X494380Y357535D01*
X494280Y357543D01*
X494179Y357547D01*
X494079Y357547D01*
X493978Y357543D01*
X493878Y357535D01*
X493778Y357523D01*
X493678Y357508D01*
X493579Y357488D01*
X493481Y357465D01*
X493384Y357438D01*
X493289Y357407D01*
X493194Y357373D01*
X493101Y357335D01*
X493009Y357293D01*
X492919Y357248D01*
X492831Y357199D01*
X492745Y357147D01*
X492661Y357092D01*
X492579Y357033D01*
X492499Y356972D01*
X492422Y356907D01*
X492348Y356839D01*
X492276Y356769D01*
X492207Y356696D01*
X492140Y356620D01*
X492077Y356541D01*
X492017Y356461D01*
X491960Y356378D01*
X491906Y356292D01*
X491856Y356205D01*
X491809Y356116D01*
X491766Y356025D01*
X491726Y355933D01*
X491690Y355839D01*
X491657Y355744D01*
X491628Y355647D01*
X491603Y355550D01*
X491582Y355451D01*
X491564Y355352D01*
X491551Y355252D01*
X491541Y355152D01*
X491535Y355052D01*
X491533Y354951D01*
X491532Y354951D02*
X491532Y352354D01*
X491533Y352354D02*
X491535Y352253D01*
X491541Y352153D01*
X491551Y352053D01*
X491564Y351953D01*
X491582Y351854D01*
X491603Y351755D01*
X491628Y351658D01*
X491657Y351561D01*
X491690Y351466D01*
X491726Y351372D01*
X491766Y351280D01*
X491809Y351189D01*
X491856Y351100D01*
X491906Y351013D01*
X491960Y350927D01*
X492017Y350844D01*
X492077Y350764D01*
X492140Y350685D01*
X492207Y350609D01*
X492276Y350536D01*
X492348Y350466D01*
X492422Y350398D01*
X492499Y350333D01*
X492579Y350272D01*
X492661Y350213D01*
X492745Y350158D01*
X492831Y350106D01*
X492919Y350057D01*
X493009Y350012D01*
X493101Y349970D01*
X493194Y349932D01*
X493289Y349898D01*
X493384Y349867D01*
X493481Y349840D01*
X493579Y349817D01*
X493678Y349797D01*
X493778Y349782D01*
X493878Y349770D01*
X493978Y349762D01*
X494079Y349758D01*
X494179Y349758D01*
X494280Y349762D01*
X494380Y349770D01*
X494480Y349782D01*
X494580Y349797D01*
X494679Y349817D01*
X494777Y349840D01*
X494874Y349867D01*
X494969Y349898D01*
X495064Y349932D01*
X495157Y349970D01*
X495249Y350012D01*
X495339Y350057D01*
X495427Y350106D01*
X495513Y350158D01*
X495597Y350213D01*
X495679Y350272D01*
X495759Y350333D01*
X495836Y350398D01*
X495910Y350466D01*
X495982Y350536D01*
X496051Y350609D01*
X496118Y350685D01*
X496181Y350764D01*
X496241Y350844D01*
X496298Y350927D01*
X496352Y351013D01*
X496402Y351100D01*
X496449Y351189D01*
X496492Y351280D01*
X496532Y351372D01*
X496568Y351466D01*
X496601Y351561D01*
X496630Y351658D01*
X496655Y351755D01*
X496676Y351854D01*
X496694Y351953D01*
X496707Y352053D01*
X496717Y352153D01*
X496723Y352253D01*
X496725Y352354D01*
X484859Y349758D02*
X482262Y349758D01*
X484859Y349758D02*
X484946Y349760D01*
X485034Y349766D01*
X485120Y349776D01*
X485207Y349789D01*
X485292Y349807D01*
X485377Y349828D01*
X485461Y349853D01*
X485543Y349882D01*
X485624Y349915D01*
X485704Y349951D01*
X485782Y349990D01*
X485858Y350034D01*
X485932Y350080D01*
X486003Y350130D01*
X486073Y350183D01*
X486140Y350239D01*
X486204Y350298D01*
X486266Y350360D01*
X486325Y350424D01*
X486381Y350491D01*
X486434Y350561D01*
X486484Y350632D01*
X486530Y350706D01*
X486574Y350782D01*
X486613Y350860D01*
X486649Y350940D01*
X486682Y351021D01*
X486711Y351103D01*
X486736Y351187D01*
X486757Y351272D01*
X486775Y351357D01*
X486788Y351444D01*
X486798Y351530D01*
X486804Y351618D01*
X486806Y351705D01*
X486806Y355600D01*
X486804Y355687D01*
X486798Y355775D01*
X486788Y355861D01*
X486775Y355948D01*
X486757Y356033D01*
X486736Y356118D01*
X486711Y356202D01*
X486682Y356284D01*
X486649Y356365D01*
X486613Y356445D01*
X486574Y356523D01*
X486530Y356599D01*
X486484Y356673D01*
X486434Y356744D01*
X486381Y356814D01*
X486325Y356881D01*
X486266Y356945D01*
X486204Y357007D01*
X486140Y357066D01*
X486073Y357122D01*
X486003Y357175D01*
X485932Y357225D01*
X485858Y357271D01*
X485782Y357315D01*
X485704Y357354D01*
X485624Y357390D01*
X485543Y357423D01*
X485461Y357452D01*
X485377Y357477D01*
X485292Y357498D01*
X485207Y357516D01*
X485120Y357529D01*
X485034Y357539D01*
X484946Y357545D01*
X484859Y357547D01*
X482262Y357547D01*
X476109Y349758D02*
X472863Y349758D01*
X476109Y349758D02*
X476196Y349760D01*
X476284Y349766D01*
X476370Y349776D01*
X476457Y349789D01*
X476542Y349807D01*
X476627Y349828D01*
X476711Y349853D01*
X476793Y349882D01*
X476874Y349915D01*
X476954Y349951D01*
X477032Y349990D01*
X477108Y350034D01*
X477182Y350080D01*
X477253Y350130D01*
X477323Y350183D01*
X477390Y350239D01*
X477454Y350298D01*
X477516Y350360D01*
X477575Y350424D01*
X477631Y350491D01*
X477684Y350561D01*
X477734Y350632D01*
X477780Y350706D01*
X477824Y350782D01*
X477863Y350860D01*
X477899Y350940D01*
X477932Y351021D01*
X477961Y351103D01*
X477986Y351187D01*
X478007Y351272D01*
X478025Y351357D01*
X478038Y351444D01*
X478048Y351530D01*
X478054Y351618D01*
X478056Y351705D01*
X478056Y354951D01*
X478054Y355052D01*
X478048Y355152D01*
X478038Y355252D01*
X478025Y355352D01*
X478007Y355451D01*
X477986Y355550D01*
X477961Y355647D01*
X477932Y355744D01*
X477899Y355839D01*
X477863Y355933D01*
X477823Y356025D01*
X477780Y356116D01*
X477733Y356205D01*
X477683Y356292D01*
X477629Y356378D01*
X477572Y356461D01*
X477512Y356541D01*
X477449Y356620D01*
X477382Y356696D01*
X477313Y356769D01*
X477241Y356839D01*
X477167Y356907D01*
X477090Y356972D01*
X477010Y357033D01*
X476928Y357092D01*
X476844Y357147D01*
X476758Y357199D01*
X476670Y357248D01*
X476580Y357293D01*
X476488Y357335D01*
X476395Y357373D01*
X476300Y357407D01*
X476205Y357438D01*
X476108Y357465D01*
X476010Y357488D01*
X475911Y357508D01*
X475811Y357523D01*
X475711Y357535D01*
X475611Y357543D01*
X475510Y357547D01*
X475410Y357547D01*
X475309Y357543D01*
X475209Y357535D01*
X475109Y357523D01*
X475009Y357508D01*
X474910Y357488D01*
X474812Y357465D01*
X474715Y357438D01*
X474620Y357407D01*
X474525Y357373D01*
X474432Y357335D01*
X474340Y357293D01*
X474250Y357248D01*
X474162Y357199D01*
X474076Y357147D01*
X473992Y357092D01*
X473910Y357033D01*
X473830Y356972D01*
X473753Y356907D01*
X473679Y356839D01*
X473607Y356769D01*
X473538Y356696D01*
X473471Y356620D01*
X473408Y356541D01*
X473348Y356461D01*
X473291Y356378D01*
X473237Y356292D01*
X473187Y356205D01*
X473140Y356116D01*
X473097Y356025D01*
X473057Y355933D01*
X473021Y355839D01*
X472988Y355744D01*
X472959Y355647D01*
X472934Y355550D01*
X472913Y355451D01*
X472895Y355352D01*
X472882Y355252D01*
X472872Y355152D01*
X472866Y355052D01*
X472864Y354951D01*
X472863Y354951D02*
X472863Y353653D01*
X478056Y353653D01*
X467634Y349758D02*
X467634Y361442D01*
X462441Y357547D02*
X467634Y353653D01*
X465362Y355275D02*
X462441Y349758D01*
X459212Y357547D02*
X455317Y357547D01*
X457913Y361442D02*
X457913Y351705D01*
X457911Y351618D01*
X457905Y351530D01*
X457895Y351444D01*
X457882Y351357D01*
X457864Y351272D01*
X457843Y351187D01*
X457818Y351103D01*
X457789Y351021D01*
X457756Y350940D01*
X457720Y350860D01*
X457681Y350782D01*
X457637Y350706D01*
X457591Y350632D01*
X457541Y350561D01*
X457488Y350491D01*
X457432Y350424D01*
X457373Y350360D01*
X457311Y350298D01*
X457247Y350239D01*
X457180Y350183D01*
X457110Y350130D01*
X457039Y350080D01*
X456965Y350034D01*
X456889Y349990D01*
X456811Y349951D01*
X456731Y349915D01*
X456650Y349882D01*
X456568Y349853D01*
X456484Y349828D01*
X456399Y349807D01*
X456314Y349789D01*
X456227Y349776D01*
X456141Y349766D01*
X456053Y349760D01*
X455966Y349758D01*
X455317Y349758D01*
X450342Y356249D02*
X447097Y356249D01*
X447097Y356250D02*
X446984Y356248D01*
X446871Y356242D01*
X446758Y356232D01*
X446645Y356218D01*
X446533Y356201D01*
X446422Y356179D01*
X446312Y356154D01*
X446202Y356124D01*
X446094Y356091D01*
X445987Y356054D01*
X445881Y356014D01*
X445777Y355969D01*
X445674Y355921D01*
X445573Y355870D01*
X445474Y355815D01*
X445377Y355757D01*
X445282Y355695D01*
X445189Y355630D01*
X445099Y355562D01*
X445011Y355491D01*
X444925Y355416D01*
X444842Y355339D01*
X444762Y355259D01*
X444685Y355176D01*
X444610Y355090D01*
X444539Y355002D01*
X444471Y354912D01*
X444406Y354819D01*
X444344Y354724D01*
X444286Y354627D01*
X444231Y354528D01*
X444180Y354427D01*
X444132Y354324D01*
X444087Y354220D01*
X444047Y354114D01*
X444010Y354007D01*
X443977Y353899D01*
X443947Y353789D01*
X443922Y353679D01*
X443900Y353568D01*
X443883Y353456D01*
X443869Y353343D01*
X443859Y353230D01*
X443853Y353117D01*
X443851Y353004D01*
X443853Y352891D01*
X443859Y352778D01*
X443869Y352665D01*
X443883Y352552D01*
X443900Y352440D01*
X443922Y352329D01*
X443947Y352219D01*
X443977Y352109D01*
X444010Y352001D01*
X444047Y351894D01*
X444087Y351788D01*
X444132Y351684D01*
X444180Y351581D01*
X444231Y351480D01*
X444286Y351381D01*
X444344Y351284D01*
X444406Y351189D01*
X444471Y351096D01*
X444539Y351006D01*
X444610Y350918D01*
X444685Y350832D01*
X444762Y350749D01*
X444842Y350669D01*
X444925Y350592D01*
X445011Y350517D01*
X445099Y350446D01*
X445189Y350378D01*
X445282Y350313D01*
X445377Y350251D01*
X445474Y350193D01*
X445573Y350138D01*
X445674Y350087D01*
X445777Y350039D01*
X445881Y349994D01*
X445987Y349954D01*
X446094Y349917D01*
X446202Y349884D01*
X446312Y349854D01*
X446422Y349829D01*
X446533Y349807D01*
X446645Y349790D01*
X446758Y349776D01*
X446871Y349766D01*
X446984Y349760D01*
X447097Y349758D01*
X450342Y349758D01*
X450342Y361442D01*
X447097Y361442D01*
X446996Y361440D01*
X446896Y361434D01*
X446796Y361424D01*
X446696Y361411D01*
X446597Y361393D01*
X446498Y361372D01*
X446401Y361347D01*
X446304Y361318D01*
X446209Y361285D01*
X446115Y361249D01*
X446023Y361209D01*
X445932Y361166D01*
X445843Y361119D01*
X445756Y361069D01*
X445670Y361015D01*
X445587Y360958D01*
X445507Y360898D01*
X445428Y360835D01*
X445352Y360768D01*
X445279Y360699D01*
X445209Y360627D01*
X445141Y360553D01*
X445076Y360476D01*
X445015Y360396D01*
X444956Y360314D01*
X444901Y360230D01*
X444849Y360144D01*
X444800Y360056D01*
X444755Y359966D01*
X444713Y359874D01*
X444675Y359781D01*
X444641Y359686D01*
X444610Y359591D01*
X444583Y359494D01*
X444560Y359396D01*
X444540Y359297D01*
X444525Y359197D01*
X444513Y359097D01*
X444505Y358997D01*
X444501Y358896D01*
X444501Y358796D01*
X444505Y358695D01*
X444513Y358595D01*
X444525Y358495D01*
X444540Y358395D01*
X444560Y358296D01*
X444583Y358198D01*
X444610Y358101D01*
X444641Y358006D01*
X444675Y357911D01*
X444713Y357818D01*
X444755Y357726D01*
X444800Y357636D01*
X444849Y357548D01*
X444901Y357462D01*
X444956Y357378D01*
X445015Y357296D01*
X445076Y357216D01*
X445141Y357139D01*
X445209Y357065D01*
X445279Y356993D01*
X445352Y356924D01*
X445428Y356857D01*
X445507Y356794D01*
X445587Y356734D01*
X445670Y356677D01*
X445756Y356623D01*
X445843Y356573D01*
X445932Y356526D01*
X446023Y356483D01*
X446115Y356443D01*
X446209Y356407D01*
X446304Y356374D01*
X446401Y356345D01*
X446498Y356320D01*
X446597Y356299D01*
X446696Y356281D01*
X446796Y356268D01*
X446896Y356258D01*
X446996Y356252D01*
X447097Y356250D01*
X437628Y349758D02*
X434382Y349758D01*
X437628Y349758D02*
X437715Y349760D01*
X437803Y349766D01*
X437889Y349776D01*
X437976Y349789D01*
X438061Y349807D01*
X438146Y349828D01*
X438230Y349853D01*
X438312Y349882D01*
X438393Y349915D01*
X438473Y349951D01*
X438551Y349990D01*
X438627Y350034D01*
X438701Y350080D01*
X438772Y350130D01*
X438842Y350183D01*
X438909Y350239D01*
X438973Y350298D01*
X439035Y350360D01*
X439094Y350424D01*
X439150Y350491D01*
X439203Y350561D01*
X439253Y350632D01*
X439299Y350706D01*
X439343Y350782D01*
X439382Y350860D01*
X439418Y350940D01*
X439451Y351021D01*
X439480Y351103D01*
X439505Y351187D01*
X439526Y351272D01*
X439544Y351357D01*
X439557Y351444D01*
X439567Y351530D01*
X439573Y351618D01*
X439575Y351705D01*
X439575Y354951D01*
X439573Y355052D01*
X439567Y355152D01*
X439557Y355252D01*
X439544Y355352D01*
X439526Y355451D01*
X439505Y355550D01*
X439480Y355647D01*
X439451Y355744D01*
X439418Y355839D01*
X439382Y355933D01*
X439342Y356025D01*
X439299Y356116D01*
X439252Y356205D01*
X439202Y356292D01*
X439148Y356378D01*
X439091Y356461D01*
X439031Y356541D01*
X438968Y356620D01*
X438901Y356696D01*
X438832Y356769D01*
X438760Y356839D01*
X438686Y356907D01*
X438609Y356972D01*
X438529Y357033D01*
X438447Y357092D01*
X438363Y357147D01*
X438277Y357199D01*
X438189Y357248D01*
X438099Y357293D01*
X438007Y357335D01*
X437914Y357373D01*
X437819Y357407D01*
X437724Y357438D01*
X437627Y357465D01*
X437529Y357488D01*
X437430Y357508D01*
X437330Y357523D01*
X437230Y357535D01*
X437130Y357543D01*
X437029Y357547D01*
X436929Y357547D01*
X436828Y357543D01*
X436728Y357535D01*
X436628Y357523D01*
X436528Y357508D01*
X436429Y357488D01*
X436331Y357465D01*
X436234Y357438D01*
X436139Y357407D01*
X436044Y357373D01*
X435951Y357335D01*
X435859Y357293D01*
X435769Y357248D01*
X435681Y357199D01*
X435595Y357147D01*
X435511Y357092D01*
X435429Y357033D01*
X435349Y356972D01*
X435272Y356907D01*
X435198Y356839D01*
X435126Y356769D01*
X435057Y356696D01*
X434990Y356620D01*
X434927Y356541D01*
X434867Y356461D01*
X434810Y356378D01*
X434756Y356292D01*
X434706Y356205D01*
X434659Y356116D01*
X434616Y356025D01*
X434576Y355933D01*
X434540Y355839D01*
X434507Y355744D01*
X434478Y355647D01*
X434453Y355550D01*
X434432Y355451D01*
X434414Y355352D01*
X434401Y355252D01*
X434391Y355152D01*
X434385Y355052D01*
X434383Y354951D01*
X434382Y354951D02*
X434382Y353653D01*
X439575Y353653D01*
X427456Y354302D02*
X424535Y354302D01*
X427456Y354302D02*
X427550Y354300D01*
X427644Y354294D01*
X427737Y354285D01*
X427830Y354271D01*
X427922Y354254D01*
X428014Y354232D01*
X428104Y354208D01*
X428194Y354179D01*
X428282Y354147D01*
X428369Y354111D01*
X428454Y354071D01*
X428537Y354028D01*
X428619Y353982D01*
X428699Y353932D01*
X428776Y353879D01*
X428851Y353823D01*
X428924Y353764D01*
X428995Y353702D01*
X429063Y353637D01*
X429128Y353569D01*
X429190Y353498D01*
X429249Y353425D01*
X429305Y353350D01*
X429358Y353273D01*
X429408Y353193D01*
X429454Y353111D01*
X429497Y353028D01*
X429537Y352943D01*
X429573Y352856D01*
X429605Y352768D01*
X429634Y352678D01*
X429658Y352588D01*
X429680Y352496D01*
X429697Y352404D01*
X429711Y352311D01*
X429720Y352218D01*
X429726Y352124D01*
X429728Y352030D01*
X429726Y351936D01*
X429720Y351842D01*
X429711Y351749D01*
X429697Y351656D01*
X429680Y351564D01*
X429658Y351472D01*
X429634Y351382D01*
X429605Y351292D01*
X429573Y351204D01*
X429537Y351117D01*
X429497Y351032D01*
X429454Y350949D01*
X429408Y350867D01*
X429358Y350787D01*
X429305Y350710D01*
X429249Y350635D01*
X429190Y350562D01*
X429128Y350491D01*
X429063Y350423D01*
X428995Y350358D01*
X428924Y350296D01*
X428851Y350237D01*
X428776Y350181D01*
X428699Y350128D01*
X428619Y350078D01*
X428537Y350032D01*
X428454Y349989D01*
X428369Y349949D01*
X428282Y349913D01*
X428194Y349881D01*
X428104Y349852D01*
X428014Y349828D01*
X427922Y349806D01*
X427830Y349789D01*
X427737Y349775D01*
X427644Y349766D01*
X427550Y349760D01*
X427456Y349758D01*
X424535Y349758D01*
X424535Y355600D01*
X424536Y355600D02*
X424538Y355687D01*
X424544Y355775D01*
X424554Y355861D01*
X424567Y355948D01*
X424585Y356033D01*
X424606Y356118D01*
X424631Y356202D01*
X424660Y356284D01*
X424693Y356365D01*
X424729Y356445D01*
X424768Y356523D01*
X424812Y356599D01*
X424858Y356673D01*
X424908Y356744D01*
X424961Y356814D01*
X425017Y356881D01*
X425076Y356946D01*
X425138Y357007D01*
X425202Y357066D01*
X425269Y357122D01*
X425339Y357175D01*
X425410Y357225D01*
X425484Y357271D01*
X425560Y357315D01*
X425638Y357354D01*
X425718Y357390D01*
X425799Y357423D01*
X425881Y357452D01*
X425965Y357477D01*
X426050Y357498D01*
X426135Y357516D01*
X426222Y357529D01*
X426309Y357539D01*
X426396Y357545D01*
X426483Y357547D01*
X429079Y357547D01*
X417494Y349758D02*
X414248Y349758D01*
X417494Y349758D02*
X417581Y349760D01*
X417669Y349766D01*
X417755Y349776D01*
X417842Y349789D01*
X417927Y349807D01*
X418012Y349828D01*
X418096Y349853D01*
X418178Y349882D01*
X418259Y349915D01*
X418339Y349951D01*
X418417Y349990D01*
X418493Y350034D01*
X418567Y350080D01*
X418638Y350130D01*
X418708Y350183D01*
X418775Y350239D01*
X418839Y350298D01*
X418901Y350360D01*
X418960Y350424D01*
X419016Y350491D01*
X419069Y350561D01*
X419119Y350632D01*
X419165Y350706D01*
X419209Y350782D01*
X419248Y350860D01*
X419284Y350940D01*
X419317Y351021D01*
X419346Y351103D01*
X419371Y351187D01*
X419392Y351272D01*
X419410Y351357D01*
X419423Y351444D01*
X419433Y351530D01*
X419439Y351618D01*
X419441Y351705D01*
X419441Y355600D01*
X419439Y355687D01*
X419433Y355775D01*
X419423Y355861D01*
X419410Y355948D01*
X419392Y356033D01*
X419371Y356118D01*
X419346Y356202D01*
X419317Y356284D01*
X419284Y356365D01*
X419248Y356445D01*
X419209Y356523D01*
X419165Y356599D01*
X419119Y356673D01*
X419069Y356744D01*
X419016Y356814D01*
X418960Y356881D01*
X418901Y356945D01*
X418839Y357007D01*
X418775Y357066D01*
X418708Y357122D01*
X418638Y357175D01*
X418567Y357225D01*
X418493Y357271D01*
X418417Y357315D01*
X418339Y357354D01*
X418259Y357390D01*
X418178Y357423D01*
X418096Y357452D01*
X418012Y357477D01*
X417927Y357498D01*
X417842Y357516D01*
X417755Y357529D01*
X417669Y357539D01*
X417581Y357545D01*
X417494Y357547D01*
X414248Y357547D01*
X414248Y347811D01*
X414249Y347811D02*
X414251Y347724D01*
X414257Y347636D01*
X414267Y347550D01*
X414280Y347463D01*
X414298Y347378D01*
X414319Y347293D01*
X414344Y347209D01*
X414373Y347127D01*
X414406Y347046D01*
X414442Y346966D01*
X414481Y346888D01*
X414525Y346812D01*
X414571Y346738D01*
X414621Y346667D01*
X414674Y346597D01*
X414730Y346530D01*
X414789Y346466D01*
X414851Y346404D01*
X414915Y346345D01*
X414982Y346289D01*
X415052Y346236D01*
X415123Y346186D01*
X415197Y346140D01*
X415273Y346096D01*
X415351Y346057D01*
X415431Y346021D01*
X415512Y345988D01*
X415594Y345959D01*
X415678Y345934D01*
X415763Y345913D01*
X415848Y345895D01*
X415935Y345882D01*
X416021Y345872D01*
X416109Y345866D01*
X416196Y345864D01*
X416196Y345863D02*
X418792Y345863D01*
X408946Y351705D02*
X408946Y361442D01*
X408946Y351705D02*
X408944Y351618D01*
X408938Y351530D01*
X408928Y351444D01*
X408915Y351357D01*
X408897Y351272D01*
X408876Y351187D01*
X408851Y351103D01*
X408822Y351021D01*
X408789Y350940D01*
X408753Y350860D01*
X408714Y350782D01*
X408670Y350706D01*
X408624Y350632D01*
X408574Y350561D01*
X408521Y350491D01*
X408465Y350424D01*
X408406Y350360D01*
X408344Y350298D01*
X408280Y350239D01*
X408213Y350183D01*
X408143Y350130D01*
X408072Y350080D01*
X407998Y350034D01*
X407922Y349990D01*
X407844Y349951D01*
X407764Y349915D01*
X407683Y349882D01*
X407601Y349853D01*
X407517Y349828D01*
X407432Y349807D01*
X407347Y349789D01*
X407260Y349776D01*
X407174Y349766D01*
X407086Y349760D01*
X406999Y349758D01*
X401052Y349758D02*
X397807Y349758D01*
X401052Y349758D02*
X401139Y349760D01*
X401227Y349766D01*
X401313Y349776D01*
X401400Y349789D01*
X401485Y349807D01*
X401570Y349828D01*
X401654Y349853D01*
X401736Y349882D01*
X401817Y349915D01*
X401897Y349951D01*
X401975Y349990D01*
X402051Y350034D01*
X402125Y350080D01*
X402196Y350130D01*
X402266Y350183D01*
X402333Y350239D01*
X402397Y350298D01*
X402459Y350360D01*
X402518Y350424D01*
X402574Y350491D01*
X402627Y350561D01*
X402677Y350632D01*
X402723Y350706D01*
X402767Y350782D01*
X402806Y350860D01*
X402842Y350940D01*
X402875Y351021D01*
X402904Y351103D01*
X402929Y351187D01*
X402950Y351272D01*
X402968Y351357D01*
X402981Y351444D01*
X402991Y351530D01*
X402997Y351618D01*
X402999Y351705D01*
X402999Y354951D01*
X402997Y355052D01*
X402991Y355152D01*
X402981Y355252D01*
X402968Y355352D01*
X402950Y355451D01*
X402929Y355550D01*
X402904Y355647D01*
X402875Y355744D01*
X402842Y355839D01*
X402806Y355933D01*
X402766Y356025D01*
X402723Y356116D01*
X402676Y356205D01*
X402626Y356292D01*
X402572Y356378D01*
X402515Y356461D01*
X402455Y356541D01*
X402392Y356620D01*
X402325Y356696D01*
X402256Y356769D01*
X402184Y356839D01*
X402110Y356907D01*
X402033Y356972D01*
X401953Y357033D01*
X401871Y357092D01*
X401787Y357147D01*
X401701Y357199D01*
X401613Y357248D01*
X401523Y357293D01*
X401431Y357335D01*
X401338Y357373D01*
X401243Y357407D01*
X401148Y357438D01*
X401051Y357465D01*
X400953Y357488D01*
X400854Y357508D01*
X400754Y357523D01*
X400654Y357535D01*
X400554Y357543D01*
X400453Y357547D01*
X400353Y357547D01*
X400252Y357543D01*
X400152Y357535D01*
X400052Y357523D01*
X399952Y357508D01*
X399853Y357488D01*
X399755Y357465D01*
X399658Y357438D01*
X399563Y357407D01*
X399468Y357373D01*
X399375Y357335D01*
X399283Y357293D01*
X399193Y357248D01*
X399105Y357199D01*
X399019Y357147D01*
X398935Y357092D01*
X398853Y357033D01*
X398773Y356972D01*
X398696Y356907D01*
X398622Y356839D01*
X398550Y356769D01*
X398481Y356696D01*
X398414Y356620D01*
X398351Y356541D01*
X398291Y356461D01*
X398234Y356378D01*
X398180Y356292D01*
X398130Y356205D01*
X398083Y356116D01*
X398040Y356025D01*
X398000Y355933D01*
X397964Y355839D01*
X397931Y355744D01*
X397902Y355647D01*
X397877Y355550D01*
X397856Y355451D01*
X397838Y355352D01*
X397825Y355252D01*
X397815Y355152D01*
X397809Y355052D01*
X397807Y354951D01*
X397807Y353653D01*
X402999Y353653D01*
D13*
X800100Y226060D02*
X825500Y226060D01*
X800100Y226060D02*
X800100Y307340D01*
X825500Y307340D01*
X825500Y226060D01*
D12*
X792452Y235458D02*
X792452Y243247D01*
X792452Y292608D02*
X792452Y300397D01*
X796346Y296503D02*
X788557Y296503D01*
D14*
X789234Y264555D02*
X789156Y264553D01*
X789079Y264547D01*
X789002Y264538D01*
X788926Y264525D01*
X788850Y264508D01*
X788775Y264487D01*
X788702Y264463D01*
X788629Y264435D01*
X788558Y264403D01*
X788489Y264368D01*
X788422Y264330D01*
X788356Y264289D01*
X788293Y264244D01*
X788232Y264196D01*
X788173Y264146D01*
X788117Y264092D01*
X788063Y264036D01*
X788013Y263977D01*
X787965Y263916D01*
X787920Y263853D01*
X787879Y263787D01*
X787841Y263720D01*
X787806Y263651D01*
X787774Y263580D01*
X787746Y263507D01*
X787722Y263434D01*
X787701Y263359D01*
X787684Y263283D01*
X787671Y263207D01*
X787662Y263130D01*
X787656Y263053D01*
X787654Y262975D01*
X787656Y262860D01*
X787662Y262746D01*
X787672Y262632D01*
X787685Y262518D01*
X787703Y262405D01*
X787725Y262292D01*
X787750Y262180D01*
X787779Y262070D01*
X787812Y261960D01*
X787849Y261851D01*
X787889Y261744D01*
X787933Y261638D01*
X787981Y261534D01*
X788032Y261431D01*
X788087Y261331D01*
X788145Y261232D01*
X788207Y261135D01*
X788271Y261041D01*
X788339Y260948D01*
X788411Y260858D01*
X788485Y260771D01*
X788562Y260686D01*
X788642Y260604D01*
X793186Y260802D02*
X793264Y260804D01*
X793341Y260810D01*
X793418Y260819D01*
X793494Y260832D01*
X793570Y260849D01*
X793645Y260870D01*
X793718Y260894D01*
X793791Y260922D01*
X793862Y260954D01*
X793931Y260989D01*
X793998Y261027D01*
X794064Y261068D01*
X794127Y261113D01*
X794188Y261161D01*
X794247Y261211D01*
X794303Y261265D01*
X794357Y261321D01*
X794407Y261380D01*
X794455Y261441D01*
X794500Y261504D01*
X794541Y261570D01*
X794579Y261637D01*
X794614Y261706D01*
X794646Y261777D01*
X794674Y261850D01*
X794698Y261923D01*
X794719Y261998D01*
X794736Y262074D01*
X794749Y262150D01*
X794758Y262227D01*
X794764Y262305D01*
X794766Y262382D01*
X794764Y262488D01*
X794758Y262594D01*
X794749Y262699D01*
X794736Y262804D01*
X794719Y262909D01*
X794698Y263013D01*
X794674Y263116D01*
X794646Y263218D01*
X794614Y263319D01*
X794579Y263419D01*
X794540Y263517D01*
X794497Y263615D01*
X794452Y263710D01*
X794403Y263804D01*
X794350Y263896D01*
X794294Y263986D01*
X794235Y264074D01*
X794173Y264160D01*
X791803Y261592D02*
X791845Y261525D01*
X791890Y261460D01*
X791939Y261397D01*
X791990Y261336D01*
X792045Y261279D01*
X792102Y261224D01*
X792162Y261171D01*
X792224Y261122D01*
X792289Y261076D01*
X792355Y261034D01*
X792424Y260994D01*
X792495Y260958D01*
X792568Y260926D01*
X792642Y260897D01*
X792717Y260872D01*
X792793Y260851D01*
X792871Y260833D01*
X792949Y260820D01*
X793028Y260810D01*
X793107Y260804D01*
X793186Y260802D01*
X790617Y263765D02*
X790575Y263832D01*
X790530Y263897D01*
X790481Y263960D01*
X790430Y264021D01*
X790375Y264078D01*
X790318Y264133D01*
X790258Y264186D01*
X790196Y264235D01*
X790131Y264281D01*
X790065Y264323D01*
X789996Y264363D01*
X789925Y264399D01*
X789852Y264431D01*
X789778Y264460D01*
X789703Y264485D01*
X789627Y264506D01*
X789549Y264524D01*
X789471Y264537D01*
X789392Y264547D01*
X789313Y264553D01*
X789234Y264555D01*
X790617Y263765D02*
X791803Y261592D01*
X794766Y267837D02*
X787654Y267837D01*
X787654Y267047D02*
X787654Y268628D01*
X794766Y268628D02*
X794766Y267047D01*
X791605Y274342D02*
X791605Y275528D01*
X787654Y275528D01*
X787654Y273157D01*
X787656Y273079D01*
X787662Y273002D01*
X787671Y272925D01*
X787684Y272849D01*
X787701Y272773D01*
X787722Y272698D01*
X787746Y272625D01*
X787774Y272552D01*
X787806Y272481D01*
X787841Y272412D01*
X787879Y272345D01*
X787920Y272279D01*
X787965Y272216D01*
X788013Y272155D01*
X788063Y272096D01*
X788117Y272040D01*
X788173Y271986D01*
X788232Y271936D01*
X788293Y271888D01*
X788356Y271843D01*
X788422Y271802D01*
X788489Y271764D01*
X788558Y271729D01*
X788629Y271697D01*
X788702Y271669D01*
X788775Y271645D01*
X788850Y271624D01*
X788926Y271607D01*
X789002Y271594D01*
X789079Y271585D01*
X789156Y271579D01*
X789234Y271577D01*
X793186Y271577D01*
X793264Y271579D01*
X793341Y271585D01*
X793418Y271594D01*
X793494Y271607D01*
X793570Y271624D01*
X793645Y271645D01*
X793718Y271669D01*
X793791Y271697D01*
X793862Y271729D01*
X793931Y271764D01*
X793998Y271802D01*
X794064Y271843D01*
X794127Y271888D01*
X794188Y271936D01*
X794247Y271986D01*
X794303Y272040D01*
X794357Y272096D01*
X794407Y272155D01*
X794455Y272216D01*
X794500Y272279D01*
X794541Y272345D01*
X794579Y272412D01*
X794614Y272481D01*
X794646Y272552D01*
X794674Y272625D01*
X794698Y272698D01*
X794719Y272773D01*
X794736Y272849D01*
X794749Y272925D01*
X794758Y273002D01*
X794764Y273079D01*
X794766Y273157D01*
X794766Y275528D01*
D12*
X836168Y233003D02*
X836170Y233102D01*
X836176Y233202D01*
X836185Y233301D01*
X836198Y233399D01*
X836215Y233497D01*
X836236Y233595D01*
X836261Y233691D01*
X836289Y233786D01*
X836321Y233880D01*
X836356Y233973D01*
X836395Y234065D01*
X836438Y234155D01*
X836483Y234243D01*
X836533Y234330D01*
X836585Y234414D01*
X836641Y234497D01*
X836699Y234577D01*
X836761Y234655D01*
X836826Y234730D01*
X836894Y234803D01*
X836964Y234873D01*
X837037Y234941D01*
X837112Y235006D01*
X837190Y235068D01*
X837270Y235126D01*
X837353Y235182D01*
X837437Y235234D01*
X837524Y235284D01*
X837612Y235329D01*
X837702Y235372D01*
X837794Y235411D01*
X837887Y235446D01*
X837981Y235478D01*
X838076Y235506D01*
X838172Y235531D01*
X838270Y235552D01*
X838368Y235569D01*
X838466Y235582D01*
X838565Y235591D01*
X838665Y235597D01*
X838764Y235599D01*
X836168Y233003D02*
X836170Y232859D01*
X836176Y232714D01*
X836185Y232570D01*
X836198Y232427D01*
X836215Y232283D01*
X836236Y232140D01*
X836261Y231998D01*
X836289Y231857D01*
X836321Y231716D01*
X836357Y231576D01*
X836396Y231437D01*
X836439Y231299D01*
X836486Y231163D01*
X836536Y231027D01*
X836590Y230893D01*
X836647Y230761D01*
X836708Y230630D01*
X836772Y230501D01*
X836840Y230373D01*
X836910Y230247D01*
X836985Y230123D01*
X837062Y230002D01*
X837143Y229882D01*
X837226Y229764D01*
X837313Y229649D01*
X837403Y229536D01*
X837496Y229425D01*
X837591Y229317D01*
X837690Y229211D01*
X837791Y229108D01*
X845256Y229433D02*
X845355Y229435D01*
X845455Y229441D01*
X845554Y229450D01*
X845652Y229463D01*
X845750Y229480D01*
X845848Y229501D01*
X845944Y229526D01*
X846039Y229554D01*
X846133Y229586D01*
X846226Y229621D01*
X846318Y229660D01*
X846408Y229703D01*
X846496Y229748D01*
X846583Y229798D01*
X846667Y229850D01*
X846750Y229906D01*
X846830Y229964D01*
X846908Y230026D01*
X846983Y230091D01*
X847056Y230159D01*
X847126Y230229D01*
X847194Y230302D01*
X847259Y230377D01*
X847321Y230455D01*
X847379Y230535D01*
X847435Y230618D01*
X847487Y230702D01*
X847537Y230789D01*
X847582Y230877D01*
X847625Y230967D01*
X847664Y231059D01*
X847699Y231152D01*
X847731Y231246D01*
X847759Y231341D01*
X847784Y231438D01*
X847805Y231535D01*
X847822Y231633D01*
X847835Y231731D01*
X847844Y231830D01*
X847850Y231930D01*
X847852Y232029D01*
X847850Y232165D01*
X847844Y232301D01*
X847835Y232437D01*
X847822Y232573D01*
X847804Y232708D01*
X847784Y232842D01*
X847759Y232976D01*
X847731Y233110D01*
X847698Y233242D01*
X847663Y233373D01*
X847623Y233504D01*
X847580Y233633D01*
X847534Y233761D01*
X847483Y233887D01*
X847430Y234013D01*
X847372Y234136D01*
X847312Y234258D01*
X847248Y234378D01*
X847180Y234497D01*
X847110Y234613D01*
X847036Y234727D01*
X846959Y234840D01*
X846878Y234950D01*
X842984Y230731D02*
X843037Y230645D01*
X843094Y230561D01*
X843153Y230479D01*
X843216Y230399D01*
X843282Y230322D01*
X843350Y230247D01*
X843422Y230175D01*
X843496Y230106D01*
X843573Y230040D01*
X843652Y229977D01*
X843734Y229917D01*
X843818Y229860D01*
X843904Y229806D01*
X843992Y229756D01*
X844082Y229709D01*
X844173Y229665D01*
X844267Y229626D01*
X844361Y229589D01*
X844457Y229557D01*
X844555Y229528D01*
X844653Y229503D01*
X844752Y229482D01*
X844852Y229464D01*
X844952Y229451D01*
X845053Y229441D01*
X845155Y229435D01*
X845256Y229433D01*
X841036Y234301D02*
X840983Y234387D01*
X840926Y234471D01*
X840867Y234553D01*
X840804Y234633D01*
X840738Y234710D01*
X840670Y234785D01*
X840598Y234857D01*
X840524Y234926D01*
X840447Y234992D01*
X840368Y235055D01*
X840286Y235115D01*
X840202Y235172D01*
X840116Y235226D01*
X840028Y235276D01*
X839938Y235323D01*
X839847Y235367D01*
X839753Y235406D01*
X839659Y235443D01*
X839563Y235475D01*
X839465Y235504D01*
X839367Y235529D01*
X839268Y235550D01*
X839168Y235568D01*
X839068Y235581D01*
X838967Y235591D01*
X838865Y235597D01*
X838764Y235599D01*
X841036Y234301D02*
X842984Y230731D01*
X836168Y240561D02*
X836168Y245753D01*
X836168Y240561D02*
X847852Y240561D01*
X847852Y245753D01*
X842659Y244455D02*
X842659Y240561D01*
X847852Y250518D02*
X836168Y250518D01*
X847852Y250518D02*
X847852Y253763D01*
X847850Y253876D01*
X847844Y253989D01*
X847834Y254102D01*
X847820Y254215D01*
X847803Y254327D01*
X847781Y254438D01*
X847756Y254548D01*
X847726Y254658D01*
X847693Y254766D01*
X847656Y254873D01*
X847616Y254979D01*
X847571Y255083D01*
X847523Y255186D01*
X847472Y255287D01*
X847417Y255386D01*
X847359Y255483D01*
X847297Y255578D01*
X847232Y255671D01*
X847164Y255761D01*
X847093Y255849D01*
X847018Y255935D01*
X846941Y256018D01*
X846861Y256098D01*
X846778Y256175D01*
X846692Y256250D01*
X846604Y256321D01*
X846514Y256389D01*
X846421Y256454D01*
X846326Y256516D01*
X846229Y256574D01*
X846130Y256629D01*
X846029Y256680D01*
X845926Y256728D01*
X845822Y256773D01*
X845716Y256813D01*
X845609Y256850D01*
X845501Y256883D01*
X845391Y256913D01*
X845281Y256938D01*
X845170Y256960D01*
X845058Y256977D01*
X844945Y256991D01*
X844832Y257001D01*
X844719Y257007D01*
X844606Y257009D01*
X844493Y257007D01*
X844380Y257001D01*
X844267Y256991D01*
X844154Y256977D01*
X844042Y256960D01*
X843931Y256938D01*
X843821Y256913D01*
X843711Y256883D01*
X843603Y256850D01*
X843496Y256813D01*
X843390Y256773D01*
X843286Y256728D01*
X843183Y256680D01*
X843082Y256629D01*
X842983Y256574D01*
X842886Y256516D01*
X842791Y256454D01*
X842698Y256389D01*
X842608Y256321D01*
X842520Y256250D01*
X842434Y256175D01*
X842351Y256098D01*
X842271Y256018D01*
X842194Y255935D01*
X842119Y255849D01*
X842048Y255761D01*
X841980Y255671D01*
X841915Y255578D01*
X841853Y255483D01*
X841795Y255386D01*
X841740Y255287D01*
X841689Y255186D01*
X841641Y255083D01*
X841596Y254979D01*
X841556Y254873D01*
X841519Y254766D01*
X841486Y254658D01*
X841456Y254548D01*
X841431Y254438D01*
X841409Y254327D01*
X841392Y254215D01*
X841378Y254102D01*
X841368Y253989D01*
X841362Y253876D01*
X841360Y253763D01*
X841361Y253763D02*
X841361Y250518D01*
X841361Y254412D02*
X836168Y257009D01*
X836168Y265120D02*
X847852Y261225D01*
X847852Y269014D02*
X836168Y265120D01*
X839414Y273304D02*
X844606Y273304D01*
X844606Y273303D02*
X844719Y273305D01*
X844832Y273311D01*
X844945Y273321D01*
X845058Y273335D01*
X845170Y273352D01*
X845281Y273374D01*
X845391Y273399D01*
X845501Y273429D01*
X845609Y273462D01*
X845716Y273499D01*
X845822Y273539D01*
X845926Y273584D01*
X846029Y273632D01*
X846130Y273683D01*
X846229Y273738D01*
X846326Y273796D01*
X846421Y273858D01*
X846514Y273923D01*
X846604Y273991D01*
X846692Y274062D01*
X846778Y274137D01*
X846861Y274214D01*
X846941Y274294D01*
X847018Y274377D01*
X847093Y274463D01*
X847164Y274551D01*
X847232Y274641D01*
X847297Y274734D01*
X847359Y274829D01*
X847417Y274926D01*
X847472Y275025D01*
X847523Y275126D01*
X847571Y275229D01*
X847616Y275333D01*
X847656Y275439D01*
X847693Y275546D01*
X847726Y275654D01*
X847756Y275764D01*
X847781Y275874D01*
X847803Y275985D01*
X847820Y276097D01*
X847834Y276210D01*
X847844Y276323D01*
X847850Y276436D01*
X847852Y276549D01*
X847850Y276662D01*
X847844Y276775D01*
X847834Y276888D01*
X847820Y277001D01*
X847803Y277113D01*
X847781Y277224D01*
X847756Y277334D01*
X847726Y277444D01*
X847693Y277552D01*
X847656Y277659D01*
X847616Y277765D01*
X847571Y277869D01*
X847523Y277972D01*
X847472Y278073D01*
X847417Y278172D01*
X847359Y278269D01*
X847297Y278364D01*
X847232Y278457D01*
X847164Y278547D01*
X847093Y278635D01*
X847018Y278721D01*
X846941Y278804D01*
X846861Y278884D01*
X846778Y278961D01*
X846692Y279036D01*
X846604Y279107D01*
X846514Y279175D01*
X846421Y279240D01*
X846326Y279302D01*
X846229Y279360D01*
X846130Y279415D01*
X846029Y279466D01*
X845926Y279514D01*
X845822Y279559D01*
X845716Y279599D01*
X845609Y279636D01*
X845501Y279669D01*
X845391Y279699D01*
X845281Y279724D01*
X845170Y279746D01*
X845058Y279763D01*
X844945Y279777D01*
X844832Y279787D01*
X844719Y279793D01*
X844606Y279795D01*
X839414Y279795D01*
X839301Y279793D01*
X839188Y279787D01*
X839075Y279777D01*
X838962Y279763D01*
X838850Y279746D01*
X838739Y279724D01*
X838629Y279699D01*
X838519Y279669D01*
X838411Y279636D01*
X838304Y279599D01*
X838198Y279559D01*
X838094Y279514D01*
X837991Y279466D01*
X837890Y279415D01*
X837791Y279360D01*
X837694Y279302D01*
X837599Y279240D01*
X837506Y279175D01*
X837416Y279107D01*
X837328Y279036D01*
X837242Y278961D01*
X837159Y278884D01*
X837079Y278804D01*
X837002Y278721D01*
X836927Y278635D01*
X836856Y278547D01*
X836788Y278457D01*
X836723Y278364D01*
X836661Y278269D01*
X836603Y278172D01*
X836548Y278073D01*
X836497Y277972D01*
X836449Y277869D01*
X836404Y277765D01*
X836364Y277659D01*
X836327Y277552D01*
X836294Y277444D01*
X836264Y277334D01*
X836239Y277224D01*
X836217Y277113D01*
X836200Y277001D01*
X836186Y276888D01*
X836176Y276775D01*
X836170Y276662D01*
X836168Y276549D01*
X836170Y276436D01*
X836176Y276323D01*
X836186Y276210D01*
X836200Y276097D01*
X836217Y275985D01*
X836239Y275874D01*
X836264Y275764D01*
X836294Y275654D01*
X836327Y275546D01*
X836364Y275439D01*
X836404Y275333D01*
X836449Y275229D01*
X836497Y275126D01*
X836548Y275025D01*
X836603Y274926D01*
X836661Y274829D01*
X836723Y274734D01*
X836788Y274641D01*
X836856Y274551D01*
X836927Y274463D01*
X837002Y274377D01*
X837079Y274294D01*
X837159Y274214D01*
X837242Y274137D01*
X837328Y274062D01*
X837416Y273991D01*
X837506Y273923D01*
X837599Y273858D01*
X837694Y273796D01*
X837791Y273738D01*
X837890Y273683D01*
X837991Y273632D01*
X838094Y273584D01*
X838198Y273539D01*
X838304Y273499D01*
X838411Y273462D01*
X838519Y273429D01*
X838629Y273399D01*
X838739Y273374D01*
X838850Y273352D01*
X838962Y273335D01*
X839075Y273321D01*
X839188Y273311D01*
X839301Y273305D01*
X839414Y273303D01*
X834870Y284240D02*
X834870Y289433D01*
X836168Y294428D02*
X847852Y294428D01*
X847852Y297674D01*
X847850Y297787D01*
X847844Y297900D01*
X847834Y298013D01*
X847820Y298126D01*
X847803Y298238D01*
X847781Y298349D01*
X847756Y298459D01*
X847726Y298569D01*
X847693Y298677D01*
X847656Y298784D01*
X847616Y298890D01*
X847571Y298994D01*
X847523Y299097D01*
X847472Y299198D01*
X847417Y299297D01*
X847359Y299394D01*
X847297Y299489D01*
X847232Y299582D01*
X847164Y299672D01*
X847093Y299760D01*
X847018Y299846D01*
X846941Y299929D01*
X846861Y300009D01*
X846778Y300086D01*
X846692Y300161D01*
X846604Y300232D01*
X846514Y300300D01*
X846421Y300365D01*
X846326Y300427D01*
X846229Y300485D01*
X846130Y300540D01*
X846029Y300591D01*
X845926Y300639D01*
X845822Y300684D01*
X845716Y300724D01*
X845609Y300761D01*
X845501Y300794D01*
X845391Y300824D01*
X845281Y300849D01*
X845170Y300871D01*
X845058Y300888D01*
X844945Y300902D01*
X844832Y300912D01*
X844719Y300918D01*
X844606Y300920D01*
X844493Y300918D01*
X844380Y300912D01*
X844267Y300902D01*
X844154Y300888D01*
X844042Y300871D01*
X843931Y300849D01*
X843821Y300824D01*
X843711Y300794D01*
X843603Y300761D01*
X843496Y300724D01*
X843390Y300684D01*
X843286Y300639D01*
X843183Y300591D01*
X843082Y300540D01*
X842983Y300485D01*
X842886Y300427D01*
X842791Y300365D01*
X842698Y300300D01*
X842608Y300232D01*
X842520Y300161D01*
X842434Y300086D01*
X842351Y300009D01*
X842271Y299929D01*
X842194Y299846D01*
X842119Y299760D01*
X842048Y299672D01*
X841980Y299582D01*
X841915Y299489D01*
X841853Y299394D01*
X841795Y299297D01*
X841740Y299198D01*
X841689Y299097D01*
X841641Y298994D01*
X841596Y298890D01*
X841556Y298784D01*
X841519Y298677D01*
X841486Y298569D01*
X841456Y298459D01*
X841431Y298349D01*
X841409Y298238D01*
X841392Y298126D01*
X841378Y298013D01*
X841368Y297900D01*
X841362Y297787D01*
X841360Y297674D01*
X841361Y297674D02*
X841361Y294428D01*
X836168Y306267D02*
X847852Y306267D01*
X836168Y304969D02*
X836168Y307566D01*
X847852Y307566D02*
X847852Y304969D01*
X847852Y312547D02*
X836168Y312547D01*
X836168Y319038D02*
X847852Y312547D01*
X847852Y319038D02*
X836168Y319038D01*
X836168Y327872D02*
X836170Y327971D01*
X836176Y328071D01*
X836185Y328170D01*
X836198Y328268D01*
X836215Y328366D01*
X836236Y328464D01*
X836261Y328560D01*
X836289Y328655D01*
X836321Y328749D01*
X836356Y328842D01*
X836395Y328934D01*
X836438Y329024D01*
X836483Y329112D01*
X836533Y329199D01*
X836585Y329283D01*
X836641Y329366D01*
X836699Y329446D01*
X836761Y329524D01*
X836826Y329599D01*
X836894Y329672D01*
X836964Y329742D01*
X837037Y329810D01*
X837112Y329875D01*
X837190Y329937D01*
X837270Y329995D01*
X837353Y330051D01*
X837437Y330103D01*
X837524Y330153D01*
X837612Y330198D01*
X837702Y330241D01*
X837794Y330280D01*
X837887Y330315D01*
X837981Y330347D01*
X838076Y330375D01*
X838172Y330400D01*
X838270Y330421D01*
X838368Y330438D01*
X838466Y330451D01*
X838565Y330460D01*
X838665Y330466D01*
X838764Y330468D01*
X836168Y327872D02*
X836170Y327728D01*
X836176Y327583D01*
X836185Y327439D01*
X836198Y327296D01*
X836215Y327152D01*
X836236Y327009D01*
X836261Y326867D01*
X836289Y326726D01*
X836321Y326585D01*
X836357Y326445D01*
X836396Y326306D01*
X836439Y326168D01*
X836486Y326032D01*
X836536Y325896D01*
X836590Y325762D01*
X836647Y325630D01*
X836708Y325499D01*
X836772Y325370D01*
X836840Y325242D01*
X836910Y325116D01*
X836985Y324992D01*
X837062Y324871D01*
X837143Y324751D01*
X837226Y324633D01*
X837313Y324518D01*
X837403Y324405D01*
X837496Y324294D01*
X837591Y324186D01*
X837690Y324080D01*
X837791Y323977D01*
X845256Y324302D02*
X845355Y324304D01*
X845455Y324310D01*
X845554Y324319D01*
X845652Y324332D01*
X845750Y324349D01*
X845848Y324370D01*
X845944Y324395D01*
X846039Y324423D01*
X846133Y324455D01*
X846226Y324490D01*
X846318Y324529D01*
X846408Y324572D01*
X846496Y324617D01*
X846583Y324667D01*
X846667Y324719D01*
X846750Y324775D01*
X846830Y324833D01*
X846908Y324895D01*
X846983Y324960D01*
X847056Y325028D01*
X847126Y325098D01*
X847194Y325171D01*
X847259Y325246D01*
X847321Y325324D01*
X847379Y325404D01*
X847435Y325487D01*
X847487Y325571D01*
X847537Y325658D01*
X847582Y325746D01*
X847625Y325836D01*
X847664Y325928D01*
X847699Y326021D01*
X847731Y326115D01*
X847759Y326210D01*
X847784Y326307D01*
X847805Y326404D01*
X847822Y326502D01*
X847835Y326600D01*
X847844Y326699D01*
X847850Y326799D01*
X847852Y326898D01*
X847850Y327034D01*
X847844Y327170D01*
X847835Y327306D01*
X847822Y327442D01*
X847804Y327577D01*
X847784Y327711D01*
X847759Y327845D01*
X847731Y327979D01*
X847698Y328111D01*
X847663Y328242D01*
X847623Y328373D01*
X847580Y328502D01*
X847534Y328630D01*
X847483Y328756D01*
X847430Y328882D01*
X847372Y329005D01*
X847312Y329127D01*
X847248Y329247D01*
X847180Y329366D01*
X847110Y329482D01*
X847036Y329596D01*
X846959Y329709D01*
X846878Y329819D01*
X842984Y325599D02*
X843037Y325513D01*
X843094Y325429D01*
X843153Y325347D01*
X843216Y325267D01*
X843282Y325190D01*
X843350Y325115D01*
X843422Y325043D01*
X843496Y324974D01*
X843573Y324908D01*
X843652Y324845D01*
X843734Y324785D01*
X843818Y324728D01*
X843904Y324674D01*
X843992Y324624D01*
X844082Y324577D01*
X844173Y324533D01*
X844267Y324494D01*
X844361Y324457D01*
X844457Y324425D01*
X844555Y324396D01*
X844653Y324371D01*
X844752Y324350D01*
X844852Y324332D01*
X844952Y324319D01*
X845053Y324309D01*
X845155Y324303D01*
X845256Y324301D01*
X841036Y329170D02*
X840983Y329256D01*
X840926Y329340D01*
X840867Y329422D01*
X840804Y329502D01*
X840738Y329579D01*
X840670Y329654D01*
X840598Y329726D01*
X840524Y329795D01*
X840447Y329861D01*
X840368Y329924D01*
X840286Y329984D01*
X840202Y330041D01*
X840116Y330095D01*
X840028Y330145D01*
X839938Y330192D01*
X839847Y330236D01*
X839753Y330275D01*
X839659Y330312D01*
X839563Y330344D01*
X839465Y330373D01*
X839367Y330398D01*
X839268Y330419D01*
X839168Y330437D01*
X839068Y330450D01*
X838967Y330460D01*
X838865Y330466D01*
X838764Y330468D01*
X841036Y329170D02*
X842984Y325600D01*
D13*
X825500Y90170D02*
X800100Y90170D01*
X800100Y171450D01*
X825500Y171450D01*
X825500Y90170D01*
D12*
X792452Y99568D02*
X792452Y107357D01*
X792452Y156718D02*
X792452Y164507D01*
X796346Y160613D02*
X788557Y160613D01*
D14*
X789234Y128665D02*
X789156Y128663D01*
X789079Y128657D01*
X789002Y128648D01*
X788926Y128635D01*
X788850Y128618D01*
X788775Y128597D01*
X788702Y128573D01*
X788629Y128545D01*
X788558Y128513D01*
X788489Y128478D01*
X788422Y128440D01*
X788356Y128399D01*
X788293Y128354D01*
X788232Y128306D01*
X788173Y128256D01*
X788117Y128202D01*
X788063Y128146D01*
X788013Y128087D01*
X787965Y128026D01*
X787920Y127963D01*
X787879Y127897D01*
X787841Y127830D01*
X787806Y127761D01*
X787774Y127690D01*
X787746Y127617D01*
X787722Y127544D01*
X787701Y127469D01*
X787684Y127393D01*
X787671Y127317D01*
X787662Y127240D01*
X787656Y127163D01*
X787654Y127085D01*
X787656Y126970D01*
X787662Y126856D01*
X787672Y126742D01*
X787685Y126628D01*
X787703Y126515D01*
X787725Y126402D01*
X787750Y126290D01*
X787779Y126180D01*
X787812Y126070D01*
X787849Y125961D01*
X787889Y125854D01*
X787933Y125748D01*
X787981Y125644D01*
X788032Y125541D01*
X788087Y125441D01*
X788145Y125342D01*
X788207Y125245D01*
X788271Y125151D01*
X788339Y125058D01*
X788411Y124968D01*
X788485Y124881D01*
X788562Y124796D01*
X788642Y124714D01*
X793186Y124912D02*
X793264Y124914D01*
X793341Y124920D01*
X793418Y124929D01*
X793494Y124942D01*
X793570Y124959D01*
X793645Y124980D01*
X793718Y125004D01*
X793791Y125032D01*
X793862Y125064D01*
X793931Y125099D01*
X793998Y125137D01*
X794064Y125178D01*
X794127Y125223D01*
X794188Y125271D01*
X794247Y125321D01*
X794303Y125375D01*
X794357Y125431D01*
X794407Y125490D01*
X794455Y125551D01*
X794500Y125614D01*
X794541Y125680D01*
X794579Y125747D01*
X794614Y125816D01*
X794646Y125887D01*
X794674Y125960D01*
X794698Y126033D01*
X794719Y126108D01*
X794736Y126184D01*
X794749Y126260D01*
X794758Y126337D01*
X794764Y126415D01*
X794766Y126492D01*
X794764Y126598D01*
X794758Y126704D01*
X794749Y126809D01*
X794736Y126914D01*
X794719Y127019D01*
X794698Y127123D01*
X794674Y127226D01*
X794646Y127328D01*
X794614Y127429D01*
X794579Y127529D01*
X794540Y127627D01*
X794497Y127725D01*
X794452Y127820D01*
X794403Y127914D01*
X794350Y128006D01*
X794294Y128096D01*
X794235Y128184D01*
X794173Y128270D01*
X791803Y125702D02*
X791845Y125635D01*
X791890Y125570D01*
X791939Y125507D01*
X791990Y125446D01*
X792045Y125389D01*
X792102Y125334D01*
X792162Y125281D01*
X792224Y125232D01*
X792289Y125186D01*
X792355Y125144D01*
X792424Y125104D01*
X792495Y125068D01*
X792568Y125036D01*
X792642Y125007D01*
X792717Y124982D01*
X792793Y124961D01*
X792871Y124943D01*
X792949Y124930D01*
X793028Y124920D01*
X793107Y124914D01*
X793186Y124912D01*
X790617Y127875D02*
X790575Y127942D01*
X790530Y128007D01*
X790481Y128070D01*
X790430Y128131D01*
X790375Y128188D01*
X790318Y128243D01*
X790258Y128296D01*
X790196Y128345D01*
X790131Y128391D01*
X790065Y128433D01*
X789996Y128473D01*
X789925Y128509D01*
X789852Y128541D01*
X789778Y128570D01*
X789703Y128595D01*
X789627Y128616D01*
X789549Y128634D01*
X789471Y128647D01*
X789392Y128657D01*
X789313Y128663D01*
X789234Y128665D01*
X790617Y127875D02*
X791803Y125702D01*
X794766Y131947D02*
X787654Y131947D01*
X787654Y131157D02*
X787654Y132738D01*
X794766Y132738D02*
X794766Y131157D01*
X791605Y138452D02*
X791605Y139638D01*
X787654Y139638D01*
X787654Y137267D01*
X787656Y137189D01*
X787662Y137112D01*
X787671Y137035D01*
X787684Y136959D01*
X787701Y136883D01*
X787722Y136808D01*
X787746Y136735D01*
X787774Y136662D01*
X787806Y136591D01*
X787841Y136522D01*
X787879Y136455D01*
X787920Y136389D01*
X787965Y136326D01*
X788013Y136265D01*
X788063Y136206D01*
X788117Y136150D01*
X788173Y136096D01*
X788232Y136046D01*
X788293Y135998D01*
X788356Y135953D01*
X788422Y135912D01*
X788489Y135874D01*
X788558Y135839D01*
X788629Y135807D01*
X788702Y135779D01*
X788775Y135755D01*
X788850Y135734D01*
X788926Y135717D01*
X789002Y135704D01*
X789079Y135695D01*
X789156Y135689D01*
X789234Y135687D01*
X793186Y135687D01*
X793264Y135689D01*
X793341Y135695D01*
X793418Y135704D01*
X793494Y135717D01*
X793570Y135734D01*
X793645Y135755D01*
X793718Y135779D01*
X793791Y135807D01*
X793862Y135839D01*
X793931Y135874D01*
X793998Y135912D01*
X794064Y135953D01*
X794127Y135998D01*
X794188Y136046D01*
X794247Y136096D01*
X794303Y136150D01*
X794357Y136206D01*
X794407Y136265D01*
X794455Y136326D01*
X794500Y136389D01*
X794541Y136455D01*
X794579Y136522D01*
X794614Y136591D01*
X794646Y136662D01*
X794674Y136735D01*
X794698Y136808D01*
X794719Y136883D01*
X794736Y136959D01*
X794749Y137035D01*
X794758Y137112D01*
X794764Y137189D01*
X794766Y137267D01*
X794766Y139638D01*
X835914Y93754D02*
X843026Y93754D01*
X835914Y92964D02*
X835914Y94544D01*
X843026Y94544D02*
X843026Y92964D01*
X843026Y97534D02*
X835914Y97534D01*
X843026Y97534D02*
X843026Y99510D01*
X843024Y99597D01*
X843018Y99685D01*
X843009Y99772D01*
X842995Y99858D01*
X842978Y99944D01*
X842957Y100028D01*
X842932Y100112D01*
X842903Y100195D01*
X842871Y100276D01*
X842836Y100356D01*
X842797Y100434D01*
X842754Y100511D01*
X842708Y100585D01*
X842659Y100657D01*
X842607Y100727D01*
X842551Y100795D01*
X842493Y100860D01*
X842432Y100923D01*
X842368Y100982D01*
X842301Y101039D01*
X842233Y101093D01*
X842161Y101144D01*
X842088Y101191D01*
X842013Y101236D01*
X841935Y101277D01*
X841856Y101314D01*
X841776Y101348D01*
X841694Y101378D01*
X841611Y101405D01*
X841526Y101428D01*
X841441Y101447D01*
X841355Y101462D01*
X841268Y101474D01*
X841181Y101482D01*
X841094Y101486D01*
X841006Y101486D01*
X840919Y101482D01*
X840832Y101474D01*
X840745Y101462D01*
X840659Y101447D01*
X840574Y101428D01*
X840489Y101405D01*
X840406Y101378D01*
X840324Y101348D01*
X840244Y101314D01*
X840165Y101277D01*
X840087Y101236D01*
X840012Y101191D01*
X839939Y101144D01*
X839867Y101093D01*
X839799Y101039D01*
X839732Y100982D01*
X839668Y100923D01*
X839607Y100860D01*
X839549Y100795D01*
X839493Y100727D01*
X839441Y100657D01*
X839392Y100585D01*
X839346Y100511D01*
X839303Y100434D01*
X839264Y100356D01*
X839229Y100276D01*
X839197Y100195D01*
X839168Y100112D01*
X839143Y100028D01*
X839122Y99944D01*
X839105Y99858D01*
X839091Y99772D01*
X839082Y99685D01*
X839076Y99597D01*
X839074Y99510D01*
X839075Y99510D02*
X839075Y97534D01*
X839075Y99905D02*
X835914Y101485D01*
X835124Y104061D02*
X835124Y107222D01*
X835914Y110107D02*
X843026Y110107D01*
X843026Y112083D01*
X843024Y112170D01*
X843018Y112258D01*
X843009Y112345D01*
X842995Y112431D01*
X842978Y112517D01*
X842957Y112601D01*
X842932Y112685D01*
X842903Y112768D01*
X842871Y112849D01*
X842836Y112929D01*
X842797Y113007D01*
X842754Y113084D01*
X842708Y113158D01*
X842659Y113230D01*
X842607Y113300D01*
X842551Y113368D01*
X842493Y113433D01*
X842432Y113496D01*
X842368Y113555D01*
X842301Y113612D01*
X842233Y113666D01*
X842161Y113717D01*
X842088Y113764D01*
X842013Y113809D01*
X841935Y113850D01*
X841856Y113887D01*
X841776Y113921D01*
X841694Y113951D01*
X841611Y113978D01*
X841526Y114001D01*
X841441Y114020D01*
X841355Y114035D01*
X841268Y114047D01*
X841181Y114055D01*
X841094Y114059D01*
X841006Y114059D01*
X840919Y114055D01*
X840832Y114047D01*
X840745Y114035D01*
X840659Y114020D01*
X840574Y114001D01*
X840489Y113978D01*
X840406Y113951D01*
X840324Y113921D01*
X840244Y113887D01*
X840165Y113850D01*
X840087Y113809D01*
X840012Y113764D01*
X839939Y113717D01*
X839867Y113666D01*
X839799Y113612D01*
X839732Y113555D01*
X839668Y113496D01*
X839607Y113433D01*
X839549Y113368D01*
X839493Y113300D01*
X839441Y113230D01*
X839392Y113158D01*
X839346Y113084D01*
X839303Y113007D01*
X839264Y112929D01*
X839229Y112849D01*
X839197Y112768D01*
X839168Y112685D01*
X839143Y112601D01*
X839122Y112517D01*
X839105Y112431D01*
X839091Y112345D01*
X839082Y112258D01*
X839076Y112170D01*
X839074Y112083D01*
X839075Y112083D02*
X839075Y110107D01*
X839075Y112478D02*
X835914Y114058D01*
X835914Y117166D02*
X835914Y120326D01*
X835914Y117166D02*
X843026Y117166D01*
X843026Y120326D01*
X839865Y119536D02*
X839865Y117166D01*
X835914Y124430D02*
X835914Y126011D01*
X835914Y124430D02*
X835916Y124352D01*
X835922Y124275D01*
X835931Y124198D01*
X835944Y124122D01*
X835961Y124046D01*
X835982Y123971D01*
X836006Y123898D01*
X836034Y123825D01*
X836066Y123754D01*
X836101Y123685D01*
X836139Y123618D01*
X836180Y123552D01*
X836225Y123489D01*
X836273Y123428D01*
X836323Y123369D01*
X836377Y123313D01*
X836433Y123259D01*
X836492Y123209D01*
X836553Y123161D01*
X836616Y123116D01*
X836682Y123075D01*
X836749Y123037D01*
X836818Y123002D01*
X836889Y122970D01*
X836962Y122942D01*
X837035Y122918D01*
X837110Y122897D01*
X837186Y122880D01*
X837262Y122867D01*
X837339Y122858D01*
X837416Y122852D01*
X837494Y122850D01*
X841446Y122850D01*
X841524Y122852D01*
X841601Y122858D01*
X841678Y122867D01*
X841754Y122880D01*
X841830Y122897D01*
X841905Y122918D01*
X841978Y122942D01*
X842051Y122970D01*
X842122Y123002D01*
X842191Y123037D01*
X842258Y123075D01*
X842324Y123116D01*
X842387Y123161D01*
X842448Y123209D01*
X842507Y123259D01*
X842563Y123313D01*
X842617Y123369D01*
X842667Y123428D01*
X842715Y123489D01*
X842760Y123552D01*
X842801Y123618D01*
X842839Y123685D01*
X842874Y123754D01*
X842906Y123825D01*
X842934Y123898D01*
X842958Y123971D01*
X842979Y124046D01*
X842996Y124122D01*
X843009Y124198D01*
X843018Y124275D01*
X843024Y124352D01*
X843026Y124430D01*
X843026Y126011D01*
X835914Y128824D02*
X835914Y131985D01*
X835914Y128824D02*
X843026Y128824D01*
X843026Y131985D01*
X839865Y131195D02*
X839865Y128824D01*
X843026Y135131D02*
X835914Y135131D01*
X835914Y135921D02*
X835914Y134340D01*
X843026Y134340D02*
X843026Y135921D01*
X843026Y138246D02*
X835914Y140617D01*
X843026Y142988D01*
X835914Y145740D02*
X835914Y148901D01*
X835914Y145740D02*
X843026Y145740D01*
X843026Y148901D01*
X839865Y148111D02*
X839865Y145740D01*
X843026Y151712D02*
X835914Y151712D01*
X843026Y151712D02*
X843026Y153688D01*
X843024Y153775D01*
X843018Y153863D01*
X843009Y153950D01*
X842995Y154036D01*
X842978Y154122D01*
X842957Y154206D01*
X842932Y154290D01*
X842903Y154373D01*
X842871Y154454D01*
X842836Y154534D01*
X842797Y154612D01*
X842754Y154689D01*
X842708Y154763D01*
X842659Y154835D01*
X842607Y154905D01*
X842551Y154973D01*
X842493Y155038D01*
X842432Y155101D01*
X842368Y155160D01*
X842301Y155217D01*
X842233Y155271D01*
X842161Y155322D01*
X842088Y155369D01*
X842013Y155414D01*
X841935Y155455D01*
X841856Y155492D01*
X841776Y155526D01*
X841694Y155556D01*
X841611Y155583D01*
X841526Y155606D01*
X841441Y155625D01*
X841355Y155640D01*
X841268Y155652D01*
X841181Y155660D01*
X841094Y155664D01*
X841006Y155664D01*
X840919Y155660D01*
X840832Y155652D01*
X840745Y155640D01*
X840659Y155625D01*
X840574Y155606D01*
X840489Y155583D01*
X840406Y155556D01*
X840324Y155526D01*
X840244Y155492D01*
X840165Y155455D01*
X840087Y155414D01*
X840012Y155369D01*
X839939Y155322D01*
X839867Y155271D01*
X839799Y155217D01*
X839732Y155160D01*
X839668Y155101D01*
X839607Y155038D01*
X839549Y154973D01*
X839493Y154905D01*
X839441Y154835D01*
X839392Y154763D01*
X839346Y154689D01*
X839303Y154612D01*
X839264Y154534D01*
X839229Y154454D01*
X839197Y154373D01*
X839168Y154290D01*
X839143Y154206D01*
X839122Y154122D01*
X839105Y154036D01*
X839091Y153950D01*
X839082Y153863D01*
X839076Y153775D01*
X839074Y153688D01*
X839075Y153688D02*
X839075Y151712D01*
X839075Y154083D02*
X835914Y155663D01*
X835124Y158239D02*
X835124Y161400D01*
X835914Y164338D02*
X843026Y164338D01*
X843026Y166313D01*
X843024Y166400D01*
X843018Y166488D01*
X843009Y166575D01*
X842995Y166661D01*
X842978Y166747D01*
X842957Y166831D01*
X842932Y166915D01*
X842903Y166998D01*
X842871Y167079D01*
X842836Y167159D01*
X842797Y167237D01*
X842754Y167314D01*
X842708Y167388D01*
X842659Y167460D01*
X842607Y167530D01*
X842551Y167598D01*
X842493Y167663D01*
X842432Y167726D01*
X842368Y167785D01*
X842301Y167842D01*
X842233Y167896D01*
X842161Y167947D01*
X842088Y167994D01*
X842013Y168039D01*
X841935Y168080D01*
X841856Y168117D01*
X841776Y168151D01*
X841694Y168181D01*
X841611Y168208D01*
X841526Y168231D01*
X841441Y168250D01*
X841355Y168265D01*
X841268Y168277D01*
X841181Y168285D01*
X841094Y168289D01*
X841006Y168289D01*
X840919Y168285D01*
X840832Y168277D01*
X840745Y168265D01*
X840659Y168250D01*
X840574Y168231D01*
X840489Y168208D01*
X840406Y168181D01*
X840324Y168151D01*
X840244Y168117D01*
X840165Y168080D01*
X840087Y168039D01*
X840012Y167994D01*
X839939Y167947D01*
X839867Y167896D01*
X839799Y167842D01*
X839732Y167785D01*
X839668Y167726D01*
X839607Y167663D01*
X839549Y167598D01*
X839493Y167530D01*
X839441Y167460D01*
X839392Y167388D01*
X839346Y167314D01*
X839303Y167237D01*
X839264Y167159D01*
X839229Y167079D01*
X839197Y166998D01*
X839168Y166915D01*
X839143Y166831D01*
X839122Y166747D01*
X839105Y166661D01*
X839091Y166575D01*
X839082Y166488D01*
X839076Y166400D01*
X839074Y166313D01*
X839075Y166313D02*
X839075Y164338D01*
X835914Y171478D02*
X843026Y171478D01*
X835914Y170688D02*
X835914Y172268D01*
X843026Y172268D02*
X843026Y170688D01*
X843026Y175217D02*
X835914Y175217D01*
X835914Y179168D02*
X843026Y175217D01*
X843026Y179168D02*
X835914Y179168D01*
X835914Y184446D02*
X835916Y184524D01*
X835922Y184601D01*
X835931Y184678D01*
X835944Y184754D01*
X835961Y184830D01*
X835982Y184905D01*
X836006Y184978D01*
X836034Y185051D01*
X836066Y185122D01*
X836101Y185191D01*
X836139Y185258D01*
X836180Y185324D01*
X836225Y185387D01*
X836273Y185448D01*
X836323Y185507D01*
X836377Y185563D01*
X836433Y185617D01*
X836492Y185667D01*
X836553Y185715D01*
X836616Y185760D01*
X836682Y185801D01*
X836749Y185839D01*
X836818Y185874D01*
X836889Y185906D01*
X836962Y185934D01*
X837035Y185958D01*
X837110Y185979D01*
X837186Y185996D01*
X837262Y186009D01*
X837339Y186018D01*
X837416Y186024D01*
X837494Y186026D01*
X835914Y184446D02*
X835916Y184331D01*
X835922Y184217D01*
X835932Y184103D01*
X835945Y183989D01*
X835963Y183876D01*
X835985Y183763D01*
X836010Y183651D01*
X836039Y183541D01*
X836072Y183431D01*
X836109Y183322D01*
X836149Y183215D01*
X836193Y183109D01*
X836241Y183005D01*
X836292Y182902D01*
X836347Y182802D01*
X836405Y182703D01*
X836467Y182606D01*
X836531Y182512D01*
X836599Y182419D01*
X836671Y182329D01*
X836745Y182242D01*
X836822Y182157D01*
X836902Y182075D01*
X841446Y182273D02*
X841524Y182275D01*
X841601Y182281D01*
X841678Y182290D01*
X841754Y182303D01*
X841830Y182320D01*
X841905Y182341D01*
X841978Y182365D01*
X842051Y182393D01*
X842122Y182425D01*
X842191Y182460D01*
X842258Y182498D01*
X842324Y182539D01*
X842387Y182584D01*
X842448Y182632D01*
X842507Y182682D01*
X842563Y182736D01*
X842617Y182792D01*
X842667Y182851D01*
X842715Y182912D01*
X842760Y182975D01*
X842801Y183041D01*
X842839Y183108D01*
X842874Y183177D01*
X842906Y183248D01*
X842934Y183321D01*
X842958Y183394D01*
X842979Y183469D01*
X842996Y183545D01*
X843009Y183621D01*
X843018Y183698D01*
X843024Y183776D01*
X843026Y183853D01*
X843024Y183959D01*
X843018Y184065D01*
X843009Y184170D01*
X842996Y184275D01*
X842979Y184380D01*
X842958Y184484D01*
X842934Y184587D01*
X842906Y184689D01*
X842874Y184790D01*
X842839Y184890D01*
X842800Y184988D01*
X842757Y185086D01*
X842712Y185181D01*
X842663Y185275D01*
X842610Y185367D01*
X842554Y185457D01*
X842495Y185545D01*
X842433Y185631D01*
X840063Y183063D02*
X840105Y182996D01*
X840150Y182931D01*
X840199Y182868D01*
X840250Y182807D01*
X840305Y182750D01*
X840362Y182695D01*
X840422Y182642D01*
X840484Y182593D01*
X840549Y182547D01*
X840615Y182505D01*
X840684Y182465D01*
X840755Y182429D01*
X840828Y182397D01*
X840902Y182368D01*
X840977Y182343D01*
X841053Y182322D01*
X841131Y182304D01*
X841209Y182291D01*
X841288Y182281D01*
X841367Y182275D01*
X841446Y182273D01*
X838877Y185236D02*
X838835Y185303D01*
X838790Y185368D01*
X838741Y185431D01*
X838690Y185492D01*
X838635Y185549D01*
X838578Y185604D01*
X838518Y185657D01*
X838456Y185706D01*
X838391Y185752D01*
X838325Y185794D01*
X838256Y185834D01*
X838185Y185870D01*
X838112Y185902D01*
X838038Y185931D01*
X837963Y185956D01*
X837887Y185977D01*
X837809Y185995D01*
X837731Y186008D01*
X837652Y186018D01*
X837573Y186024D01*
X837494Y186026D01*
X838877Y185236D02*
X840063Y183063D01*
D11*
X139700Y269240D02*
X114300Y269240D01*
X114300Y213360D01*
X139700Y213360D01*
X139700Y269240D01*
X148054Y259588D02*
X148054Y248751D01*
X148054Y234188D02*
X148054Y223351D01*
X142635Y228769D02*
X153472Y228769D01*
D12*
X103632Y191017D02*
X91948Y191017D01*
X103632Y191017D02*
X103632Y196210D01*
X98439Y196210D02*
X98439Y191017D01*
X91948Y204033D02*
X91950Y204132D01*
X91956Y204232D01*
X91965Y204331D01*
X91978Y204429D01*
X91995Y204527D01*
X92016Y204625D01*
X92041Y204721D01*
X92069Y204816D01*
X92101Y204910D01*
X92136Y205003D01*
X92175Y205095D01*
X92218Y205185D01*
X92263Y205273D01*
X92313Y205360D01*
X92365Y205444D01*
X92421Y205527D01*
X92479Y205607D01*
X92541Y205685D01*
X92606Y205760D01*
X92674Y205833D01*
X92744Y205903D01*
X92817Y205971D01*
X92892Y206036D01*
X92970Y206098D01*
X93050Y206156D01*
X93133Y206212D01*
X93217Y206264D01*
X93304Y206314D01*
X93392Y206359D01*
X93482Y206402D01*
X93574Y206441D01*
X93667Y206476D01*
X93761Y206508D01*
X93856Y206536D01*
X93952Y206561D01*
X94050Y206582D01*
X94148Y206599D01*
X94246Y206612D01*
X94345Y206621D01*
X94445Y206627D01*
X94544Y206629D01*
X91948Y204033D02*
X91950Y203889D01*
X91956Y203744D01*
X91965Y203600D01*
X91978Y203457D01*
X91995Y203313D01*
X92016Y203170D01*
X92041Y203028D01*
X92069Y202887D01*
X92101Y202746D01*
X92137Y202606D01*
X92176Y202467D01*
X92219Y202329D01*
X92266Y202193D01*
X92316Y202057D01*
X92370Y201923D01*
X92427Y201791D01*
X92488Y201660D01*
X92552Y201531D01*
X92620Y201403D01*
X92690Y201277D01*
X92765Y201153D01*
X92842Y201032D01*
X92923Y200912D01*
X93006Y200794D01*
X93093Y200679D01*
X93183Y200566D01*
X93276Y200455D01*
X93371Y200347D01*
X93470Y200241D01*
X93571Y200138D01*
X101036Y200463D02*
X101135Y200465D01*
X101235Y200471D01*
X101334Y200480D01*
X101432Y200493D01*
X101530Y200510D01*
X101628Y200531D01*
X101724Y200556D01*
X101819Y200584D01*
X101913Y200616D01*
X102006Y200651D01*
X102098Y200690D01*
X102188Y200733D01*
X102276Y200778D01*
X102363Y200828D01*
X102447Y200880D01*
X102530Y200936D01*
X102610Y200994D01*
X102688Y201056D01*
X102763Y201121D01*
X102836Y201189D01*
X102906Y201259D01*
X102974Y201332D01*
X103039Y201407D01*
X103101Y201485D01*
X103159Y201565D01*
X103215Y201648D01*
X103267Y201732D01*
X103317Y201819D01*
X103362Y201907D01*
X103405Y201997D01*
X103444Y202089D01*
X103479Y202182D01*
X103511Y202276D01*
X103539Y202371D01*
X103564Y202468D01*
X103585Y202565D01*
X103602Y202663D01*
X103615Y202761D01*
X103624Y202860D01*
X103630Y202960D01*
X103632Y203059D01*
X103630Y203195D01*
X103624Y203331D01*
X103615Y203467D01*
X103602Y203603D01*
X103584Y203738D01*
X103564Y203872D01*
X103539Y204006D01*
X103511Y204140D01*
X103478Y204272D01*
X103443Y204403D01*
X103403Y204534D01*
X103360Y204663D01*
X103314Y204791D01*
X103263Y204917D01*
X103210Y205043D01*
X103152Y205166D01*
X103092Y205288D01*
X103028Y205408D01*
X102960Y205527D01*
X102890Y205643D01*
X102816Y205757D01*
X102739Y205870D01*
X102658Y205980D01*
X98764Y201761D02*
X98817Y201675D01*
X98874Y201591D01*
X98933Y201509D01*
X98996Y201429D01*
X99062Y201352D01*
X99130Y201277D01*
X99202Y201205D01*
X99276Y201136D01*
X99353Y201070D01*
X99432Y201007D01*
X99514Y200947D01*
X99598Y200890D01*
X99684Y200836D01*
X99772Y200786D01*
X99862Y200739D01*
X99953Y200695D01*
X100047Y200656D01*
X100141Y200619D01*
X100237Y200587D01*
X100335Y200558D01*
X100433Y200533D01*
X100532Y200512D01*
X100632Y200494D01*
X100732Y200481D01*
X100833Y200471D01*
X100935Y200465D01*
X101036Y200463D01*
X96816Y205331D02*
X96763Y205417D01*
X96706Y205501D01*
X96647Y205583D01*
X96584Y205663D01*
X96518Y205740D01*
X96450Y205815D01*
X96378Y205887D01*
X96304Y205956D01*
X96227Y206022D01*
X96148Y206085D01*
X96066Y206145D01*
X95982Y206202D01*
X95896Y206256D01*
X95808Y206306D01*
X95718Y206353D01*
X95627Y206397D01*
X95533Y206436D01*
X95439Y206473D01*
X95343Y206505D01*
X95245Y206534D01*
X95147Y206559D01*
X95048Y206580D01*
X94948Y206598D01*
X94848Y206611D01*
X94747Y206621D01*
X94645Y206627D01*
X94544Y206629D01*
X96816Y205331D02*
X98764Y201761D01*
X103632Y211642D02*
X91948Y211642D01*
X103632Y211642D02*
X103632Y214887D01*
X103630Y215000D01*
X103624Y215113D01*
X103614Y215226D01*
X103600Y215339D01*
X103583Y215451D01*
X103561Y215562D01*
X103536Y215672D01*
X103506Y215782D01*
X103473Y215890D01*
X103436Y215997D01*
X103396Y216103D01*
X103351Y216207D01*
X103303Y216310D01*
X103252Y216411D01*
X103197Y216510D01*
X103139Y216607D01*
X103077Y216702D01*
X103012Y216795D01*
X102944Y216885D01*
X102873Y216973D01*
X102798Y217059D01*
X102721Y217142D01*
X102641Y217222D01*
X102558Y217299D01*
X102472Y217374D01*
X102384Y217445D01*
X102294Y217513D01*
X102201Y217578D01*
X102106Y217640D01*
X102009Y217698D01*
X101910Y217753D01*
X101809Y217804D01*
X101706Y217852D01*
X101602Y217897D01*
X101496Y217937D01*
X101389Y217974D01*
X101281Y218007D01*
X101171Y218037D01*
X101061Y218062D01*
X100950Y218084D01*
X100838Y218101D01*
X100725Y218115D01*
X100612Y218125D01*
X100499Y218131D01*
X100386Y218133D01*
X100273Y218131D01*
X100160Y218125D01*
X100047Y218115D01*
X99934Y218101D01*
X99822Y218084D01*
X99711Y218062D01*
X99601Y218037D01*
X99491Y218007D01*
X99383Y217974D01*
X99276Y217937D01*
X99170Y217897D01*
X99066Y217852D01*
X98963Y217804D01*
X98862Y217753D01*
X98763Y217698D01*
X98666Y217640D01*
X98571Y217578D01*
X98478Y217513D01*
X98388Y217445D01*
X98300Y217374D01*
X98214Y217299D01*
X98131Y217222D01*
X98051Y217142D01*
X97974Y217059D01*
X97899Y216973D01*
X97828Y216885D01*
X97760Y216795D01*
X97695Y216702D01*
X97633Y216607D01*
X97575Y216510D01*
X97520Y216411D01*
X97469Y216310D01*
X97421Y216207D01*
X97376Y216103D01*
X97336Y215997D01*
X97299Y215890D01*
X97266Y215782D01*
X97236Y215672D01*
X97211Y215562D01*
X97189Y215451D01*
X97172Y215339D01*
X97158Y215226D01*
X97148Y215113D01*
X97142Y215000D01*
X97140Y214887D01*
X97141Y214887D02*
X97141Y211642D01*
X97141Y215536D02*
X91948Y218133D01*
X90650Y222504D02*
X90650Y227697D01*
X91948Y232692D02*
X103632Y232692D01*
X103632Y235938D01*
X103630Y236051D01*
X103624Y236164D01*
X103614Y236277D01*
X103600Y236390D01*
X103583Y236502D01*
X103561Y236613D01*
X103536Y236723D01*
X103506Y236833D01*
X103473Y236941D01*
X103436Y237048D01*
X103396Y237154D01*
X103351Y237258D01*
X103303Y237361D01*
X103252Y237462D01*
X103197Y237561D01*
X103139Y237658D01*
X103077Y237753D01*
X103012Y237846D01*
X102944Y237936D01*
X102873Y238024D01*
X102798Y238110D01*
X102721Y238193D01*
X102641Y238273D01*
X102558Y238350D01*
X102472Y238425D01*
X102384Y238496D01*
X102294Y238564D01*
X102201Y238629D01*
X102106Y238691D01*
X102009Y238749D01*
X101910Y238804D01*
X101809Y238855D01*
X101706Y238903D01*
X101602Y238948D01*
X101496Y238988D01*
X101389Y239025D01*
X101281Y239058D01*
X101171Y239088D01*
X101061Y239113D01*
X100950Y239135D01*
X100838Y239152D01*
X100725Y239166D01*
X100612Y239176D01*
X100499Y239182D01*
X100386Y239184D01*
X100273Y239182D01*
X100160Y239176D01*
X100047Y239166D01*
X99934Y239152D01*
X99822Y239135D01*
X99711Y239113D01*
X99601Y239088D01*
X99491Y239058D01*
X99383Y239025D01*
X99276Y238988D01*
X99170Y238948D01*
X99066Y238903D01*
X98963Y238855D01*
X98862Y238804D01*
X98763Y238749D01*
X98666Y238691D01*
X98571Y238629D01*
X98478Y238564D01*
X98388Y238496D01*
X98300Y238425D01*
X98214Y238350D01*
X98131Y238273D01*
X98051Y238193D01*
X97974Y238110D01*
X97899Y238024D01*
X97828Y237936D01*
X97760Y237846D01*
X97695Y237753D01*
X97633Y237658D01*
X97575Y237561D01*
X97520Y237462D01*
X97469Y237361D01*
X97421Y237258D01*
X97376Y237154D01*
X97336Y237048D01*
X97299Y236941D01*
X97266Y236833D01*
X97236Y236723D01*
X97211Y236613D01*
X97189Y236502D01*
X97172Y236390D01*
X97158Y236277D01*
X97148Y236164D01*
X97142Y236051D01*
X97140Y235938D01*
X97141Y235938D02*
X97141Y232692D01*
X91948Y244532D02*
X103632Y244532D01*
X91948Y243233D02*
X91948Y245830D01*
X103632Y245830D02*
X103632Y243233D01*
X103632Y250811D02*
X91948Y250811D01*
X91948Y257302D02*
X103632Y250811D01*
X103632Y257302D02*
X91948Y257302D01*
X91948Y266136D02*
X91950Y266235D01*
X91956Y266335D01*
X91965Y266434D01*
X91978Y266532D01*
X91995Y266630D01*
X92016Y266728D01*
X92041Y266824D01*
X92069Y266919D01*
X92101Y267013D01*
X92136Y267106D01*
X92175Y267198D01*
X92218Y267288D01*
X92263Y267376D01*
X92313Y267463D01*
X92365Y267547D01*
X92421Y267630D01*
X92479Y267710D01*
X92541Y267788D01*
X92606Y267863D01*
X92674Y267936D01*
X92744Y268006D01*
X92817Y268074D01*
X92892Y268139D01*
X92970Y268201D01*
X93050Y268259D01*
X93133Y268315D01*
X93217Y268367D01*
X93304Y268417D01*
X93392Y268462D01*
X93482Y268505D01*
X93574Y268544D01*
X93667Y268579D01*
X93761Y268611D01*
X93856Y268639D01*
X93952Y268664D01*
X94050Y268685D01*
X94148Y268702D01*
X94246Y268715D01*
X94345Y268724D01*
X94445Y268730D01*
X94544Y268732D01*
X91948Y266136D02*
X91950Y265992D01*
X91956Y265847D01*
X91965Y265703D01*
X91978Y265560D01*
X91995Y265416D01*
X92016Y265273D01*
X92041Y265131D01*
X92069Y264990D01*
X92101Y264849D01*
X92137Y264709D01*
X92176Y264570D01*
X92219Y264432D01*
X92266Y264296D01*
X92316Y264160D01*
X92370Y264026D01*
X92427Y263894D01*
X92488Y263763D01*
X92552Y263634D01*
X92620Y263506D01*
X92690Y263380D01*
X92765Y263256D01*
X92842Y263135D01*
X92923Y263015D01*
X93006Y262897D01*
X93093Y262782D01*
X93183Y262669D01*
X93276Y262558D01*
X93371Y262450D01*
X93470Y262344D01*
X93571Y262241D01*
X101036Y262566D02*
X101135Y262568D01*
X101235Y262574D01*
X101334Y262583D01*
X101432Y262596D01*
X101530Y262613D01*
X101628Y262634D01*
X101724Y262659D01*
X101819Y262687D01*
X101913Y262719D01*
X102006Y262754D01*
X102098Y262793D01*
X102188Y262836D01*
X102276Y262881D01*
X102363Y262931D01*
X102447Y262983D01*
X102530Y263039D01*
X102610Y263097D01*
X102688Y263159D01*
X102763Y263224D01*
X102836Y263292D01*
X102906Y263362D01*
X102974Y263435D01*
X103039Y263510D01*
X103101Y263588D01*
X103159Y263668D01*
X103215Y263751D01*
X103267Y263835D01*
X103317Y263922D01*
X103362Y264010D01*
X103405Y264100D01*
X103444Y264192D01*
X103479Y264285D01*
X103511Y264379D01*
X103539Y264474D01*
X103564Y264571D01*
X103585Y264668D01*
X103602Y264766D01*
X103615Y264864D01*
X103624Y264963D01*
X103630Y265063D01*
X103632Y265162D01*
X103630Y265298D01*
X103624Y265434D01*
X103615Y265570D01*
X103602Y265706D01*
X103584Y265841D01*
X103564Y265975D01*
X103539Y266109D01*
X103511Y266243D01*
X103478Y266375D01*
X103443Y266506D01*
X103403Y266637D01*
X103360Y266766D01*
X103314Y266894D01*
X103263Y267020D01*
X103210Y267146D01*
X103152Y267269D01*
X103092Y267391D01*
X103028Y267511D01*
X102960Y267630D01*
X102890Y267746D01*
X102816Y267860D01*
X102739Y267973D01*
X102658Y268083D01*
X98764Y263863D02*
X98817Y263777D01*
X98874Y263693D01*
X98933Y263611D01*
X98996Y263531D01*
X99062Y263454D01*
X99130Y263379D01*
X99202Y263307D01*
X99276Y263238D01*
X99353Y263172D01*
X99432Y263109D01*
X99514Y263049D01*
X99598Y262992D01*
X99684Y262938D01*
X99772Y262888D01*
X99862Y262841D01*
X99953Y262797D01*
X100047Y262758D01*
X100141Y262721D01*
X100237Y262689D01*
X100335Y262660D01*
X100433Y262635D01*
X100532Y262614D01*
X100632Y262596D01*
X100732Y262583D01*
X100833Y262573D01*
X100935Y262567D01*
X101036Y262565D01*
X96816Y267434D02*
X96763Y267520D01*
X96706Y267604D01*
X96647Y267686D01*
X96584Y267766D01*
X96518Y267843D01*
X96450Y267918D01*
X96378Y267990D01*
X96304Y268059D01*
X96227Y268125D01*
X96148Y268188D01*
X96066Y268248D01*
X95982Y268305D01*
X95896Y268359D01*
X95808Y268409D01*
X95718Y268456D01*
X95627Y268500D01*
X95533Y268539D01*
X95439Y268576D01*
X95343Y268608D01*
X95245Y268637D01*
X95147Y268662D01*
X95048Y268683D01*
X94948Y268701D01*
X94848Y268714D01*
X94747Y268724D01*
X94645Y268730D01*
X94544Y268732D01*
X96816Y267434D02*
X98764Y263864D01*
D11*
X60960Y269240D02*
X35560Y269240D01*
X35560Y213360D01*
X60960Y213360D01*
X60960Y269240D01*
X69314Y259588D02*
X69314Y248751D01*
X69314Y234188D02*
X69314Y223351D01*
X63895Y228769D02*
X74732Y228769D01*
D14*
X22606Y184715D02*
X15494Y184715D01*
X15494Y183925D02*
X15494Y185505D01*
X22606Y185505D02*
X22606Y183925D01*
X22606Y188495D02*
X15494Y188495D01*
X22606Y188495D02*
X22606Y190470D01*
X22604Y190557D01*
X22598Y190645D01*
X22589Y190732D01*
X22575Y190818D01*
X22558Y190904D01*
X22537Y190988D01*
X22512Y191072D01*
X22483Y191155D01*
X22451Y191236D01*
X22416Y191316D01*
X22377Y191394D01*
X22334Y191471D01*
X22288Y191545D01*
X22239Y191617D01*
X22187Y191687D01*
X22131Y191755D01*
X22073Y191820D01*
X22012Y191883D01*
X21948Y191942D01*
X21881Y191999D01*
X21813Y192053D01*
X21741Y192104D01*
X21668Y192151D01*
X21593Y192196D01*
X21515Y192237D01*
X21436Y192274D01*
X21356Y192308D01*
X21274Y192338D01*
X21191Y192365D01*
X21106Y192388D01*
X21021Y192407D01*
X20935Y192422D01*
X20848Y192434D01*
X20761Y192442D01*
X20674Y192446D01*
X20586Y192446D01*
X20499Y192442D01*
X20412Y192434D01*
X20325Y192422D01*
X20239Y192407D01*
X20154Y192388D01*
X20069Y192365D01*
X19986Y192338D01*
X19904Y192308D01*
X19824Y192274D01*
X19745Y192237D01*
X19667Y192196D01*
X19592Y192151D01*
X19519Y192104D01*
X19447Y192053D01*
X19379Y191999D01*
X19312Y191942D01*
X19248Y191883D01*
X19187Y191820D01*
X19129Y191755D01*
X19073Y191687D01*
X19021Y191617D01*
X18972Y191545D01*
X18926Y191471D01*
X18883Y191394D01*
X18844Y191316D01*
X18809Y191236D01*
X18777Y191155D01*
X18748Y191072D01*
X18723Y190988D01*
X18702Y190904D01*
X18685Y190818D01*
X18671Y190732D01*
X18662Y190645D01*
X18656Y190557D01*
X18654Y190470D01*
X18655Y190470D02*
X18655Y188495D01*
X18655Y190866D02*
X15494Y192446D01*
X14704Y195022D02*
X14704Y198183D01*
X15494Y202317D02*
X22606Y202317D01*
X22606Y200342D02*
X22606Y204293D01*
X22606Y207011D02*
X15494Y207011D01*
X22606Y207011D02*
X22606Y208987D01*
X22604Y209074D01*
X22598Y209162D01*
X22589Y209249D01*
X22575Y209335D01*
X22558Y209421D01*
X22537Y209505D01*
X22512Y209589D01*
X22483Y209672D01*
X22451Y209753D01*
X22416Y209833D01*
X22377Y209911D01*
X22334Y209988D01*
X22288Y210062D01*
X22239Y210134D01*
X22187Y210204D01*
X22131Y210272D01*
X22073Y210337D01*
X22012Y210400D01*
X21948Y210459D01*
X21881Y210516D01*
X21813Y210570D01*
X21741Y210621D01*
X21668Y210668D01*
X21593Y210713D01*
X21515Y210754D01*
X21436Y210791D01*
X21356Y210825D01*
X21274Y210855D01*
X21191Y210882D01*
X21106Y210905D01*
X21021Y210924D01*
X20935Y210939D01*
X20848Y210951D01*
X20761Y210959D01*
X20674Y210963D01*
X20586Y210963D01*
X20499Y210959D01*
X20412Y210951D01*
X20325Y210939D01*
X20239Y210924D01*
X20154Y210905D01*
X20069Y210882D01*
X19986Y210855D01*
X19904Y210825D01*
X19824Y210791D01*
X19745Y210754D01*
X19667Y210713D01*
X19592Y210668D01*
X19519Y210621D01*
X19447Y210570D01*
X19379Y210516D01*
X19312Y210459D01*
X19248Y210400D01*
X19187Y210337D01*
X19129Y210272D01*
X19073Y210204D01*
X19021Y210134D01*
X18972Y210062D01*
X18926Y209988D01*
X18883Y209911D01*
X18844Y209833D01*
X18809Y209753D01*
X18777Y209672D01*
X18748Y209589D01*
X18723Y209505D01*
X18702Y209421D01*
X18685Y209335D01*
X18671Y209249D01*
X18662Y209162D01*
X18656Y209074D01*
X18654Y208987D01*
X18655Y208987D02*
X18655Y207011D01*
X18655Y209382D02*
X15494Y210963D01*
X15494Y213434D02*
X22606Y215804D01*
X15494Y218175D01*
X17272Y217582D02*
X17272Y214026D01*
X15494Y222829D02*
X15496Y222907D01*
X15502Y222984D01*
X15511Y223061D01*
X15524Y223137D01*
X15541Y223213D01*
X15562Y223288D01*
X15586Y223361D01*
X15614Y223434D01*
X15646Y223505D01*
X15681Y223574D01*
X15719Y223641D01*
X15760Y223707D01*
X15805Y223770D01*
X15853Y223831D01*
X15903Y223890D01*
X15957Y223946D01*
X16013Y224000D01*
X16072Y224050D01*
X16133Y224098D01*
X16196Y224143D01*
X16262Y224184D01*
X16329Y224222D01*
X16398Y224257D01*
X16469Y224289D01*
X16542Y224317D01*
X16615Y224341D01*
X16690Y224362D01*
X16766Y224379D01*
X16842Y224392D01*
X16919Y224401D01*
X16996Y224407D01*
X17074Y224409D01*
X15494Y222829D02*
X15496Y222714D01*
X15502Y222600D01*
X15512Y222486D01*
X15525Y222372D01*
X15543Y222259D01*
X15565Y222146D01*
X15590Y222034D01*
X15619Y221924D01*
X15652Y221814D01*
X15689Y221705D01*
X15729Y221598D01*
X15773Y221492D01*
X15821Y221388D01*
X15872Y221285D01*
X15927Y221185D01*
X15985Y221086D01*
X16047Y220989D01*
X16111Y220895D01*
X16179Y220802D01*
X16251Y220712D01*
X16325Y220625D01*
X16402Y220540D01*
X16482Y220458D01*
X21026Y220656D02*
X21104Y220658D01*
X21181Y220664D01*
X21258Y220673D01*
X21334Y220686D01*
X21410Y220703D01*
X21485Y220724D01*
X21558Y220748D01*
X21631Y220776D01*
X21702Y220808D01*
X21771Y220843D01*
X21838Y220881D01*
X21904Y220922D01*
X21967Y220967D01*
X22028Y221015D01*
X22087Y221065D01*
X22143Y221119D01*
X22197Y221175D01*
X22247Y221234D01*
X22295Y221295D01*
X22340Y221358D01*
X22381Y221424D01*
X22419Y221491D01*
X22454Y221560D01*
X22486Y221631D01*
X22514Y221704D01*
X22538Y221777D01*
X22559Y221852D01*
X22576Y221928D01*
X22589Y222004D01*
X22598Y222081D01*
X22604Y222159D01*
X22606Y222236D01*
X22604Y222342D01*
X22598Y222448D01*
X22589Y222553D01*
X22576Y222658D01*
X22559Y222763D01*
X22538Y222867D01*
X22514Y222970D01*
X22486Y223072D01*
X22454Y223173D01*
X22419Y223273D01*
X22380Y223371D01*
X22337Y223469D01*
X22292Y223564D01*
X22243Y223658D01*
X22190Y223750D01*
X22134Y223840D01*
X22075Y223928D01*
X22013Y224014D01*
X19643Y221446D02*
X19685Y221379D01*
X19730Y221314D01*
X19779Y221251D01*
X19830Y221190D01*
X19885Y221133D01*
X19942Y221078D01*
X20002Y221025D01*
X20064Y220976D01*
X20129Y220930D01*
X20195Y220888D01*
X20264Y220848D01*
X20335Y220812D01*
X20408Y220780D01*
X20482Y220751D01*
X20557Y220726D01*
X20633Y220705D01*
X20711Y220687D01*
X20789Y220674D01*
X20868Y220664D01*
X20947Y220658D01*
X21026Y220656D01*
X18457Y223619D02*
X18415Y223686D01*
X18370Y223751D01*
X18321Y223814D01*
X18270Y223875D01*
X18215Y223932D01*
X18158Y223987D01*
X18098Y224040D01*
X18036Y224089D01*
X17971Y224135D01*
X17905Y224177D01*
X17836Y224217D01*
X17765Y224253D01*
X17692Y224285D01*
X17618Y224314D01*
X17543Y224339D01*
X17467Y224360D01*
X17389Y224378D01*
X17311Y224391D01*
X17232Y224401D01*
X17153Y224407D01*
X17074Y224409D01*
X18457Y223619D02*
X19643Y221446D01*
X22606Y227378D02*
X15494Y227378D01*
X18655Y229749D02*
X22606Y227378D01*
X18655Y229749D02*
X22606Y232120D01*
X15494Y232120D01*
X15494Y235921D02*
X22606Y235921D01*
X15494Y235131D02*
X15494Y236711D01*
X22606Y236711D02*
X22606Y235131D01*
X22606Y240950D02*
X15494Y240950D01*
X22606Y238975D02*
X22606Y242926D01*
X22606Y246894D02*
X15494Y246894D01*
X22606Y244918D02*
X22606Y248869D01*
X15494Y251560D02*
X15494Y254721D01*
X15494Y251560D02*
X22606Y251560D01*
X22606Y254721D01*
X19445Y253931D02*
X19445Y251560D01*
X22606Y257532D02*
X15494Y257532D01*
X22606Y257532D02*
X22606Y259507D01*
X22604Y259594D01*
X22598Y259682D01*
X22589Y259769D01*
X22575Y259855D01*
X22558Y259941D01*
X22537Y260025D01*
X22512Y260109D01*
X22483Y260192D01*
X22451Y260273D01*
X22416Y260353D01*
X22377Y260431D01*
X22334Y260508D01*
X22288Y260582D01*
X22239Y260654D01*
X22187Y260724D01*
X22131Y260792D01*
X22073Y260857D01*
X22012Y260920D01*
X21948Y260979D01*
X21881Y261036D01*
X21813Y261090D01*
X21741Y261141D01*
X21668Y261188D01*
X21593Y261233D01*
X21515Y261274D01*
X21436Y261311D01*
X21356Y261345D01*
X21274Y261375D01*
X21191Y261402D01*
X21106Y261425D01*
X21021Y261444D01*
X20935Y261459D01*
X20848Y261471D01*
X20761Y261479D01*
X20674Y261483D01*
X20586Y261483D01*
X20499Y261479D01*
X20412Y261471D01*
X20325Y261459D01*
X20239Y261444D01*
X20154Y261425D01*
X20069Y261402D01*
X19986Y261375D01*
X19904Y261345D01*
X19824Y261311D01*
X19745Y261274D01*
X19667Y261233D01*
X19592Y261188D01*
X19519Y261141D01*
X19447Y261090D01*
X19379Y261036D01*
X19312Y260979D01*
X19248Y260920D01*
X19187Y260857D01*
X19129Y260792D01*
X19073Y260724D01*
X19021Y260654D01*
X18972Y260582D01*
X18926Y260508D01*
X18883Y260431D01*
X18844Y260353D01*
X18809Y260273D01*
X18777Y260192D01*
X18748Y260109D01*
X18723Y260025D01*
X18702Y259941D01*
X18685Y259855D01*
X18671Y259769D01*
X18662Y259682D01*
X18656Y259594D01*
X18654Y259507D01*
X18655Y259507D02*
X18655Y257532D01*
X18655Y259902D02*
X15494Y261483D01*
X14704Y264059D02*
X14704Y267219D01*
X15494Y270157D02*
X22606Y270157D01*
X22606Y272133D01*
X22604Y272220D01*
X22598Y272308D01*
X22589Y272395D01*
X22575Y272481D01*
X22558Y272567D01*
X22537Y272651D01*
X22512Y272735D01*
X22483Y272818D01*
X22451Y272899D01*
X22416Y272979D01*
X22377Y273057D01*
X22334Y273134D01*
X22288Y273208D01*
X22239Y273280D01*
X22187Y273350D01*
X22131Y273418D01*
X22073Y273483D01*
X22012Y273546D01*
X21948Y273605D01*
X21881Y273662D01*
X21813Y273716D01*
X21741Y273767D01*
X21668Y273814D01*
X21593Y273859D01*
X21515Y273900D01*
X21436Y273937D01*
X21356Y273971D01*
X21274Y274001D01*
X21191Y274028D01*
X21106Y274051D01*
X21021Y274070D01*
X20935Y274085D01*
X20848Y274097D01*
X20761Y274105D01*
X20674Y274109D01*
X20586Y274109D01*
X20499Y274105D01*
X20412Y274097D01*
X20325Y274085D01*
X20239Y274070D01*
X20154Y274051D01*
X20069Y274028D01*
X19986Y274001D01*
X19904Y273971D01*
X19824Y273937D01*
X19745Y273900D01*
X19667Y273859D01*
X19592Y273814D01*
X19519Y273767D01*
X19447Y273716D01*
X19379Y273662D01*
X19312Y273605D01*
X19248Y273546D01*
X19187Y273483D01*
X19129Y273418D01*
X19073Y273350D01*
X19021Y273280D01*
X18972Y273208D01*
X18926Y273134D01*
X18883Y273057D01*
X18844Y272979D01*
X18809Y272899D01*
X18777Y272818D01*
X18748Y272735D01*
X18723Y272651D01*
X18702Y272567D01*
X18685Y272481D01*
X18671Y272395D01*
X18662Y272308D01*
X18656Y272220D01*
X18654Y272133D01*
X18655Y272133D02*
X18655Y270157D01*
X15494Y277298D02*
X22606Y277298D01*
X15494Y276507D02*
X15494Y278088D01*
X22606Y278088D02*
X22606Y276507D01*
X22606Y281037D02*
X15494Y281037D01*
X15494Y284988D02*
X22606Y281037D01*
X22606Y284988D02*
X15494Y284988D01*
X15494Y290266D02*
X15496Y290344D01*
X15502Y290421D01*
X15511Y290498D01*
X15524Y290574D01*
X15541Y290650D01*
X15562Y290725D01*
X15586Y290798D01*
X15614Y290871D01*
X15646Y290942D01*
X15681Y291011D01*
X15719Y291078D01*
X15760Y291144D01*
X15805Y291207D01*
X15853Y291268D01*
X15903Y291327D01*
X15957Y291383D01*
X16013Y291437D01*
X16072Y291487D01*
X16133Y291535D01*
X16196Y291580D01*
X16262Y291621D01*
X16329Y291659D01*
X16398Y291694D01*
X16469Y291726D01*
X16542Y291754D01*
X16615Y291778D01*
X16690Y291799D01*
X16766Y291816D01*
X16842Y291829D01*
X16919Y291838D01*
X16996Y291844D01*
X17074Y291846D01*
X15494Y290266D02*
X15496Y290151D01*
X15502Y290037D01*
X15512Y289923D01*
X15525Y289809D01*
X15543Y289696D01*
X15565Y289583D01*
X15590Y289471D01*
X15619Y289361D01*
X15652Y289251D01*
X15689Y289142D01*
X15729Y289035D01*
X15773Y288929D01*
X15821Y288825D01*
X15872Y288722D01*
X15927Y288622D01*
X15985Y288523D01*
X16047Y288426D01*
X16111Y288332D01*
X16179Y288239D01*
X16251Y288149D01*
X16325Y288062D01*
X16402Y287977D01*
X16482Y287895D01*
X21026Y288093D02*
X21104Y288095D01*
X21181Y288101D01*
X21258Y288110D01*
X21334Y288123D01*
X21410Y288140D01*
X21485Y288161D01*
X21558Y288185D01*
X21631Y288213D01*
X21702Y288245D01*
X21771Y288280D01*
X21838Y288318D01*
X21904Y288359D01*
X21967Y288404D01*
X22028Y288452D01*
X22087Y288502D01*
X22143Y288556D01*
X22197Y288612D01*
X22247Y288671D01*
X22295Y288732D01*
X22340Y288795D01*
X22381Y288861D01*
X22419Y288928D01*
X22454Y288997D01*
X22486Y289068D01*
X22514Y289141D01*
X22538Y289214D01*
X22559Y289289D01*
X22576Y289365D01*
X22589Y289441D01*
X22598Y289518D01*
X22604Y289596D01*
X22606Y289673D01*
X22604Y289779D01*
X22598Y289885D01*
X22589Y289990D01*
X22576Y290095D01*
X22559Y290200D01*
X22538Y290304D01*
X22514Y290407D01*
X22486Y290509D01*
X22454Y290610D01*
X22419Y290710D01*
X22380Y290808D01*
X22337Y290906D01*
X22292Y291001D01*
X22243Y291095D01*
X22190Y291187D01*
X22134Y291277D01*
X22075Y291365D01*
X22013Y291451D01*
X19643Y288883D02*
X19685Y288816D01*
X19730Y288751D01*
X19779Y288688D01*
X19830Y288627D01*
X19885Y288570D01*
X19942Y288515D01*
X20002Y288462D01*
X20064Y288413D01*
X20129Y288367D01*
X20195Y288325D01*
X20264Y288285D01*
X20335Y288249D01*
X20408Y288217D01*
X20482Y288188D01*
X20557Y288163D01*
X20633Y288142D01*
X20711Y288124D01*
X20789Y288111D01*
X20868Y288101D01*
X20947Y288095D01*
X21026Y288093D01*
X18457Y291056D02*
X18415Y291123D01*
X18370Y291188D01*
X18321Y291251D01*
X18270Y291312D01*
X18215Y291369D01*
X18158Y291424D01*
X18098Y291477D01*
X18036Y291526D01*
X17971Y291572D01*
X17905Y291614D01*
X17836Y291654D01*
X17765Y291690D01*
X17692Y291722D01*
X17618Y291751D01*
X17543Y291776D01*
X17467Y291797D01*
X17389Y291815D01*
X17311Y291828D01*
X17232Y291838D01*
X17153Y291844D01*
X17074Y291846D01*
X18457Y291056D02*
X19643Y288883D01*
D13*
X119930Y165650D02*
X119930Y13650D01*
X12930Y13650D01*
X12930Y165650D01*
X119930Y165650D01*
D11*
X105579Y84554D02*
X94742Y84554D01*
X94742Y148054D02*
X105579Y148054D01*
X100161Y142635D02*
X100161Y153472D01*
D14*
X135215Y18647D02*
X135215Y16672D01*
X135216Y18647D02*
X135214Y18734D01*
X135208Y18822D01*
X135199Y18909D01*
X135185Y18995D01*
X135168Y19081D01*
X135147Y19165D01*
X135122Y19249D01*
X135093Y19332D01*
X135061Y19413D01*
X135026Y19493D01*
X134987Y19571D01*
X134944Y19648D01*
X134898Y19722D01*
X134849Y19794D01*
X134797Y19864D01*
X134741Y19932D01*
X134683Y19997D01*
X134622Y20060D01*
X134558Y20119D01*
X134491Y20176D01*
X134423Y20230D01*
X134351Y20281D01*
X134278Y20328D01*
X134203Y20373D01*
X134125Y20414D01*
X134046Y20451D01*
X133966Y20485D01*
X133884Y20515D01*
X133801Y20542D01*
X133716Y20565D01*
X133631Y20584D01*
X133545Y20599D01*
X133458Y20611D01*
X133371Y20619D01*
X133284Y20623D01*
X133196Y20623D01*
X133109Y20619D01*
X133022Y20611D01*
X132935Y20599D01*
X132849Y20584D01*
X132764Y20565D01*
X132679Y20542D01*
X132596Y20515D01*
X132514Y20485D01*
X132434Y20451D01*
X132355Y20414D01*
X132277Y20373D01*
X132202Y20328D01*
X132129Y20281D01*
X132057Y20230D01*
X131989Y20176D01*
X131922Y20119D01*
X131858Y20060D01*
X131797Y19997D01*
X131739Y19932D01*
X131683Y19864D01*
X131631Y19794D01*
X131582Y19722D01*
X131536Y19648D01*
X131493Y19571D01*
X131454Y19493D01*
X131419Y19413D01*
X131387Y19332D01*
X131358Y19249D01*
X131333Y19165D01*
X131312Y19081D01*
X131295Y18995D01*
X131281Y18909D01*
X131272Y18822D01*
X131266Y18734D01*
X131264Y18647D01*
X131264Y16672D01*
X138376Y16672D01*
X138376Y18647D01*
X138374Y18726D01*
X138368Y18804D01*
X138358Y18882D01*
X138345Y18960D01*
X138327Y19037D01*
X138306Y19113D01*
X138281Y19187D01*
X138252Y19261D01*
X138220Y19333D01*
X138184Y19403D01*
X138144Y19471D01*
X138101Y19537D01*
X138055Y19601D01*
X138006Y19663D01*
X137954Y19722D01*
X137899Y19778D01*
X137841Y19832D01*
X137781Y19882D01*
X137718Y19930D01*
X137653Y19974D01*
X137586Y20015D01*
X137517Y20053D01*
X137446Y20087D01*
X137373Y20118D01*
X137299Y20145D01*
X137224Y20168D01*
X137148Y20187D01*
X137070Y20203D01*
X136992Y20215D01*
X136914Y20223D01*
X136835Y20227D01*
X136757Y20227D01*
X136678Y20223D01*
X136600Y20215D01*
X136522Y20203D01*
X136444Y20187D01*
X136368Y20168D01*
X136293Y20145D01*
X136219Y20118D01*
X136146Y20087D01*
X136075Y20053D01*
X136006Y20015D01*
X135939Y19974D01*
X135874Y19930D01*
X135811Y19882D01*
X135751Y19832D01*
X135693Y19778D01*
X135638Y19722D01*
X135586Y19663D01*
X135537Y19601D01*
X135491Y19537D01*
X135448Y19471D01*
X135408Y19403D01*
X135372Y19333D01*
X135340Y19261D01*
X135311Y19187D01*
X135286Y19113D01*
X135265Y19037D01*
X135247Y18960D01*
X135234Y18882D01*
X135224Y18804D01*
X135218Y18726D01*
X135216Y18647D01*
X131264Y22813D02*
X138376Y25183D01*
X131264Y27554D01*
X133042Y26961D02*
X133042Y23405D01*
X131264Y30335D02*
X138376Y30335D01*
X138376Y32310D01*
X138374Y32397D01*
X138368Y32485D01*
X138359Y32572D01*
X138345Y32658D01*
X138328Y32744D01*
X138307Y32828D01*
X138282Y32912D01*
X138253Y32995D01*
X138221Y33076D01*
X138186Y33156D01*
X138147Y33234D01*
X138104Y33311D01*
X138058Y33385D01*
X138009Y33457D01*
X137957Y33527D01*
X137901Y33595D01*
X137843Y33660D01*
X137782Y33723D01*
X137718Y33782D01*
X137651Y33839D01*
X137583Y33893D01*
X137511Y33944D01*
X137438Y33991D01*
X137363Y34036D01*
X137285Y34077D01*
X137206Y34114D01*
X137126Y34148D01*
X137044Y34178D01*
X136961Y34205D01*
X136876Y34228D01*
X136791Y34247D01*
X136705Y34262D01*
X136618Y34274D01*
X136531Y34282D01*
X136444Y34286D01*
X136356Y34286D01*
X136269Y34282D01*
X136182Y34274D01*
X136095Y34262D01*
X136009Y34247D01*
X135924Y34228D01*
X135839Y34205D01*
X135756Y34178D01*
X135674Y34148D01*
X135594Y34114D01*
X135515Y34077D01*
X135437Y34036D01*
X135362Y33991D01*
X135289Y33944D01*
X135217Y33893D01*
X135149Y33839D01*
X135082Y33782D01*
X135018Y33723D01*
X134957Y33660D01*
X134899Y33595D01*
X134843Y33527D01*
X134791Y33457D01*
X134742Y33385D01*
X134696Y33311D01*
X134653Y33234D01*
X134614Y33156D01*
X134579Y33076D01*
X134547Y32995D01*
X134518Y32912D01*
X134493Y32828D01*
X134472Y32744D01*
X134455Y32658D01*
X134441Y32572D01*
X134432Y32485D01*
X134426Y32397D01*
X134424Y32310D01*
X134425Y32310D02*
X134425Y30335D01*
X134425Y32706D02*
X131264Y34286D01*
X131264Y37422D02*
X138376Y37422D01*
X138376Y39397D01*
X138374Y39484D01*
X138368Y39572D01*
X138359Y39659D01*
X138345Y39745D01*
X138328Y39831D01*
X138307Y39915D01*
X138282Y39999D01*
X138253Y40082D01*
X138221Y40163D01*
X138186Y40243D01*
X138147Y40321D01*
X138104Y40398D01*
X138058Y40472D01*
X138009Y40544D01*
X137957Y40614D01*
X137901Y40682D01*
X137843Y40747D01*
X137782Y40810D01*
X137718Y40869D01*
X137651Y40926D01*
X137583Y40980D01*
X137511Y41031D01*
X137438Y41078D01*
X137363Y41123D01*
X137285Y41164D01*
X137206Y41201D01*
X137126Y41235D01*
X137044Y41265D01*
X136961Y41292D01*
X136876Y41315D01*
X136791Y41334D01*
X136705Y41349D01*
X136618Y41361D01*
X136531Y41369D01*
X136444Y41373D01*
X136356Y41373D01*
X136269Y41369D01*
X136182Y41361D01*
X136095Y41349D01*
X136009Y41334D01*
X135924Y41315D01*
X135839Y41292D01*
X135756Y41265D01*
X135674Y41235D01*
X135594Y41201D01*
X135515Y41164D01*
X135437Y41123D01*
X135362Y41078D01*
X135289Y41031D01*
X135217Y40980D01*
X135149Y40926D01*
X135082Y40869D01*
X135018Y40810D01*
X134957Y40747D01*
X134899Y40682D01*
X134843Y40614D01*
X134791Y40544D01*
X134742Y40472D01*
X134696Y40398D01*
X134653Y40321D01*
X134614Y40243D01*
X134579Y40163D01*
X134547Y40082D01*
X134518Y39999D01*
X134493Y39915D01*
X134472Y39831D01*
X134455Y39745D01*
X134441Y39659D01*
X134432Y39572D01*
X134426Y39484D01*
X134424Y39397D01*
X134425Y39397D02*
X134425Y37422D01*
X134425Y39792D02*
X131264Y41373D01*
X131264Y44480D02*
X131264Y47641D01*
X131264Y44480D02*
X138376Y44480D01*
X138376Y47641D01*
X135215Y46851D02*
X135215Y44480D01*
X138376Y50424D02*
X131264Y50424D01*
X131264Y53584D01*
X130474Y55835D02*
X130474Y58996D01*
X131264Y63175D02*
X131264Y64755D01*
X131264Y63175D02*
X131266Y63097D01*
X131272Y63020D01*
X131281Y62943D01*
X131294Y62867D01*
X131311Y62791D01*
X131332Y62716D01*
X131356Y62643D01*
X131384Y62570D01*
X131416Y62499D01*
X131451Y62430D01*
X131489Y62363D01*
X131530Y62297D01*
X131575Y62234D01*
X131623Y62173D01*
X131673Y62114D01*
X131727Y62058D01*
X131783Y62004D01*
X131842Y61954D01*
X131903Y61906D01*
X131966Y61861D01*
X132032Y61820D01*
X132099Y61782D01*
X132168Y61747D01*
X132239Y61715D01*
X132312Y61687D01*
X132385Y61663D01*
X132460Y61642D01*
X132536Y61625D01*
X132612Y61612D01*
X132689Y61603D01*
X132766Y61597D01*
X132844Y61595D01*
X132844Y61594D02*
X136796Y61594D01*
X136796Y61595D02*
X136874Y61597D01*
X136951Y61603D01*
X137028Y61612D01*
X137104Y61625D01*
X137180Y61642D01*
X137255Y61663D01*
X137328Y61687D01*
X137401Y61715D01*
X137472Y61747D01*
X137541Y61782D01*
X137608Y61820D01*
X137674Y61861D01*
X137737Y61906D01*
X137798Y61954D01*
X137857Y62004D01*
X137913Y62058D01*
X137967Y62114D01*
X138017Y62173D01*
X138065Y62234D01*
X138110Y62297D01*
X138151Y62363D01*
X138189Y62430D01*
X138224Y62499D01*
X138256Y62570D01*
X138284Y62643D01*
X138308Y62716D01*
X138329Y62791D01*
X138346Y62867D01*
X138359Y62943D01*
X138368Y63020D01*
X138374Y63097D01*
X138376Y63175D01*
X138376Y64755D01*
X136400Y67327D02*
X133240Y67327D01*
X136400Y67327D02*
X136487Y67329D01*
X136575Y67335D01*
X136662Y67344D01*
X136748Y67358D01*
X136834Y67375D01*
X136918Y67396D01*
X137002Y67421D01*
X137085Y67450D01*
X137166Y67482D01*
X137246Y67517D01*
X137324Y67556D01*
X137401Y67599D01*
X137475Y67645D01*
X137547Y67694D01*
X137617Y67746D01*
X137685Y67802D01*
X137750Y67860D01*
X137813Y67921D01*
X137872Y67985D01*
X137929Y68052D01*
X137983Y68120D01*
X138034Y68192D01*
X138081Y68265D01*
X138126Y68340D01*
X138167Y68418D01*
X138204Y68497D01*
X138238Y68577D01*
X138268Y68659D01*
X138295Y68742D01*
X138318Y68827D01*
X138337Y68912D01*
X138352Y68998D01*
X138364Y69085D01*
X138372Y69172D01*
X138376Y69259D01*
X138376Y69347D01*
X138372Y69434D01*
X138364Y69521D01*
X138352Y69608D01*
X138337Y69694D01*
X138318Y69779D01*
X138295Y69864D01*
X138268Y69947D01*
X138238Y70029D01*
X138204Y70109D01*
X138167Y70188D01*
X138126Y70266D01*
X138081Y70341D01*
X138034Y70414D01*
X137983Y70486D01*
X137929Y70554D01*
X137872Y70621D01*
X137813Y70685D01*
X137750Y70746D01*
X137685Y70804D01*
X137617Y70860D01*
X137547Y70912D01*
X137475Y70961D01*
X137401Y71007D01*
X137324Y71050D01*
X137246Y71089D01*
X137166Y71124D01*
X137085Y71156D01*
X137002Y71185D01*
X136918Y71210D01*
X136834Y71231D01*
X136748Y71248D01*
X136662Y71262D01*
X136575Y71271D01*
X136487Y71277D01*
X136400Y71279D01*
X133240Y71279D01*
X133153Y71277D01*
X133065Y71271D01*
X132978Y71262D01*
X132892Y71248D01*
X132806Y71231D01*
X132722Y71210D01*
X132638Y71185D01*
X132555Y71156D01*
X132474Y71124D01*
X132394Y71089D01*
X132316Y71050D01*
X132239Y71007D01*
X132165Y70961D01*
X132093Y70912D01*
X132023Y70860D01*
X131955Y70804D01*
X131890Y70746D01*
X131827Y70685D01*
X131768Y70621D01*
X131711Y70554D01*
X131657Y70486D01*
X131606Y70414D01*
X131559Y70341D01*
X131514Y70266D01*
X131473Y70188D01*
X131436Y70109D01*
X131402Y70029D01*
X131372Y69947D01*
X131345Y69864D01*
X131322Y69779D01*
X131303Y69694D01*
X131288Y69608D01*
X131276Y69521D01*
X131268Y69434D01*
X131264Y69347D01*
X131264Y69259D01*
X131268Y69172D01*
X131276Y69085D01*
X131288Y68998D01*
X131303Y68912D01*
X131322Y68827D01*
X131345Y68742D01*
X131372Y68659D01*
X131402Y68577D01*
X131436Y68497D01*
X131473Y68418D01*
X131514Y68340D01*
X131559Y68265D01*
X131606Y68192D01*
X131657Y68120D01*
X131711Y68052D01*
X131768Y67985D01*
X131827Y67921D01*
X131890Y67860D01*
X131955Y67802D01*
X132023Y67746D01*
X132093Y67694D01*
X132165Y67645D01*
X132239Y67599D01*
X132316Y67556D01*
X132394Y67517D01*
X132474Y67482D01*
X132555Y67450D01*
X132638Y67421D01*
X132722Y67396D01*
X132806Y67375D01*
X132892Y67358D01*
X132978Y67344D01*
X133065Y67335D01*
X133153Y67329D01*
X133240Y67327D01*
X131264Y74414D02*
X138376Y74414D01*
X131264Y78365D01*
X138376Y78365D01*
X138376Y81729D02*
X131264Y81729D01*
X131264Y85680D02*
X138376Y81729D01*
X138376Y85680D02*
X131264Y85680D01*
X131264Y89057D02*
X131264Y92218D01*
X131264Y89057D02*
X138376Y89057D01*
X138376Y92218D01*
X135215Y91427D02*
X135215Y89057D01*
X131264Y96321D02*
X131264Y97902D01*
X131264Y96321D02*
X131266Y96243D01*
X131272Y96166D01*
X131281Y96089D01*
X131294Y96013D01*
X131311Y95937D01*
X131332Y95862D01*
X131356Y95789D01*
X131384Y95716D01*
X131416Y95645D01*
X131451Y95576D01*
X131489Y95509D01*
X131530Y95443D01*
X131575Y95380D01*
X131623Y95319D01*
X131673Y95260D01*
X131727Y95204D01*
X131783Y95150D01*
X131842Y95100D01*
X131903Y95052D01*
X131966Y95007D01*
X132032Y94966D01*
X132099Y94928D01*
X132168Y94893D01*
X132239Y94861D01*
X132312Y94833D01*
X132385Y94809D01*
X132460Y94788D01*
X132536Y94771D01*
X132612Y94758D01*
X132689Y94749D01*
X132766Y94743D01*
X132844Y94741D01*
X136796Y94741D01*
X136796Y94742D02*
X136874Y94744D01*
X136951Y94750D01*
X137028Y94759D01*
X137104Y94772D01*
X137180Y94789D01*
X137255Y94810D01*
X137328Y94834D01*
X137401Y94862D01*
X137472Y94894D01*
X137541Y94929D01*
X137608Y94967D01*
X137674Y95008D01*
X137737Y95053D01*
X137798Y95101D01*
X137857Y95151D01*
X137913Y95205D01*
X137967Y95261D01*
X138017Y95320D01*
X138065Y95381D01*
X138110Y95444D01*
X138151Y95510D01*
X138189Y95577D01*
X138224Y95646D01*
X138256Y95717D01*
X138284Y95790D01*
X138308Y95863D01*
X138329Y95938D01*
X138346Y96014D01*
X138359Y96090D01*
X138368Y96167D01*
X138374Y96244D01*
X138376Y96322D01*
X138376Y96321D02*
X138376Y97902D01*
X138376Y101993D02*
X131264Y101993D01*
X138376Y100017D02*
X138376Y103968D01*
X136400Y106418D02*
X133240Y106418D01*
X136400Y106417D02*
X136487Y106419D01*
X136575Y106425D01*
X136662Y106434D01*
X136748Y106448D01*
X136834Y106465D01*
X136918Y106486D01*
X137002Y106511D01*
X137085Y106540D01*
X137166Y106572D01*
X137246Y106607D01*
X137324Y106646D01*
X137401Y106689D01*
X137475Y106735D01*
X137547Y106784D01*
X137617Y106836D01*
X137685Y106892D01*
X137750Y106950D01*
X137813Y107011D01*
X137872Y107075D01*
X137929Y107142D01*
X137983Y107210D01*
X138034Y107282D01*
X138081Y107355D01*
X138126Y107430D01*
X138167Y107508D01*
X138204Y107587D01*
X138238Y107667D01*
X138268Y107749D01*
X138295Y107832D01*
X138318Y107917D01*
X138337Y108002D01*
X138352Y108088D01*
X138364Y108175D01*
X138372Y108262D01*
X138376Y108349D01*
X138376Y108437D01*
X138372Y108524D01*
X138364Y108611D01*
X138352Y108698D01*
X138337Y108784D01*
X138318Y108869D01*
X138295Y108954D01*
X138268Y109037D01*
X138238Y109119D01*
X138204Y109199D01*
X138167Y109278D01*
X138126Y109356D01*
X138081Y109431D01*
X138034Y109504D01*
X137983Y109576D01*
X137929Y109644D01*
X137872Y109711D01*
X137813Y109775D01*
X137750Y109836D01*
X137685Y109894D01*
X137617Y109950D01*
X137547Y110002D01*
X137475Y110051D01*
X137401Y110097D01*
X137324Y110140D01*
X137246Y110179D01*
X137166Y110214D01*
X137085Y110246D01*
X137002Y110275D01*
X136918Y110300D01*
X136834Y110321D01*
X136748Y110338D01*
X136662Y110352D01*
X136575Y110361D01*
X136487Y110367D01*
X136400Y110369D01*
X133240Y110369D01*
X133153Y110367D01*
X133065Y110361D01*
X132978Y110352D01*
X132892Y110338D01*
X132806Y110321D01*
X132722Y110300D01*
X132638Y110275D01*
X132555Y110246D01*
X132474Y110214D01*
X132394Y110179D01*
X132316Y110140D01*
X132239Y110097D01*
X132165Y110051D01*
X132093Y110002D01*
X132023Y109950D01*
X131955Y109894D01*
X131890Y109836D01*
X131827Y109775D01*
X131768Y109711D01*
X131711Y109644D01*
X131657Y109576D01*
X131606Y109504D01*
X131559Y109431D01*
X131514Y109356D01*
X131473Y109278D01*
X131436Y109199D01*
X131402Y109119D01*
X131372Y109037D01*
X131345Y108954D01*
X131322Y108869D01*
X131303Y108784D01*
X131288Y108698D01*
X131276Y108611D01*
X131268Y108524D01*
X131264Y108437D01*
X131264Y108349D01*
X131268Y108262D01*
X131276Y108175D01*
X131288Y108088D01*
X131303Y108002D01*
X131322Y107917D01*
X131345Y107832D01*
X131372Y107749D01*
X131402Y107667D01*
X131436Y107587D01*
X131473Y107508D01*
X131514Y107430D01*
X131559Y107355D01*
X131606Y107282D01*
X131657Y107210D01*
X131711Y107142D01*
X131768Y107075D01*
X131827Y107011D01*
X131890Y106950D01*
X131955Y106892D01*
X132023Y106836D01*
X132093Y106784D01*
X132165Y106735D01*
X132239Y106689D01*
X132316Y106646D01*
X132394Y106607D01*
X132474Y106572D01*
X132555Y106540D01*
X132638Y106511D01*
X132722Y106486D01*
X132806Y106465D01*
X132892Y106448D01*
X132978Y106434D01*
X133065Y106425D01*
X133153Y106419D01*
X133240Y106417D01*
X131264Y113545D02*
X138376Y113545D01*
X138376Y115520D01*
X138374Y115607D01*
X138368Y115695D01*
X138359Y115782D01*
X138345Y115868D01*
X138328Y115954D01*
X138307Y116038D01*
X138282Y116122D01*
X138253Y116205D01*
X138221Y116286D01*
X138186Y116366D01*
X138147Y116444D01*
X138104Y116521D01*
X138058Y116595D01*
X138009Y116667D01*
X137957Y116737D01*
X137901Y116805D01*
X137843Y116870D01*
X137782Y116933D01*
X137718Y116992D01*
X137651Y117049D01*
X137583Y117103D01*
X137511Y117154D01*
X137438Y117201D01*
X137363Y117246D01*
X137285Y117287D01*
X137206Y117324D01*
X137126Y117358D01*
X137044Y117388D01*
X136961Y117415D01*
X136876Y117438D01*
X136791Y117457D01*
X136705Y117472D01*
X136618Y117484D01*
X136531Y117492D01*
X136444Y117496D01*
X136356Y117496D01*
X136269Y117492D01*
X136182Y117484D01*
X136095Y117472D01*
X136009Y117457D01*
X135924Y117438D01*
X135839Y117415D01*
X135756Y117388D01*
X135674Y117358D01*
X135594Y117324D01*
X135515Y117287D01*
X135437Y117246D01*
X135362Y117201D01*
X135289Y117154D01*
X135217Y117103D01*
X135149Y117049D01*
X135082Y116992D01*
X135018Y116933D01*
X134957Y116870D01*
X134899Y116805D01*
X134843Y116737D01*
X134791Y116667D01*
X134742Y116595D01*
X134696Y116521D01*
X134653Y116444D01*
X134614Y116366D01*
X134579Y116286D01*
X134547Y116205D01*
X134518Y116122D01*
X134493Y116038D01*
X134472Y115954D01*
X134455Y115868D01*
X134441Y115782D01*
X134432Y115695D01*
X134426Y115607D01*
X134424Y115520D01*
X134425Y115520D02*
X134425Y113545D01*
X134425Y115916D02*
X131264Y117496D01*
M02*
