M48
;GenerationSoftware,Autodesk,EAGLE,9.2.2*%
;CreationDate,2018-12-11T02:20:51Z*%
FMAT,2
ICI,OFF
METRIC,TZ,000.000
T7C0.305
T6C0.650
T5C0.889
T4C1.016
T3C1.067
T2C1.600
T1C2.000
%
G90
M71
T1
X23241Y5080
X66929Y5080
X23241Y27940
X66929Y27940
T2
X2793Y11965
X7493Y9065
X7493Y15065
T3
X81280Y10541
X81280Y26670
X81280Y24130
X81280Y29210
X81280Y13081
X81280Y15621
X12700Y25400
X12700Y22860
X4826Y25400
X4826Y22860
T4
X46609Y27940
X44069Y27940
X41529Y27940
X49149Y27940
T5
X51240Y13690
X51240Y16230
X48700Y13690
X48700Y16230
X46160Y16230
X43620Y13690
X43620Y16230
X41080Y13690
X41080Y16230
X38540Y13690
X38540Y16230
X36000Y13690
X36000Y16230
X33460Y13690
X33460Y16230
X30920Y13690
X30920Y16230
X28380Y13690
X28380Y16230
X25840Y13690
X25840Y16230
X23300Y13690
X23300Y16230
X66480Y39090
X66480Y41630
X63940Y39090
X63940Y41630
X61400Y39090
X61400Y41630
X46160Y13690
X58860Y41630
X56320Y39090
X56320Y41630
X53780Y39090
X53780Y41630
X51240Y39090
X51240Y41630
X48700Y39090
X48700Y41630
X46160Y39090
X46160Y41630
X43620Y39090
X43620Y41630
X41080Y39090
X41080Y41630
X38540Y39090
X38540Y41630
X36000Y39090
X36000Y41630
X33460Y39090
X33460Y41630
X30920Y39090
X30920Y41630
X28380Y39090
X28380Y41630
X25840Y41630
X23300Y39090
X23300Y41630
X61400Y13690
X66480Y13690
X66480Y16230
X63940Y13690
X63940Y16230
X58860Y39090
X61400Y16230
X58860Y13690
X58860Y16230
X56320Y13690
X56320Y16230
X53780Y13690
X53780Y16230
X25840Y39090
T6
X80010Y38140
X80010Y43140
X8890Y38140
X8890Y43140
T7
X45720Y36830
X74676Y13081
X12700Y33020
X38100Y36830
M30