G04 EAGLE Gerber RS-274X export*
G75*
%MOMM*%
%FSLAX34Y34*%
%LPD*%
%INInner Layer 2*%
%IPPOS*%
%AMOC8*
5,1,8,0,0,1.08239X$1,22.5*%
G01*
%ADD10C,1.244600*%
%ADD11C,1.422400*%
%ADD12C,1.493519*%
%ADD13C,0.954800*%
%ADD14C,2.240000*%
%ADD15C,0.609600*%

G36*
X885718Y2544D02*
X885718Y2544D01*
X885737Y2542D01*
X885839Y2564D01*
X885941Y2580D01*
X885958Y2590D01*
X885978Y2594D01*
X886067Y2647D01*
X886158Y2696D01*
X886172Y2710D01*
X886189Y2720D01*
X886256Y2799D01*
X886328Y2874D01*
X886336Y2892D01*
X886349Y2907D01*
X886388Y3003D01*
X886431Y3097D01*
X886433Y3117D01*
X886441Y3135D01*
X886459Y3302D01*
X886459Y504698D01*
X886456Y504718D01*
X886458Y504737D01*
X886436Y504839D01*
X886420Y504941D01*
X886410Y504958D01*
X886406Y504978D01*
X886353Y505067D01*
X886304Y505158D01*
X886290Y505172D01*
X886280Y505189D01*
X886201Y505256D01*
X886126Y505328D01*
X886108Y505336D01*
X886093Y505349D01*
X885997Y505388D01*
X885903Y505431D01*
X885883Y505433D01*
X885865Y505441D01*
X885698Y505459D01*
X3302Y505459D01*
X3282Y505456D01*
X3263Y505458D01*
X3161Y505436D01*
X3059Y505420D01*
X3042Y505410D01*
X3022Y505406D01*
X2933Y505353D01*
X2842Y505304D01*
X2828Y505290D01*
X2811Y505280D01*
X2744Y505201D01*
X2672Y505126D01*
X2664Y505108D01*
X2651Y505093D01*
X2612Y504997D01*
X2569Y504903D01*
X2567Y504883D01*
X2559Y504865D01*
X2541Y504698D01*
X2541Y3302D01*
X2544Y3282D01*
X2542Y3263D01*
X2564Y3161D01*
X2580Y3059D01*
X2590Y3042D01*
X2594Y3022D01*
X2647Y2933D01*
X2696Y2842D01*
X2710Y2828D01*
X2720Y2811D01*
X2799Y2744D01*
X2874Y2672D01*
X2892Y2664D01*
X2907Y2651D01*
X3003Y2612D01*
X3097Y2569D01*
X3117Y2567D01*
X3135Y2559D01*
X3302Y2541D01*
X885698Y2541D01*
X885718Y2544D01*
G37*
%LPC*%
G36*
X72197Y76909D02*
X72197Y76909D01*
X67146Y79001D01*
X63281Y82866D01*
X61189Y87917D01*
X61189Y93383D01*
X63281Y98434D01*
X67146Y102299D01*
X72197Y104391D01*
X77663Y104391D01*
X82714Y102299D01*
X86579Y98434D01*
X88671Y93383D01*
X88671Y87917D01*
X86579Y82866D01*
X82714Y79001D01*
X77663Y76909D01*
X72197Y76909D01*
G37*
%LPD*%
%LPC*%
G36*
X25197Y105909D02*
X25197Y105909D01*
X20146Y108001D01*
X16281Y111866D01*
X14189Y116917D01*
X14189Y122383D01*
X16281Y127434D01*
X20146Y131299D01*
X25197Y133391D01*
X30663Y133391D01*
X35714Y131299D01*
X39579Y127434D01*
X41671Y122383D01*
X41671Y116917D01*
X39579Y111866D01*
X35714Y108001D01*
X30663Y105909D01*
X25197Y105909D01*
G37*
%LPD*%
%LPC*%
G36*
X72197Y136909D02*
X72197Y136909D01*
X67146Y139001D01*
X63281Y142866D01*
X61189Y147917D01*
X61189Y153383D01*
X63281Y158434D01*
X67146Y162299D01*
X72197Y164391D01*
X77663Y164391D01*
X82714Y162299D01*
X86579Y158434D01*
X88671Y153383D01*
X88671Y147917D01*
X86579Y142866D01*
X82714Y139001D01*
X77663Y136909D01*
X72197Y136909D01*
G37*
%LPD*%
%LPC*%
G36*
X229915Y38259D02*
X229915Y38259D01*
X225306Y40168D01*
X221778Y43696D01*
X219869Y48305D01*
X219869Y53295D01*
X221778Y57904D01*
X225306Y61432D01*
X229915Y63341D01*
X234905Y63341D01*
X239514Y61432D01*
X243042Y57904D01*
X244951Y53295D01*
X244951Y48305D01*
X243042Y43696D01*
X239514Y40168D01*
X234905Y38259D01*
X229915Y38259D01*
G37*
%LPD*%
%LPC*%
G36*
X666795Y38259D02*
X666795Y38259D01*
X662186Y40168D01*
X658658Y43696D01*
X656749Y48305D01*
X656749Y53295D01*
X658658Y57904D01*
X662186Y61432D01*
X666795Y63341D01*
X671785Y63341D01*
X676394Y61432D01*
X679922Y57904D01*
X681831Y53295D01*
X681831Y48305D01*
X679922Y43696D01*
X676394Y40168D01*
X671785Y38259D01*
X666795Y38259D01*
G37*
%LPD*%
%LPC*%
G36*
X666795Y266859D02*
X666795Y266859D01*
X662186Y268768D01*
X658658Y272296D01*
X656749Y276905D01*
X656749Y281895D01*
X658658Y286504D01*
X662186Y290032D01*
X666795Y291941D01*
X671785Y291941D01*
X676394Y290032D01*
X679922Y286504D01*
X681831Y281895D01*
X681831Y276905D01*
X679922Y272296D01*
X676394Y268768D01*
X671785Y266859D01*
X666795Y266859D01*
G37*
%LPD*%
%LPC*%
G36*
X229915Y266859D02*
X229915Y266859D01*
X225306Y268768D01*
X221778Y272296D01*
X219869Y276905D01*
X219869Y281895D01*
X221778Y286504D01*
X225306Y290032D01*
X229915Y291941D01*
X234905Y291941D01*
X239514Y290032D01*
X243042Y286504D01*
X244951Y281895D01*
X244951Y276905D01*
X243042Y272296D01*
X239514Y268768D01*
X234905Y266859D01*
X229915Y266859D01*
G37*
%LPD*%
%LPC*%
G36*
X46269Y243992D02*
X46269Y243992D01*
X42591Y245515D01*
X39775Y248331D01*
X38252Y252009D01*
X38252Y255991D01*
X39775Y259669D01*
X42591Y262485D01*
X46269Y264008D01*
X50251Y264008D01*
X53929Y262485D01*
X56745Y259669D01*
X58268Y255991D01*
X58268Y252009D01*
X56745Y248331D01*
X53929Y245515D01*
X50251Y243992D01*
X46269Y243992D01*
G37*
%LPD*%
%LPC*%
G36*
X810809Y231292D02*
X810809Y231292D01*
X807131Y232815D01*
X804315Y235631D01*
X802792Y239309D01*
X802792Y243291D01*
X804315Y246969D01*
X807131Y249785D01*
X810809Y251308D01*
X814791Y251308D01*
X818469Y249785D01*
X821285Y246969D01*
X822808Y243291D01*
X822808Y239309D01*
X821285Y235631D01*
X818469Y232815D01*
X814791Y231292D01*
X810809Y231292D01*
G37*
%LPD*%
%LPC*%
G36*
X810809Y95402D02*
X810809Y95402D01*
X807131Y96925D01*
X804315Y99741D01*
X802792Y103419D01*
X802792Y107401D01*
X804315Y111079D01*
X807131Y113895D01*
X810809Y115418D01*
X814791Y115418D01*
X818469Y113895D01*
X821285Y111079D01*
X822808Y107401D01*
X822808Y103419D01*
X821285Y99741D01*
X818469Y96925D01*
X814791Y95402D01*
X810809Y95402D01*
G37*
%LPD*%
%LPC*%
G36*
X810809Y120802D02*
X810809Y120802D01*
X807131Y122325D01*
X804315Y125141D01*
X802792Y128819D01*
X802792Y132801D01*
X804315Y136479D01*
X807131Y139295D01*
X810809Y140818D01*
X814791Y140818D01*
X818469Y139295D01*
X821285Y136479D01*
X822808Y132801D01*
X822808Y128819D01*
X821285Y125141D01*
X818469Y122325D01*
X814791Y120802D01*
X810809Y120802D01*
G37*
%LPD*%
%LPC*%
G36*
X810809Y282092D02*
X810809Y282092D01*
X807131Y283615D01*
X804315Y286431D01*
X802792Y290109D01*
X802792Y294091D01*
X804315Y297769D01*
X807131Y300585D01*
X810809Y302108D01*
X814791Y302108D01*
X818469Y300585D01*
X821285Y297769D01*
X822808Y294091D01*
X822808Y290109D01*
X821285Y286431D01*
X818469Y283615D01*
X814791Y282092D01*
X810809Y282092D01*
G37*
%LPD*%
%LPC*%
G36*
X810809Y256692D02*
X810809Y256692D01*
X807131Y258215D01*
X804315Y261031D01*
X802792Y264709D01*
X802792Y268691D01*
X804315Y272369D01*
X807131Y275185D01*
X810809Y276708D01*
X814791Y276708D01*
X818469Y275185D01*
X821285Y272369D01*
X822808Y268691D01*
X822808Y264709D01*
X821285Y261031D01*
X818469Y258215D01*
X814791Y256692D01*
X810809Y256692D01*
G37*
%LPD*%
%LPC*%
G36*
X125009Y243992D02*
X125009Y243992D01*
X121331Y245515D01*
X118515Y248331D01*
X116992Y252009D01*
X116992Y255991D01*
X118515Y259669D01*
X121331Y262485D01*
X125009Y264008D01*
X128991Y264008D01*
X132669Y262485D01*
X135485Y259669D01*
X137008Y255991D01*
X137008Y252009D01*
X135485Y248331D01*
X132669Y245515D01*
X128991Y243992D01*
X125009Y243992D01*
G37*
%LPD*%
%LPC*%
G36*
X489570Y269747D02*
X489570Y269747D01*
X486022Y271217D01*
X483307Y273932D01*
X481837Y277480D01*
X481837Y281320D01*
X483307Y284868D01*
X486022Y287583D01*
X489570Y289053D01*
X493410Y289053D01*
X496958Y287583D01*
X499673Y284868D01*
X501143Y281320D01*
X501143Y277480D01*
X499673Y273932D01*
X496958Y271217D01*
X493410Y269747D01*
X489570Y269747D01*
G37*
%LPD*%
%LPC*%
G36*
X464170Y269747D02*
X464170Y269747D01*
X460622Y271217D01*
X457907Y273932D01*
X456437Y277480D01*
X456437Y281320D01*
X457907Y284868D01*
X460622Y287583D01*
X464170Y289053D01*
X468010Y289053D01*
X471558Y287583D01*
X474273Y284868D01*
X475743Y281320D01*
X475743Y277480D01*
X474273Y273932D01*
X471558Y271217D01*
X468010Y269747D01*
X464170Y269747D01*
G37*
%LPD*%
%LPC*%
G36*
X438770Y269747D02*
X438770Y269747D01*
X435222Y271217D01*
X432507Y273932D01*
X431037Y277480D01*
X431037Y281320D01*
X432507Y284868D01*
X435222Y287583D01*
X438770Y289053D01*
X442610Y289053D01*
X446158Y287583D01*
X448873Y284868D01*
X450343Y281320D01*
X450343Y277480D01*
X448873Y273932D01*
X446158Y271217D01*
X442610Y269747D01*
X438770Y269747D01*
G37*
%LPD*%
%LPC*%
G36*
X413370Y269747D02*
X413370Y269747D01*
X409822Y271217D01*
X407107Y273932D01*
X405637Y277480D01*
X405637Y281320D01*
X407107Y284868D01*
X409822Y287583D01*
X413370Y289053D01*
X417210Y289053D01*
X420758Y287583D01*
X423473Y284868D01*
X424943Y281320D01*
X424943Y277480D01*
X423473Y273932D01*
X420758Y271217D01*
X417210Y269747D01*
X413370Y269747D01*
G37*
%LPD*%
%LPC*%
G36*
X307457Y128136D02*
X307457Y128136D01*
X304236Y129470D01*
X301770Y131936D01*
X300436Y135157D01*
X300436Y138643D01*
X301770Y141864D01*
X304236Y144330D01*
X307457Y145664D01*
X310943Y145664D01*
X314164Y144330D01*
X316630Y141864D01*
X317964Y138643D01*
X317964Y135157D01*
X316630Y131936D01*
X314164Y129470D01*
X310943Y128136D01*
X307457Y128136D01*
G37*
%LPD*%
%LPC*%
G36*
X282057Y128136D02*
X282057Y128136D01*
X278836Y129470D01*
X276370Y131936D01*
X275036Y135157D01*
X275036Y138643D01*
X276370Y141864D01*
X278836Y144330D01*
X282057Y145664D01*
X285543Y145664D01*
X288764Y144330D01*
X291230Y141864D01*
X292564Y138643D01*
X292564Y135157D01*
X291230Y131936D01*
X288764Y129470D01*
X285543Y128136D01*
X282057Y128136D01*
G37*
%LPD*%
%LPC*%
G36*
X434457Y407536D02*
X434457Y407536D01*
X431236Y408870D01*
X428770Y411336D01*
X427436Y414557D01*
X427436Y418043D01*
X428770Y421264D01*
X431236Y423730D01*
X434457Y425064D01*
X437943Y425064D01*
X441164Y423730D01*
X443630Y421264D01*
X444964Y418043D01*
X444964Y414557D01*
X443630Y411336D01*
X441164Y408870D01*
X437943Y407536D01*
X434457Y407536D01*
G37*
%LPD*%
%LPC*%
G36*
X409057Y407536D02*
X409057Y407536D01*
X405836Y408870D01*
X403370Y411336D01*
X402036Y414557D01*
X402036Y418043D01*
X403370Y421264D01*
X405836Y423730D01*
X409057Y425064D01*
X412543Y425064D01*
X415764Y423730D01*
X418230Y421264D01*
X419564Y418043D01*
X419564Y414557D01*
X418230Y411336D01*
X415764Y408870D01*
X412543Y407536D01*
X409057Y407536D01*
G37*
%LPD*%
%LPC*%
G36*
X663057Y407536D02*
X663057Y407536D01*
X659836Y408870D01*
X657370Y411336D01*
X656036Y414557D01*
X656036Y418043D01*
X657370Y421264D01*
X659836Y423730D01*
X663057Y425064D01*
X666543Y425064D01*
X669764Y423730D01*
X672230Y421264D01*
X673564Y418043D01*
X673564Y414557D01*
X672230Y411336D01*
X669764Y408870D01*
X666543Y407536D01*
X663057Y407536D01*
G37*
%LPD*%
%LPC*%
G36*
X637657Y407536D02*
X637657Y407536D01*
X634436Y408870D01*
X631970Y411336D01*
X630636Y414557D01*
X630636Y418043D01*
X631970Y421264D01*
X634436Y423730D01*
X637657Y425064D01*
X641143Y425064D01*
X644364Y423730D01*
X646830Y421264D01*
X648164Y418043D01*
X648164Y414557D01*
X646830Y411336D01*
X644364Y408870D01*
X641143Y407536D01*
X637657Y407536D01*
G37*
%LPD*%
%LPC*%
G36*
X612257Y407536D02*
X612257Y407536D01*
X609036Y408870D01*
X606570Y411336D01*
X605236Y414557D01*
X605236Y418043D01*
X606570Y421264D01*
X609036Y423730D01*
X612257Y425064D01*
X615743Y425064D01*
X618964Y423730D01*
X621430Y421264D01*
X622764Y418043D01*
X622764Y414557D01*
X621430Y411336D01*
X618964Y408870D01*
X615743Y407536D01*
X612257Y407536D01*
G37*
%LPD*%
%LPC*%
G36*
X586857Y407536D02*
X586857Y407536D01*
X583636Y408870D01*
X581170Y411336D01*
X579836Y414557D01*
X579836Y418043D01*
X581170Y421264D01*
X583636Y423730D01*
X586857Y425064D01*
X590343Y425064D01*
X593564Y423730D01*
X596030Y421264D01*
X597364Y418043D01*
X597364Y414557D01*
X596030Y411336D01*
X593564Y408870D01*
X590343Y407536D01*
X586857Y407536D01*
G37*
%LPD*%
%LPC*%
G36*
X561457Y407536D02*
X561457Y407536D01*
X558236Y408870D01*
X555770Y411336D01*
X554436Y414557D01*
X554436Y418043D01*
X555770Y421264D01*
X558236Y423730D01*
X561457Y425064D01*
X564943Y425064D01*
X568164Y423730D01*
X570630Y421264D01*
X571964Y418043D01*
X571964Y414557D01*
X570630Y411336D01*
X568164Y408870D01*
X564943Y407536D01*
X561457Y407536D01*
G37*
%LPD*%
%LPC*%
G36*
X536057Y407536D02*
X536057Y407536D01*
X532836Y408870D01*
X530370Y411336D01*
X529036Y414557D01*
X529036Y418043D01*
X530370Y421264D01*
X532836Y423730D01*
X536057Y425064D01*
X539543Y425064D01*
X542764Y423730D01*
X545230Y421264D01*
X546564Y418043D01*
X546564Y414557D01*
X545230Y411336D01*
X542764Y408870D01*
X539543Y407536D01*
X536057Y407536D01*
G37*
%LPD*%
%LPC*%
G36*
X510657Y407536D02*
X510657Y407536D01*
X507436Y408870D01*
X504970Y411336D01*
X503636Y414557D01*
X503636Y418043D01*
X504970Y421264D01*
X507436Y423730D01*
X510657Y425064D01*
X514143Y425064D01*
X517364Y423730D01*
X519830Y421264D01*
X521164Y418043D01*
X521164Y414557D01*
X519830Y411336D01*
X517364Y408870D01*
X514143Y407536D01*
X510657Y407536D01*
G37*
%LPD*%
%LPC*%
G36*
X485257Y407536D02*
X485257Y407536D01*
X482036Y408870D01*
X479570Y411336D01*
X478236Y414557D01*
X478236Y418043D01*
X479570Y421264D01*
X482036Y423730D01*
X485257Y425064D01*
X488743Y425064D01*
X491964Y423730D01*
X494430Y421264D01*
X495764Y418043D01*
X495764Y414557D01*
X494430Y411336D01*
X491964Y408870D01*
X488743Y407536D01*
X485257Y407536D01*
G37*
%LPD*%
%LPC*%
G36*
X459857Y407536D02*
X459857Y407536D01*
X456636Y408870D01*
X454170Y411336D01*
X452836Y414557D01*
X452836Y418043D01*
X454170Y421264D01*
X456636Y423730D01*
X459857Y425064D01*
X463343Y425064D01*
X466564Y423730D01*
X469030Y421264D01*
X470364Y418043D01*
X470364Y414557D01*
X469030Y411336D01*
X466564Y408870D01*
X463343Y407536D01*
X459857Y407536D01*
G37*
%LPD*%
%LPC*%
G36*
X256657Y407536D02*
X256657Y407536D01*
X253436Y408870D01*
X250970Y411336D01*
X249636Y414557D01*
X249636Y418043D01*
X250970Y421264D01*
X253436Y423730D01*
X256657Y425064D01*
X260143Y425064D01*
X263364Y423730D01*
X265830Y421264D01*
X267164Y418043D01*
X267164Y414557D01*
X265830Y411336D01*
X263364Y408870D01*
X260143Y407536D01*
X256657Y407536D01*
G37*
%LPD*%
%LPC*%
G36*
X231257Y407536D02*
X231257Y407536D01*
X228036Y408870D01*
X225570Y411336D01*
X224236Y414557D01*
X224236Y418043D01*
X225570Y421264D01*
X228036Y423730D01*
X231257Y425064D01*
X234743Y425064D01*
X237964Y423730D01*
X240430Y421264D01*
X241764Y418043D01*
X241764Y414557D01*
X240430Y411336D01*
X237964Y408870D01*
X234743Y407536D01*
X231257Y407536D01*
G37*
%LPD*%
%LPC*%
G36*
X383657Y407536D02*
X383657Y407536D01*
X380436Y408870D01*
X377970Y411336D01*
X376636Y414557D01*
X376636Y418043D01*
X377970Y421264D01*
X380436Y423730D01*
X383657Y425064D01*
X387143Y425064D01*
X390364Y423730D01*
X392830Y421264D01*
X394164Y418043D01*
X394164Y414557D01*
X392830Y411336D01*
X390364Y408870D01*
X387143Y407536D01*
X383657Y407536D01*
G37*
%LPD*%
%LPC*%
G36*
X358257Y407536D02*
X358257Y407536D01*
X355036Y408870D01*
X352570Y411336D01*
X351236Y414557D01*
X351236Y418043D01*
X352570Y421264D01*
X355036Y423730D01*
X358257Y425064D01*
X361743Y425064D01*
X364964Y423730D01*
X367430Y421264D01*
X368764Y418043D01*
X368764Y414557D01*
X367430Y411336D01*
X364964Y408870D01*
X361743Y407536D01*
X358257Y407536D01*
G37*
%LPD*%
%LPC*%
G36*
X332857Y407536D02*
X332857Y407536D01*
X329636Y408870D01*
X327170Y411336D01*
X325836Y414557D01*
X325836Y418043D01*
X327170Y421264D01*
X329636Y423730D01*
X332857Y425064D01*
X336343Y425064D01*
X339564Y423730D01*
X342030Y421264D01*
X343364Y418043D01*
X343364Y414557D01*
X342030Y411336D01*
X339564Y408870D01*
X336343Y407536D01*
X332857Y407536D01*
G37*
%LPD*%
%LPC*%
G36*
X307457Y407536D02*
X307457Y407536D01*
X304236Y408870D01*
X301770Y411336D01*
X300436Y414557D01*
X300436Y418043D01*
X301770Y421264D01*
X304236Y423730D01*
X307457Y425064D01*
X310943Y425064D01*
X314164Y423730D01*
X316630Y421264D01*
X317964Y418043D01*
X317964Y414557D01*
X316630Y411336D01*
X314164Y408870D01*
X310943Y407536D01*
X307457Y407536D01*
G37*
%LPD*%
%LPC*%
G36*
X282057Y407536D02*
X282057Y407536D01*
X278836Y408870D01*
X276370Y411336D01*
X275036Y414557D01*
X275036Y418043D01*
X276370Y421264D01*
X278836Y423730D01*
X282057Y425064D01*
X285543Y425064D01*
X288764Y423730D01*
X291230Y421264D01*
X292564Y418043D01*
X292564Y414557D01*
X291230Y411336D01*
X288764Y408870D01*
X285543Y407536D01*
X282057Y407536D01*
G37*
%LPD*%
%LPC*%
G36*
X510657Y382136D02*
X510657Y382136D01*
X507436Y383470D01*
X504970Y385936D01*
X503636Y389157D01*
X503636Y392643D01*
X504970Y395864D01*
X507436Y398330D01*
X510657Y399664D01*
X514143Y399664D01*
X517364Y398330D01*
X519830Y395864D01*
X521164Y392643D01*
X521164Y389157D01*
X519830Y385936D01*
X517364Y383470D01*
X514143Y382136D01*
X510657Y382136D01*
G37*
%LPD*%
%LPC*%
G36*
X485257Y382136D02*
X485257Y382136D01*
X482036Y383470D01*
X479570Y385936D01*
X478236Y389157D01*
X478236Y392643D01*
X479570Y395864D01*
X482036Y398330D01*
X485257Y399664D01*
X488743Y399664D01*
X491964Y398330D01*
X494430Y395864D01*
X495764Y392643D01*
X495764Y389157D01*
X494430Y385936D01*
X491964Y383470D01*
X488743Y382136D01*
X485257Y382136D01*
G37*
%LPD*%
%LPC*%
G36*
X663057Y382136D02*
X663057Y382136D01*
X659836Y383470D01*
X657370Y385936D01*
X656036Y389157D01*
X656036Y392643D01*
X657370Y395864D01*
X659836Y398330D01*
X663057Y399664D01*
X666543Y399664D01*
X669764Y398330D01*
X672230Y395864D01*
X673564Y392643D01*
X673564Y389157D01*
X672230Y385936D01*
X669764Y383470D01*
X666543Y382136D01*
X663057Y382136D01*
G37*
%LPD*%
%LPC*%
G36*
X637657Y382136D02*
X637657Y382136D01*
X634436Y383470D01*
X631970Y385936D01*
X630636Y389157D01*
X630636Y392643D01*
X631970Y395864D01*
X634436Y398330D01*
X637657Y399664D01*
X641143Y399664D01*
X644364Y398330D01*
X646830Y395864D01*
X648164Y392643D01*
X648164Y389157D01*
X646830Y385936D01*
X644364Y383470D01*
X641143Y382136D01*
X637657Y382136D01*
G37*
%LPD*%
%LPC*%
G36*
X612257Y382136D02*
X612257Y382136D01*
X609036Y383470D01*
X606570Y385936D01*
X605236Y389157D01*
X605236Y392643D01*
X606570Y395864D01*
X609036Y398330D01*
X612257Y399664D01*
X615743Y399664D01*
X618964Y398330D01*
X621430Y395864D01*
X622764Y392643D01*
X622764Y389157D01*
X621430Y385936D01*
X618964Y383470D01*
X615743Y382136D01*
X612257Y382136D01*
G37*
%LPD*%
%LPC*%
G36*
X586857Y382136D02*
X586857Y382136D01*
X583636Y383470D01*
X581170Y385936D01*
X579836Y389157D01*
X579836Y392643D01*
X581170Y395864D01*
X583636Y398330D01*
X586857Y399664D01*
X590343Y399664D01*
X593564Y398330D01*
X596030Y395864D01*
X597364Y392643D01*
X597364Y389157D01*
X596030Y385936D01*
X593564Y383470D01*
X590343Y382136D01*
X586857Y382136D01*
G37*
%LPD*%
%LPC*%
G36*
X561457Y382136D02*
X561457Y382136D01*
X558236Y383470D01*
X555770Y385936D01*
X554436Y389157D01*
X554436Y392643D01*
X555770Y395864D01*
X558236Y398330D01*
X561457Y399664D01*
X564943Y399664D01*
X568164Y398330D01*
X570630Y395864D01*
X571964Y392643D01*
X571964Y389157D01*
X570630Y385936D01*
X568164Y383470D01*
X564943Y382136D01*
X561457Y382136D01*
G37*
%LPD*%
%LPC*%
G36*
X536057Y382136D02*
X536057Y382136D01*
X532836Y383470D01*
X530370Y385936D01*
X529036Y389157D01*
X529036Y392643D01*
X530370Y395864D01*
X532836Y398330D01*
X536057Y399664D01*
X539543Y399664D01*
X542764Y398330D01*
X545230Y395864D01*
X546564Y392643D01*
X546564Y389157D01*
X545230Y385936D01*
X542764Y383470D01*
X539543Y382136D01*
X536057Y382136D01*
G37*
%LPD*%
%LPC*%
G36*
X459857Y382136D02*
X459857Y382136D01*
X456636Y383470D01*
X454170Y385936D01*
X452836Y389157D01*
X452836Y392643D01*
X454170Y395864D01*
X456636Y398330D01*
X459857Y399664D01*
X463343Y399664D01*
X466564Y398330D01*
X469030Y395864D01*
X470364Y392643D01*
X470364Y389157D01*
X469030Y385936D01*
X466564Y383470D01*
X463343Y382136D01*
X459857Y382136D01*
G37*
%LPD*%
%LPC*%
G36*
X434457Y382136D02*
X434457Y382136D01*
X431236Y383470D01*
X428770Y385936D01*
X427436Y389157D01*
X427436Y392643D01*
X428770Y395864D01*
X431236Y398330D01*
X434457Y399664D01*
X437943Y399664D01*
X441164Y398330D01*
X443630Y395864D01*
X444964Y392643D01*
X444964Y389157D01*
X443630Y385936D01*
X441164Y383470D01*
X437943Y382136D01*
X434457Y382136D01*
G37*
%LPD*%
%LPC*%
G36*
X409057Y382136D02*
X409057Y382136D01*
X405836Y383470D01*
X403370Y385936D01*
X402036Y389157D01*
X402036Y392643D01*
X403370Y395864D01*
X405836Y398330D01*
X409057Y399664D01*
X412543Y399664D01*
X415764Y398330D01*
X418230Y395864D01*
X419564Y392643D01*
X419564Y389157D01*
X418230Y385936D01*
X415764Y383470D01*
X412543Y382136D01*
X409057Y382136D01*
G37*
%LPD*%
%LPC*%
G36*
X358257Y382136D02*
X358257Y382136D01*
X355036Y383470D01*
X352570Y385936D01*
X351236Y389157D01*
X351236Y392643D01*
X352570Y395864D01*
X355036Y398330D01*
X358257Y399664D01*
X361743Y399664D01*
X364964Y398330D01*
X367430Y395864D01*
X368764Y392643D01*
X368764Y389157D01*
X367430Y385936D01*
X364964Y383470D01*
X361743Y382136D01*
X358257Y382136D01*
G37*
%LPD*%
%LPC*%
G36*
X332857Y382136D02*
X332857Y382136D01*
X329636Y383470D01*
X327170Y385936D01*
X325836Y389157D01*
X325836Y392643D01*
X327170Y395864D01*
X329636Y398330D01*
X332857Y399664D01*
X336343Y399664D01*
X339564Y398330D01*
X342030Y395864D01*
X343364Y392643D01*
X343364Y389157D01*
X342030Y385936D01*
X339564Y383470D01*
X336343Y382136D01*
X332857Y382136D01*
G37*
%LPD*%
%LPC*%
G36*
X307457Y382136D02*
X307457Y382136D01*
X304236Y383470D01*
X301770Y385936D01*
X300436Y389157D01*
X300436Y392643D01*
X301770Y395864D01*
X304236Y398330D01*
X307457Y399664D01*
X310943Y399664D01*
X314164Y398330D01*
X316630Y395864D01*
X317964Y392643D01*
X317964Y389157D01*
X316630Y385936D01*
X314164Y383470D01*
X310943Y382136D01*
X307457Y382136D01*
G37*
%LPD*%
%LPC*%
G36*
X282057Y382136D02*
X282057Y382136D01*
X278836Y383470D01*
X276370Y385936D01*
X275036Y389157D01*
X275036Y392643D01*
X276370Y395864D01*
X278836Y398330D01*
X282057Y399664D01*
X285543Y399664D01*
X288764Y398330D01*
X291230Y395864D01*
X292564Y392643D01*
X292564Y389157D01*
X291230Y385936D01*
X288764Y383470D01*
X285543Y382136D01*
X282057Y382136D01*
G37*
%LPD*%
%LPC*%
G36*
X256657Y382136D02*
X256657Y382136D01*
X253436Y383470D01*
X250970Y385936D01*
X249636Y389157D01*
X249636Y392643D01*
X250970Y395864D01*
X253436Y398330D01*
X256657Y399664D01*
X260143Y399664D01*
X263364Y398330D01*
X265830Y395864D01*
X267164Y392643D01*
X267164Y389157D01*
X265830Y385936D01*
X263364Y383470D01*
X260143Y382136D01*
X256657Y382136D01*
G37*
%LPD*%
%LPC*%
G36*
X231257Y382136D02*
X231257Y382136D01*
X228036Y383470D01*
X225570Y385936D01*
X224236Y389157D01*
X224236Y392643D01*
X225570Y395864D01*
X228036Y398330D01*
X231257Y399664D01*
X234743Y399664D01*
X237964Y398330D01*
X240430Y395864D01*
X241764Y392643D01*
X241764Y389157D01*
X240430Y385936D01*
X237964Y383470D01*
X234743Y382136D01*
X231257Y382136D01*
G37*
%LPD*%
%LPC*%
G36*
X256657Y128136D02*
X256657Y128136D01*
X253436Y129470D01*
X250970Y131936D01*
X249636Y135157D01*
X249636Y138643D01*
X250970Y141864D01*
X253436Y144330D01*
X256657Y145664D01*
X260143Y145664D01*
X263364Y144330D01*
X265830Y141864D01*
X267164Y138643D01*
X267164Y135157D01*
X265830Y131936D01*
X263364Y129470D01*
X260143Y128136D01*
X256657Y128136D01*
G37*
%LPD*%
%LPC*%
G36*
X231257Y128136D02*
X231257Y128136D01*
X228036Y129470D01*
X225570Y131936D01*
X224236Y135157D01*
X224236Y138643D01*
X225570Y141864D01*
X228036Y144330D01*
X231257Y145664D01*
X234743Y145664D01*
X237964Y144330D01*
X240430Y141864D01*
X241764Y138643D01*
X241764Y135157D01*
X240430Y131936D01*
X237964Y129470D01*
X234743Y128136D01*
X231257Y128136D01*
G37*
%LPD*%
%LPC*%
G36*
X561457Y153536D02*
X561457Y153536D01*
X558236Y154870D01*
X555770Y157336D01*
X554436Y160557D01*
X554436Y164043D01*
X555770Y167264D01*
X558236Y169730D01*
X561457Y171064D01*
X564943Y171064D01*
X568164Y169730D01*
X570630Y167264D01*
X571964Y164043D01*
X571964Y160557D01*
X570630Y157336D01*
X568164Y154870D01*
X564943Y153536D01*
X561457Y153536D01*
G37*
%LPD*%
%LPC*%
G36*
X434457Y128136D02*
X434457Y128136D01*
X431236Y129470D01*
X428770Y131936D01*
X427436Y135157D01*
X427436Y138643D01*
X428770Y141864D01*
X431236Y144330D01*
X434457Y145664D01*
X437943Y145664D01*
X441164Y144330D01*
X443630Y141864D01*
X444964Y138643D01*
X444964Y135157D01*
X443630Y131936D01*
X441164Y129470D01*
X437943Y128136D01*
X434457Y128136D01*
G37*
%LPD*%
%LPC*%
G36*
X663057Y153536D02*
X663057Y153536D01*
X659836Y154870D01*
X657370Y157336D01*
X656036Y160557D01*
X656036Y164043D01*
X657370Y167264D01*
X659836Y169730D01*
X663057Y171064D01*
X666543Y171064D01*
X669764Y169730D01*
X672230Y167264D01*
X673564Y164043D01*
X673564Y160557D01*
X672230Y157336D01*
X669764Y154870D01*
X666543Y153536D01*
X663057Y153536D01*
G37*
%LPD*%
%LPC*%
G36*
X485257Y153536D02*
X485257Y153536D01*
X482036Y154870D01*
X479570Y157336D01*
X478236Y160557D01*
X478236Y164043D01*
X479570Y167264D01*
X482036Y169730D01*
X485257Y171064D01*
X488743Y171064D01*
X491964Y169730D01*
X494430Y167264D01*
X495764Y164043D01*
X495764Y160557D01*
X494430Y157336D01*
X491964Y154870D01*
X488743Y153536D01*
X485257Y153536D01*
G37*
%LPD*%
%LPC*%
G36*
X459857Y153536D02*
X459857Y153536D01*
X456636Y154870D01*
X454170Y157336D01*
X452836Y160557D01*
X452836Y164043D01*
X454170Y167264D01*
X456636Y169730D01*
X459857Y171064D01*
X463343Y171064D01*
X466564Y169730D01*
X469030Y167264D01*
X470364Y164043D01*
X470364Y160557D01*
X469030Y157336D01*
X466564Y154870D01*
X463343Y153536D01*
X459857Y153536D01*
G37*
%LPD*%
%LPC*%
G36*
X637657Y153536D02*
X637657Y153536D01*
X634436Y154870D01*
X631970Y157336D01*
X630636Y160557D01*
X630636Y164043D01*
X631970Y167264D01*
X634436Y169730D01*
X637657Y171064D01*
X641143Y171064D01*
X644364Y169730D01*
X646830Y167264D01*
X648164Y164043D01*
X648164Y160557D01*
X646830Y157336D01*
X644364Y154870D01*
X641143Y153536D01*
X637657Y153536D01*
G37*
%LPD*%
%LPC*%
G36*
X612257Y153536D02*
X612257Y153536D01*
X609036Y154870D01*
X606570Y157336D01*
X605236Y160557D01*
X605236Y164043D01*
X606570Y167264D01*
X609036Y169730D01*
X612257Y171064D01*
X615743Y171064D01*
X618964Y169730D01*
X621430Y167264D01*
X622764Y164043D01*
X622764Y160557D01*
X621430Y157336D01*
X618964Y154870D01*
X615743Y153536D01*
X612257Y153536D01*
G37*
%LPD*%
%LPC*%
G36*
X586857Y153536D02*
X586857Y153536D01*
X583636Y154870D01*
X581170Y157336D01*
X579836Y160557D01*
X579836Y164043D01*
X581170Y167264D01*
X583636Y169730D01*
X586857Y171064D01*
X590343Y171064D01*
X593564Y169730D01*
X596030Y167264D01*
X597364Y164043D01*
X597364Y160557D01*
X596030Y157336D01*
X593564Y154870D01*
X590343Y153536D01*
X586857Y153536D01*
G37*
%LPD*%
%LPC*%
G36*
X536057Y153536D02*
X536057Y153536D01*
X532836Y154870D01*
X530370Y157336D01*
X529036Y160557D01*
X529036Y164043D01*
X530370Y167264D01*
X532836Y169730D01*
X536057Y171064D01*
X539543Y171064D01*
X542764Y169730D01*
X545230Y167264D01*
X546564Y164043D01*
X546564Y160557D01*
X545230Y157336D01*
X542764Y154870D01*
X539543Y153536D01*
X536057Y153536D01*
G37*
%LPD*%
%LPC*%
G36*
X434457Y153536D02*
X434457Y153536D01*
X431236Y154870D01*
X428770Y157336D01*
X427436Y160557D01*
X427436Y164043D01*
X428770Y167264D01*
X431236Y169730D01*
X434457Y171064D01*
X437943Y171064D01*
X441164Y169730D01*
X443630Y167264D01*
X444964Y164043D01*
X444964Y160557D01*
X443630Y157336D01*
X441164Y154870D01*
X437943Y153536D01*
X434457Y153536D01*
G37*
%LPD*%
%LPC*%
G36*
X409057Y153536D02*
X409057Y153536D01*
X405836Y154870D01*
X403370Y157336D01*
X402036Y160557D01*
X402036Y164043D01*
X403370Y167264D01*
X405836Y169730D01*
X409057Y171064D01*
X412543Y171064D01*
X415764Y169730D01*
X418230Y167264D01*
X419564Y164043D01*
X419564Y160557D01*
X418230Y157336D01*
X415764Y154870D01*
X412543Y153536D01*
X409057Y153536D01*
G37*
%LPD*%
%LPC*%
G36*
X383657Y153536D02*
X383657Y153536D01*
X380436Y154870D01*
X377970Y157336D01*
X376636Y160557D01*
X376636Y164043D01*
X377970Y167264D01*
X380436Y169730D01*
X383657Y171064D01*
X387143Y171064D01*
X390364Y169730D01*
X392830Y167264D01*
X394164Y164043D01*
X394164Y160557D01*
X392830Y157336D01*
X390364Y154870D01*
X387143Y153536D01*
X383657Y153536D01*
G37*
%LPD*%
%LPC*%
G36*
X358257Y153536D02*
X358257Y153536D01*
X355036Y154870D01*
X352570Y157336D01*
X351236Y160557D01*
X351236Y164043D01*
X352570Y167264D01*
X355036Y169730D01*
X358257Y171064D01*
X361743Y171064D01*
X364964Y169730D01*
X367430Y167264D01*
X368764Y164043D01*
X368764Y160557D01*
X367430Y157336D01*
X364964Y154870D01*
X361743Y153536D01*
X358257Y153536D01*
G37*
%LPD*%
%LPC*%
G36*
X332857Y153536D02*
X332857Y153536D01*
X329636Y154870D01*
X327170Y157336D01*
X325836Y160557D01*
X325836Y164043D01*
X327170Y167264D01*
X329636Y169730D01*
X332857Y171064D01*
X336343Y171064D01*
X339564Y169730D01*
X342030Y167264D01*
X343364Y164043D01*
X343364Y160557D01*
X342030Y157336D01*
X339564Y154870D01*
X336343Y153536D01*
X332857Y153536D01*
G37*
%LPD*%
%LPC*%
G36*
X307457Y153536D02*
X307457Y153536D01*
X304236Y154870D01*
X301770Y157336D01*
X300436Y160557D01*
X300436Y164043D01*
X301770Y167264D01*
X304236Y169730D01*
X307457Y171064D01*
X310943Y171064D01*
X314164Y169730D01*
X316630Y167264D01*
X317964Y164043D01*
X317964Y160557D01*
X316630Y157336D01*
X314164Y154870D01*
X310943Y153536D01*
X307457Y153536D01*
G37*
%LPD*%
%LPC*%
G36*
X282057Y153536D02*
X282057Y153536D01*
X278836Y154870D01*
X276370Y157336D01*
X275036Y160557D01*
X275036Y164043D01*
X276370Y167264D01*
X278836Y169730D01*
X282057Y171064D01*
X285543Y171064D01*
X288764Y169730D01*
X291230Y167264D01*
X292564Y164043D01*
X292564Y160557D01*
X291230Y157336D01*
X288764Y154870D01*
X285543Y153536D01*
X282057Y153536D01*
G37*
%LPD*%
%LPC*%
G36*
X256657Y153536D02*
X256657Y153536D01*
X253436Y154870D01*
X250970Y157336D01*
X249636Y160557D01*
X249636Y164043D01*
X250970Y167264D01*
X253436Y169730D01*
X256657Y171064D01*
X260143Y171064D01*
X263364Y169730D01*
X265830Y167264D01*
X267164Y164043D01*
X267164Y160557D01*
X265830Y157336D01*
X263364Y154870D01*
X260143Y153536D01*
X256657Y153536D01*
G37*
%LPD*%
%LPC*%
G36*
X231257Y153536D02*
X231257Y153536D01*
X228036Y154870D01*
X225570Y157336D01*
X224236Y160557D01*
X224236Y164043D01*
X225570Y167264D01*
X228036Y169730D01*
X231257Y171064D01*
X234743Y171064D01*
X237964Y169730D01*
X240430Y167264D01*
X241764Y164043D01*
X241764Y160557D01*
X240430Y157336D01*
X237964Y154870D01*
X234743Y153536D01*
X231257Y153536D01*
G37*
%LPD*%
%LPC*%
G36*
X663057Y128136D02*
X663057Y128136D01*
X659836Y129470D01*
X657370Y131936D01*
X656036Y135157D01*
X656036Y138643D01*
X657370Y141864D01*
X659836Y144330D01*
X663057Y145664D01*
X666543Y145664D01*
X669764Y144330D01*
X672230Y141864D01*
X673564Y138643D01*
X673564Y135157D01*
X672230Y131936D01*
X669764Y129470D01*
X666543Y128136D01*
X663057Y128136D01*
G37*
%LPD*%
%LPC*%
G36*
X637657Y128136D02*
X637657Y128136D01*
X634436Y129470D01*
X631970Y131936D01*
X630636Y135157D01*
X630636Y138643D01*
X631970Y141864D01*
X634436Y144330D01*
X637657Y145664D01*
X641143Y145664D01*
X644364Y144330D01*
X646830Y141864D01*
X648164Y138643D01*
X648164Y135157D01*
X646830Y131936D01*
X644364Y129470D01*
X641143Y128136D01*
X637657Y128136D01*
G37*
%LPD*%
%LPC*%
G36*
X612257Y128136D02*
X612257Y128136D01*
X609036Y129470D01*
X606570Y131936D01*
X605236Y135157D01*
X605236Y138643D01*
X606570Y141864D01*
X609036Y144330D01*
X612257Y145664D01*
X615743Y145664D01*
X618964Y144330D01*
X621430Y141864D01*
X622764Y138643D01*
X622764Y135157D01*
X621430Y131936D01*
X618964Y129470D01*
X615743Y128136D01*
X612257Y128136D01*
G37*
%LPD*%
%LPC*%
G36*
X586857Y128136D02*
X586857Y128136D01*
X583636Y129470D01*
X581170Y131936D01*
X579836Y135157D01*
X579836Y138643D01*
X581170Y141864D01*
X583636Y144330D01*
X586857Y145664D01*
X590343Y145664D01*
X593564Y144330D01*
X596030Y141864D01*
X597364Y138643D01*
X597364Y135157D01*
X596030Y131936D01*
X593564Y129470D01*
X590343Y128136D01*
X586857Y128136D01*
G37*
%LPD*%
%LPC*%
G36*
X561457Y128136D02*
X561457Y128136D01*
X558236Y129470D01*
X555770Y131936D01*
X554436Y135157D01*
X554436Y138643D01*
X555770Y141864D01*
X558236Y144330D01*
X561457Y145664D01*
X564943Y145664D01*
X568164Y144330D01*
X570630Y141864D01*
X571964Y138643D01*
X571964Y135157D01*
X570630Y131936D01*
X568164Y129470D01*
X564943Y128136D01*
X561457Y128136D01*
G37*
%LPD*%
%LPC*%
G36*
X536057Y128136D02*
X536057Y128136D01*
X532836Y129470D01*
X530370Y131936D01*
X529036Y135157D01*
X529036Y138643D01*
X530370Y141864D01*
X532836Y144330D01*
X536057Y145664D01*
X539543Y145664D01*
X542764Y144330D01*
X545230Y141864D01*
X546564Y138643D01*
X546564Y135157D01*
X545230Y131936D01*
X542764Y129470D01*
X539543Y128136D01*
X536057Y128136D01*
G37*
%LPD*%
%LPC*%
G36*
X510657Y128136D02*
X510657Y128136D01*
X507436Y129470D01*
X504970Y131936D01*
X503636Y135157D01*
X503636Y138643D01*
X504970Y141864D01*
X507436Y144330D01*
X510657Y145664D01*
X514143Y145664D01*
X517364Y144330D01*
X519830Y141864D01*
X521164Y138643D01*
X521164Y135157D01*
X519830Y131936D01*
X517364Y129470D01*
X514143Y128136D01*
X510657Y128136D01*
G37*
%LPD*%
%LPC*%
G36*
X485257Y128136D02*
X485257Y128136D01*
X482036Y129470D01*
X479570Y131936D01*
X478236Y135157D01*
X478236Y138643D01*
X479570Y141864D01*
X482036Y144330D01*
X485257Y145664D01*
X488743Y145664D01*
X491964Y144330D01*
X494430Y141864D01*
X495764Y138643D01*
X495764Y135157D01*
X494430Y131936D01*
X491964Y129470D01*
X488743Y128136D01*
X485257Y128136D01*
G37*
%LPD*%
%LPC*%
G36*
X459857Y128136D02*
X459857Y128136D01*
X456636Y129470D01*
X454170Y131936D01*
X452836Y135157D01*
X452836Y138643D01*
X454170Y141864D01*
X456636Y144330D01*
X459857Y145664D01*
X463343Y145664D01*
X466564Y144330D01*
X469030Y141864D01*
X470364Y138643D01*
X470364Y135157D01*
X469030Y131936D01*
X466564Y129470D01*
X463343Y128136D01*
X459857Y128136D01*
G37*
%LPD*%
%LPC*%
G36*
X409057Y128136D02*
X409057Y128136D01*
X405836Y129470D01*
X403370Y131936D01*
X402036Y135157D01*
X402036Y138643D01*
X403370Y141864D01*
X405836Y144330D01*
X409057Y145664D01*
X412543Y145664D01*
X415764Y144330D01*
X418230Y141864D01*
X419564Y138643D01*
X419564Y135157D01*
X418230Y131936D01*
X415764Y129470D01*
X412543Y128136D01*
X409057Y128136D01*
G37*
%LPD*%
%LPC*%
G36*
X383657Y128136D02*
X383657Y128136D01*
X380436Y129470D01*
X377970Y131936D01*
X376636Y135157D01*
X376636Y138643D01*
X377970Y141864D01*
X380436Y144330D01*
X383657Y145664D01*
X387143Y145664D01*
X390364Y144330D01*
X392830Y141864D01*
X394164Y138643D01*
X394164Y135157D01*
X392830Y131936D01*
X390364Y129470D01*
X387143Y128136D01*
X383657Y128136D01*
G37*
%LPD*%
%LPC*%
G36*
X358257Y128136D02*
X358257Y128136D01*
X355036Y129470D01*
X352570Y131936D01*
X351236Y135157D01*
X351236Y138643D01*
X352570Y141864D01*
X355036Y144330D01*
X358257Y145664D01*
X361743Y145664D01*
X364964Y144330D01*
X367430Y141864D01*
X368764Y138643D01*
X368764Y135157D01*
X367430Y131936D01*
X364964Y129470D01*
X361743Y128136D01*
X358257Y128136D01*
G37*
%LPD*%
%LPC*%
G36*
X332857Y128136D02*
X332857Y128136D01*
X329636Y129470D01*
X327170Y131936D01*
X325836Y135157D01*
X325836Y138643D01*
X327170Y141864D01*
X329636Y144330D01*
X332857Y145664D01*
X336343Y145664D01*
X339564Y144330D01*
X342030Y141864D01*
X343364Y138643D01*
X343364Y135157D01*
X342030Y131936D01*
X339564Y129470D01*
X336343Y128136D01*
X332857Y128136D01*
G37*
%LPD*%
%LPC*%
G36*
X798645Y424085D02*
X798645Y424085D01*
X795957Y425199D01*
X793899Y427257D01*
X792785Y429945D01*
X792785Y432855D01*
X793899Y435543D01*
X795957Y437601D01*
X798645Y438715D01*
X801555Y438715D01*
X804243Y437601D01*
X806301Y435543D01*
X807415Y432855D01*
X807415Y429945D01*
X806301Y427257D01*
X804243Y425199D01*
X801555Y424085D01*
X798645Y424085D01*
G37*
%LPD*%
%LPC*%
G36*
X87445Y424085D02*
X87445Y424085D01*
X84757Y425199D01*
X82699Y427257D01*
X81585Y429945D01*
X81585Y432855D01*
X82699Y435543D01*
X84757Y437601D01*
X87445Y438715D01*
X90355Y438715D01*
X93043Y437601D01*
X95101Y435543D01*
X96215Y432855D01*
X96215Y429945D01*
X95101Y427257D01*
X93043Y425199D01*
X90355Y424085D01*
X87445Y424085D01*
G37*
%LPD*%
%LPC*%
G36*
X87445Y374085D02*
X87445Y374085D01*
X84757Y375199D01*
X82699Y377257D01*
X81585Y379945D01*
X81585Y382855D01*
X82699Y385543D01*
X84757Y387601D01*
X87445Y388715D01*
X90355Y388715D01*
X93043Y387601D01*
X95101Y385543D01*
X96215Y382855D01*
X96215Y379945D01*
X95101Y377257D01*
X93043Y375199D01*
X90355Y374085D01*
X87445Y374085D01*
G37*
%LPD*%
%LPC*%
G36*
X798645Y374085D02*
X798645Y374085D01*
X795957Y375199D01*
X793899Y377257D01*
X792785Y379945D01*
X792785Y382855D01*
X793899Y385543D01*
X795957Y387601D01*
X798645Y388715D01*
X801555Y388715D01*
X804243Y387601D01*
X806301Y385543D01*
X807415Y382855D01*
X807415Y379945D01*
X806301Y377257D01*
X804243Y375199D01*
X801555Y374085D01*
X798645Y374085D01*
G37*
%LPD*%
%LPC*%
G36*
X125888Y324611D02*
X125888Y324611D01*
X123834Y325462D01*
X122262Y327034D01*
X121411Y329088D01*
X121411Y331312D01*
X122262Y333366D01*
X123834Y334938D01*
X125888Y335789D01*
X128112Y335789D01*
X130166Y334938D01*
X131738Y333366D01*
X132589Y331312D01*
X132589Y329088D01*
X131738Y327034D01*
X130166Y325462D01*
X128112Y324611D01*
X125888Y324611D01*
G37*
%LPD*%
%LPC*%
G36*
X49783Y230123D02*
X49783Y230123D01*
X49783Y238492D01*
X50604Y238362D01*
X52102Y237875D01*
X53506Y237160D01*
X54780Y236234D01*
X55894Y235120D01*
X56820Y233846D01*
X57535Y232442D01*
X58022Y230944D01*
X58152Y230123D01*
X49783Y230123D01*
G37*
%LPD*%
%LPC*%
G36*
X128523Y230123D02*
X128523Y230123D01*
X128523Y238492D01*
X129344Y238362D01*
X130842Y237875D01*
X132246Y237160D01*
X133520Y236234D01*
X134634Y235120D01*
X135560Y233846D01*
X136275Y232442D01*
X136762Y230944D01*
X136892Y230123D01*
X128523Y230123D01*
G37*
%LPD*%
%LPC*%
G36*
X814323Y157733D02*
X814323Y157733D01*
X814323Y166102D01*
X815144Y165972D01*
X816642Y165485D01*
X818046Y164770D01*
X819320Y163844D01*
X820434Y162730D01*
X821360Y161456D01*
X822075Y160052D01*
X822562Y158554D01*
X822692Y157733D01*
X814323Y157733D01*
G37*
%LPD*%
%LPC*%
G36*
X814323Y154687D02*
X814323Y154687D01*
X822692Y154687D01*
X822562Y153866D01*
X822075Y152368D01*
X821360Y150964D01*
X820434Y149690D01*
X819320Y148576D01*
X818046Y147650D01*
X816642Y146935D01*
X815144Y146448D01*
X814323Y146318D01*
X814323Y154687D01*
G37*
%LPD*%
%LPC*%
G36*
X128523Y227077D02*
X128523Y227077D01*
X136892Y227077D01*
X136762Y226256D01*
X136275Y224758D01*
X135560Y223354D01*
X134634Y222080D01*
X133520Y220966D01*
X132246Y220040D01*
X130842Y219325D01*
X129344Y218838D01*
X128523Y218708D01*
X128523Y227077D01*
G37*
%LPD*%
%LPC*%
G36*
X49783Y227077D02*
X49783Y227077D01*
X58152Y227077D01*
X58022Y226256D01*
X57535Y224758D01*
X56820Y223354D01*
X55894Y222080D01*
X54780Y220966D01*
X53506Y220040D01*
X52102Y219325D01*
X50604Y218838D01*
X49783Y218708D01*
X49783Y227077D01*
G37*
%LPD*%
%LPC*%
G36*
X802908Y157733D02*
X802908Y157733D01*
X803038Y158554D01*
X803525Y160052D01*
X804240Y161456D01*
X805166Y162730D01*
X806280Y163844D01*
X807554Y164770D01*
X808958Y165485D01*
X810456Y165972D01*
X811277Y166102D01*
X811277Y157733D01*
X802908Y157733D01*
G37*
%LPD*%
%LPC*%
G36*
X117108Y230123D02*
X117108Y230123D01*
X117238Y230944D01*
X117725Y232442D01*
X118440Y233846D01*
X119366Y235120D01*
X120480Y236234D01*
X121754Y237160D01*
X123158Y237875D01*
X124656Y238362D01*
X125477Y238492D01*
X125477Y230123D01*
X117108Y230123D01*
G37*
%LPD*%
%LPC*%
G36*
X38368Y230123D02*
X38368Y230123D01*
X38498Y230944D01*
X38985Y232442D01*
X39700Y233846D01*
X40626Y235120D01*
X41740Y236234D01*
X43014Y237160D01*
X44418Y237875D01*
X45916Y238362D01*
X46737Y238492D01*
X46737Y230123D01*
X38368Y230123D01*
G37*
%LPD*%
%LPC*%
G36*
X810456Y146448D02*
X810456Y146448D01*
X808958Y146935D01*
X807554Y147650D01*
X806280Y148576D01*
X805166Y149690D01*
X804240Y150964D01*
X803525Y152368D01*
X803038Y153866D01*
X802908Y154687D01*
X811277Y154687D01*
X811277Y146318D01*
X810456Y146448D01*
G37*
%LPD*%
%LPC*%
G36*
X124656Y218838D02*
X124656Y218838D01*
X123158Y219325D01*
X121754Y220040D01*
X120480Y220966D01*
X119366Y222080D01*
X118440Y223354D01*
X117725Y224758D01*
X117238Y226256D01*
X117108Y227077D01*
X125477Y227077D01*
X125477Y218708D01*
X124656Y218838D01*
G37*
%LPD*%
%LPC*%
G36*
X45916Y218838D02*
X45916Y218838D01*
X44418Y219325D01*
X43014Y220040D01*
X41740Y220966D01*
X40626Y222080D01*
X39700Y223354D01*
X38985Y224758D01*
X38498Y226256D01*
X38368Y227077D01*
X46737Y227077D01*
X46737Y218708D01*
X45916Y218838D01*
G37*
%LPD*%
%LPC*%
G36*
X386923Y392423D02*
X386923Y392423D01*
X386923Y399532D01*
X387956Y399327D01*
X389551Y398666D01*
X390987Y397707D01*
X392207Y396487D01*
X393166Y395051D01*
X393827Y393456D01*
X394032Y392423D01*
X386923Y392423D01*
G37*
%LPD*%
%LPC*%
G36*
X513923Y163823D02*
X513923Y163823D01*
X513923Y170932D01*
X514956Y170727D01*
X516551Y170066D01*
X517987Y169107D01*
X519207Y167887D01*
X520166Y166451D01*
X520827Y164856D01*
X521032Y163823D01*
X513923Y163823D01*
G37*
%LPD*%
%LPC*%
G36*
X376768Y392423D02*
X376768Y392423D01*
X376973Y393456D01*
X377634Y395051D01*
X378593Y396487D01*
X379813Y397707D01*
X381249Y398666D01*
X382844Y399327D01*
X383877Y399532D01*
X383877Y392423D01*
X376768Y392423D01*
G37*
%LPD*%
%LPC*%
G36*
X503768Y163823D02*
X503768Y163823D01*
X503973Y164856D01*
X504634Y166451D01*
X505593Y167887D01*
X506813Y169107D01*
X508249Y170066D01*
X509844Y170727D01*
X510877Y170932D01*
X510877Y163823D01*
X503768Y163823D01*
G37*
%LPD*%
%LPC*%
G36*
X386923Y389377D02*
X386923Y389377D01*
X394032Y389377D01*
X393827Y388344D01*
X393166Y386749D01*
X392207Y385313D01*
X390987Y384093D01*
X389551Y383134D01*
X387956Y382473D01*
X386923Y382268D01*
X386923Y389377D01*
G37*
%LPD*%
%LPC*%
G36*
X513923Y160777D02*
X513923Y160777D01*
X521032Y160777D01*
X520827Y159744D01*
X520166Y158149D01*
X519207Y156713D01*
X517987Y155493D01*
X516551Y154534D01*
X514956Y153873D01*
X513923Y153668D01*
X513923Y160777D01*
G37*
%LPD*%
%LPC*%
G36*
X509844Y153873D02*
X509844Y153873D01*
X508249Y154534D01*
X506813Y155493D01*
X505593Y156713D01*
X504634Y158149D01*
X503973Y159744D01*
X503768Y160777D01*
X510877Y160777D01*
X510877Y153668D01*
X509844Y153873D01*
G37*
%LPD*%
%LPC*%
G36*
X382844Y382473D02*
X382844Y382473D01*
X381249Y383134D01*
X379813Y384093D01*
X378593Y385313D01*
X377634Y386749D01*
X376973Y388344D01*
X376768Y389377D01*
X383877Y389377D01*
X383877Y382268D01*
X382844Y382473D01*
G37*
%LPD*%
%LPC*%
G36*
X126999Y228599D02*
X126999Y228599D01*
X126999Y228601D01*
X127001Y228601D01*
X127001Y228599D01*
X126999Y228599D01*
G37*
%LPD*%
%LPC*%
G36*
X48259Y228599D02*
X48259Y228599D01*
X48259Y228601D01*
X48261Y228601D01*
X48261Y228599D01*
X48259Y228599D01*
G37*
%LPD*%
%LPC*%
G36*
X512399Y162299D02*
X512399Y162299D01*
X512399Y162301D01*
X512401Y162301D01*
X512401Y162299D01*
X512399Y162299D01*
G37*
%LPD*%
%LPC*%
G36*
X812799Y156209D02*
X812799Y156209D01*
X812799Y156211D01*
X812801Y156211D01*
X812801Y156209D01*
X812799Y156209D01*
G37*
%LPD*%
%LPC*%
G36*
X385399Y390899D02*
X385399Y390899D01*
X385399Y390901D01*
X385401Y390901D01*
X385401Y390899D01*
X385399Y390899D01*
G37*
%LPD*%
D10*
X664800Y136900D03*
X664800Y162300D03*
X639400Y136900D03*
X639400Y162300D03*
X614000Y136900D03*
X614000Y162300D03*
X588600Y136900D03*
X588600Y162300D03*
X563200Y136900D03*
X563200Y162300D03*
X537800Y136900D03*
X537800Y162300D03*
X512400Y136900D03*
X512400Y162300D03*
X487000Y136900D03*
X487000Y162300D03*
X461600Y136900D03*
X461600Y162300D03*
X436200Y136900D03*
X436200Y162300D03*
X410800Y136900D03*
X410800Y162300D03*
X385400Y136900D03*
X385400Y162300D03*
X360000Y136900D03*
X360000Y162300D03*
X334600Y136900D03*
X334600Y162300D03*
X309200Y136900D03*
X309200Y162300D03*
X283800Y136900D03*
X283800Y162300D03*
X258400Y136900D03*
X258400Y162300D03*
X233000Y136900D03*
X233000Y162300D03*
X664800Y390900D03*
X664800Y416300D03*
X639400Y390900D03*
X639400Y416300D03*
X614000Y390900D03*
X614000Y416300D03*
X588600Y390900D03*
X588600Y416300D03*
X563200Y390900D03*
X563200Y416300D03*
X537800Y390900D03*
X537800Y416300D03*
X512400Y390900D03*
X512400Y416300D03*
X487000Y390900D03*
X487000Y416300D03*
X461600Y390900D03*
X461600Y416300D03*
X436200Y390900D03*
X436200Y416300D03*
X410800Y390900D03*
X410800Y416300D03*
X385400Y390900D03*
X385400Y416300D03*
X360000Y390900D03*
X360000Y416300D03*
X334600Y390900D03*
X334600Y416300D03*
X309200Y390900D03*
X309200Y416300D03*
X283800Y390900D03*
X283800Y416300D03*
X258400Y390900D03*
X258400Y416300D03*
X233000Y390900D03*
X233000Y416300D03*
D11*
X415290Y279400D03*
X440690Y279400D03*
X466090Y279400D03*
X491490Y279400D03*
D12*
X812800Y266700D03*
X812800Y241300D03*
X812800Y292100D03*
X812800Y130810D03*
X812800Y105410D03*
X812800Y156210D03*
X127000Y254000D03*
X127000Y228600D03*
X48260Y254000D03*
X48260Y228600D03*
D13*
X800100Y381400D03*
X800100Y431400D03*
X88900Y381400D03*
X88900Y431400D03*
D14*
X74930Y90650D03*
X74930Y150650D03*
X27930Y119650D03*
D15*
X127000Y330200D03*
X746760Y130810D03*
X457200Y368300D03*
X381000Y368300D03*
M02*
