G04 EAGLE Gerber RS-274X export*
G75*
%MOMM*%
%FSLAX34Y34*%
%LPD*%
%INTop Soldermask*%
%IPPOS*%
%AMOC8*
5,1,8,0,0,1.08239X$1,22.5*%
G01*
%ADD10R,1.676400X1.676400*%
%ADD11P,1.814519X8X202.500000*%
%ADD12C,2.152400*%
%ADD13C,1.930400*%
%ADD14C,1.645919*%
%ADD15R,1.645919X1.645919*%
%ADD16P,1.781526X8X112.500000*%
%ADD17P,1.781526X8X292.500000*%
%ADD18R,1.183641X1.102359*%
%ADD19R,1.102359X1.183641*%
%ADD20R,1.107200X1.107200*%
%ADD21P,1.198422X8X22.500000*%
%ADD22R,2.392400X2.392400*%
%ADD23P,2.589510X8X22.500000*%


D10*
X664800Y136900D03*
D11*
X664800Y162300D03*
X639400Y136900D03*
X639400Y162300D03*
X614000Y136900D03*
X614000Y162300D03*
X588600Y136900D03*
X588600Y162300D03*
X563200Y136900D03*
X563200Y162300D03*
X537800Y136900D03*
X537800Y162300D03*
X512400Y136900D03*
X512400Y162300D03*
X487000Y136900D03*
X487000Y162300D03*
X461600Y136900D03*
X461600Y162300D03*
X436200Y136900D03*
X436200Y162300D03*
X410800Y136900D03*
X410800Y162300D03*
X385400Y136900D03*
X385400Y162300D03*
X360000Y136900D03*
X360000Y162300D03*
X334600Y136900D03*
X334600Y162300D03*
X309200Y136900D03*
X309200Y162300D03*
X283800Y136900D03*
X283800Y162300D03*
X258400Y136900D03*
X258400Y162300D03*
X233000Y136900D03*
X233000Y162300D03*
D10*
X664800Y390900D03*
D11*
X664800Y416300D03*
X639400Y390900D03*
X639400Y416300D03*
X614000Y390900D03*
X614000Y416300D03*
X588600Y390900D03*
X588600Y416300D03*
X563200Y390900D03*
X563200Y416300D03*
X537800Y390900D03*
X537800Y416300D03*
X512400Y390900D03*
X512400Y416300D03*
X487000Y390900D03*
X487000Y416300D03*
X461600Y390900D03*
X461600Y416300D03*
X436200Y390900D03*
X436200Y416300D03*
X410800Y390900D03*
X410800Y416300D03*
X385400Y390900D03*
X385400Y416300D03*
X360000Y390900D03*
X360000Y416300D03*
X334600Y390900D03*
X334600Y416300D03*
X309200Y390900D03*
X309200Y416300D03*
X283800Y390900D03*
X283800Y416300D03*
X258400Y390900D03*
X258400Y416300D03*
X233000Y390900D03*
X233000Y416300D03*
D12*
X232410Y50800D03*
X669290Y50800D03*
X232410Y279400D03*
X669290Y279400D03*
D13*
X415290Y279400D03*
X440690Y279400D03*
X466090Y279400D03*
X491490Y279400D03*
D14*
X812800Y266700D03*
D15*
X812800Y241300D03*
D16*
X812800Y292100D03*
D14*
X812800Y130810D03*
D15*
X812800Y105410D03*
D16*
X812800Y156210D03*
D15*
X127000Y254000D03*
D17*
X127000Y228600D03*
D15*
X48260Y254000D03*
D17*
X48260Y228600D03*
D18*
X381000Y334899D03*
X381000Y350901D03*
X457200Y334899D03*
X457200Y350901D03*
X127000Y296799D03*
X127000Y312801D03*
D19*
X777621Y130810D03*
X761619Y130810D03*
D20*
X800100Y381400D03*
D21*
X800100Y431400D03*
D20*
X88900Y381400D03*
D21*
X88900Y431400D03*
D22*
X74930Y90650D03*
D23*
X74930Y150650D03*
D22*
X27930Y119650D03*
M02*
